<?xml version="1.0" standalone="yes"?>

<svg version="1.1" viewBox="0.0 0.0 843.0 444.0" fill="none" stroke="none" stroke-linecap="square" stroke-miterlimit="10" xmlns="http://www.w3.org/2000/svg" xmlns:xlink="http://www.w3.org/1999/xlink"><clipPath id="p.0"><path d="m0 0l843.0 0l0 444.0l-843.0 0l0 -444.0z" clip-rule="nonzero"></path></clipPath><g clip-path="url(#p.0)"><path fill="#000000" fill-opacity="0.0" d="m0 0l843.07086 0l0 444.58792l-843.07086 0z" fill-rule="nonzero"></path><path fill="#000000" fill-opacity="0.0" d="m0 5.086614l833.19684 0l0 439.49606l-833.19684 0z" fill-rule="nonzero"></path><path fill="#b7b7b7" d="m23.453125 55.04661l-2.984375 0l-7.25 -16.390625l-1.796875 0q-0.640625 0 -0.921875 -0.25q-0.265625 -0.265625 -0.265625 -0.65625q0 -0.375 0.265625 -0.625q0.28125 -0.265625 0.921875 -0.265625l6.609375 0q0.625 0 0.890625 0.265625q0.28125 0.25 0.28125 0.640625q0 0.375 -0.28125 0.640625q-0.265625 0.25 -0.890625 0.25l-2.921875 0l6.46875 14.625l0.78125 0l6.328125 -14.625l-2.9375 0q-0.625 0 -0.90625 -0.25q-0.265625 -0.265625 -0.265625 -0.65625q0 -0.375 0.265625 -0.625q0.28125 -0.265625 0.90625 -0.265625l6.640625 0q0.65625 0 0.90625 0.265625q0.265625 0.25 0.265625 0.640625q0 0.375 -0.265625 0.640625q-0.25 0.25 -0.90625 0.25l-1.78125 0l-7.15625 16.390625zm29.11354 0l0 -2.546875q-3.84375 3.234375 -8.203125 3.234375q-3.171875 0 -4.953125 -1.59375q-1.78125 -1.609375 -1.78125 -3.9375q0 -2.5625 2.34375 -4.46875q2.359375 -1.921875 6.859375 -1.921875q1.21875 0 2.640625 0.15625q1.4375 0.15625 3.09375 0.5l0 -2.859375q0 -1.453125 -1.34375 -2.515625q-1.34375 -1.078125 -4.03125 -1.078125q-2.046875 0 -5.765625 1.203125q-0.671875 0.203125 -0.859375 0.203125q-0.34375 0 -0.59375 -0.25q-0.234375 -0.25 -0.234375 -0.625q0 -0.359375 0.21875 -0.5625q0.28125 -0.328125 2.375 -0.875q3.265625 -0.875 4.953125 -0.875q3.328125 0 5.1875 1.65625q1.875 1.640625 1.875 3.71875l0 11.671875l2.359375 0q0.65625 0 0.921875 0.25q0.28125 0.234375 0.28125 0.640625q0 0.375 -0.28125 0.625q-0.265625 0.25 -0.921875 0.25l-4.140625 0zm0 -8.78125q-1.234375 -0.359375 -2.625 -0.515625q-1.375 -0.171875 -2.90625 -0.171875q-3.84375 0 -6.015625 1.65625q-1.640625 1.234375 -1.640625 2.96875q0 1.59375 1.25 2.6875q1.25 1.078125 3.640625 1.078125q2.296875 0 4.25 -0.90625q1.96875 -0.90625 4.046875 -2.90625l0 -3.890625zm18.42604 -9.40625l0 4.453125q3.4375 -3.109375 5.140625 -4.0q1.71875 -0.890625 3.171875 -0.890625q1.578125 0 2.921875 1.0625q1.359375 1.0625 1.359375 1.609375q0 0.390625 -0.265625 0.65625q-0.265625 0.265625 -0.65625 0.265625q-0.21875 0 -0.359375 -0.078125q-0.140625 -0.078125 -0.546875 -0.46875q-0.734375 -0.734375 -1.28125 -1.0q-0.546875 -0.28125 -1.0625 -0.28125q-1.15625 0 -2.796875 0.921875q-1.625 0.921875 -5.625 4.515625l0 9.65625l7.8125 0q0.640625 0 0.90625 0.25q0.28125 0.234375 0.28125 0.640625q0 0.375 -0.28125 0.625q-0.265625 0.25 -0.90625 0.25l-13.84375 0q-0.625 0 -0.90625 -0.234375q-0.265625 -0.25 -0.265625 -0.625q0 -0.359375 0.25 -0.59375q0.265625 -0.25 0.921875 -0.25l4.265625 0l0 -14.6875l-3.25 0q-0.640625 0 -0.921875 -0.25q-0.265625 -0.265625 -0.265625 -0.65625q0 -0.375 0.265625 -0.625q0.265625 -0.265625 0.921875 -0.265625l5.015625 0zm58.367706 18.1875l0 -2.546875q-3.84375 3.234375 -8.203125 3.234375q-3.171875 0 -4.953125 -1.59375q-1.78125 -1.609375 -1.78125 -3.9375q0 -2.5625 2.34375 -4.46875q2.359375 -1.921875 6.859375 -1.921875q1.21875 0 2.640625 0.15625q1.4375 0.15625 3.09375 0.5l0 -2.859375q0 -1.453125 -1.34375 -2.515625q-1.34375 -1.078125 -4.03125 -1.078125q-2.046875 0 -5.765625 1.203125q-0.671875 0.203125 -0.859375 0.203125q-0.34375 0 -0.59375 -0.25q-0.234375 -0.25 -0.234375 -0.625q0 -0.359375 0.21875 -0.5625q0.28125 -0.328125 2.375 -0.875q3.265625 -0.875 4.953125 -0.875q3.328125 0 5.1875 1.65625q1.875 1.640625 1.875 3.71875l0 11.671875l2.359375 0q0.65625 0 0.921875 0.25q0.28125 0.234375 0.28125 0.640625q0 0.375 -0.28125 0.625q-0.265625 0.25 -0.921875 0.25l-4.140625 0zm0 -8.78125q-1.234375 -0.359375 -2.625 -0.515625q-1.375 -0.171875 -2.90625 -0.171875q-3.84375 0 -6.015625 1.65625q-1.640625 1.234375 -1.640625 2.96875q0 1.59375 1.25 2.6875q1.25 1.078125 3.640625 1.078125q2.296875 0 4.25 -0.90625q1.96875 -0.90625 4.046875 -2.90625l0 -3.890625zm29.17604 -17.562498l0 24.578123l2.34375 0q0.65625 0 0.921875 0.25q0.28125 0.234375 0.28125 0.640625q0 0.375 -0.28125 0.625q-0.265625 0.25 -0.921875 0.25l-4.140625 0l0 -3.5q-3.0625 4.1875 -7.78125 4.1875q-2.390625 0 -4.59375 -1.265625q-2.1875 -1.265625 -3.46875 -3.609375q-1.265625 -2.359375 -1.265625 -4.859375q0 -2.515625 1.265625 -4.859375q1.28125 -2.34375 3.46875 -3.625q2.203125 -1.28125 4.609375 -1.28125q4.625 0 7.765625 4.203125l0 -9.953123l-2.34375 0q-0.65625 0 -0.9375 -0.25q-0.265625 -0.25 -0.265625 -0.65625q0 -0.375 0.265625 -0.625q0.28125 -0.25 0.9375 -0.25l4.140625 0zm-1.796875 17.296873q0 -3.359375 -2.265625 -5.671875q-2.265625 -2.3125 -5.390625 -2.3125q-3.15625 0 -5.421875 2.3125q-2.265625 2.3125 -2.265625 5.671875q0 3.328125 2.265625 5.65625q2.265625 2.3125 5.421875 2.3125q3.125 0 5.390625 -2.3125q2.265625 -2.328125 2.265625 -5.65625zm27.39479 -17.296873l0 24.578123l2.34375 0q0.65625 0 0.921875 0.25q0.28125 0.234375 0.28125 0.640625q0 0.375 -0.28125 0.625q-0.265625 0.25 -0.921875 0.25l-4.140625 0l0 -3.5q-3.0625 4.1875 -7.78125 4.1875q-2.390625 0 -4.59375 -1.265625q-2.1875 -1.265625 -3.46875 -3.609375q-1.265625 -2.359375 -1.265625 -4.859375q0 -2.515625 1.265625 -4.859375q1.28125 -2.34375 3.46875 -3.625q2.203125 -1.28125 4.609375 -1.28125q4.625 0 7.765625 4.203125l0 -9.953123l-2.34375 0q-0.65625 0 -0.9375 -0.25q-0.265625 -0.25 -0.265625 -0.65625q0 -0.375 0.265625 -0.625q0.28125 -0.25 0.9375 -0.25l4.140625 0zm-1.796875 17.296873q0 -3.359375 -2.265625 -5.671875q-2.265625 -2.3125 -5.390625 -2.3125q-3.15625 0 -5.421875 2.3125q-2.265625 2.3125 -2.265625 5.671875q0 3.328125 2.265625 5.65625q2.265625 2.3125 5.421875 2.3125q3.125 0 5.390625 -2.3125q2.265625 -2.328125 2.265625 -5.65625zm53.97708 -5.546875l-19.234375 0q-0.625 0 -0.90625 -0.25q-0.265625 -0.25 -0.265625 -0.65625q0 -0.375 0.265625 -0.625q0.28125 -0.25 0.90625 -0.25l19.234375 0q0.625 0 0.890625 0.25q0.28125 0.25 0.28125 0.65625q0 0.375 -0.28125 0.625q-0.265625 0.25 -0.890625 0.25zm0 6.328125l-19.234375 0q-0.625 0 -0.90625 -0.234375q-0.265625 -0.25 -0.265625 -0.65625q0 -0.390625 0.265625 -0.625q0.28125 -0.25 0.90625 -0.25l19.234375 0q0.625 0 0.890625 0.25q0.28125 0.234375 0.28125 0.625q0 0.40625 -0.28125 0.65625q-0.265625 0.234375 -0.890625 0.234375zm40.398956 -8.125l0 14.625l7.75 0q0.625 0 0.890625 0.25q0.28125 0.234375 0.28125 0.640625q0 0.375 -0.28125 0.625q-0.265625 0.25 -0.890625 0.25l-13.796875 0q-0.625 0 -0.90625 -0.25q-0.265625 -0.25 -0.265625 -0.625q0 -0.40625 0.265625 -0.640625q0.28125 -0.25 0.90625 -0.25l4.265625 0l0 -14.625l-3.828125 0q-0.625 0 -0.90625 -0.25q-0.265625 -0.265625 -0.265625 -0.65625q0 -0.375 0.265625 -0.625q0.28125 -0.265625 0.90625 -0.265625l3.828125 0l0 -2.65625q0 -2.234373 1.796875 -3.859373q1.8125 -1.640625 4.796875 -1.640625q2.5 0 5.328125 0.453125q1.078125 0.171875 1.296875 0.40625q0.21875 0.21875 0.21875 0.609375q0 0.375 -0.25 0.625q-0.25 0.234375 -0.671875 0.234375q-0.171875 0 -0.5625 -0.0625q-3.171875 -0.484375 -5.359375 -0.484375q-2.3125 0 -3.5625 1.140625q-1.25 1.1249981 -1.25 2.578123l0 2.65625l8.25 0q0.640625 0 0.90625 0.265625q0.28125 0.25 0.28125 0.640625q0 0.375 -0.28125 0.640625q-0.265625 0.25 -0.90625 0.25l-8.25 0zm32.801056 16.390625l0 -2.578125q-3.609375 3.265625 -7.8125 3.265625q-2.578125 0 -3.921875 -1.40625q-1.75 -1.84375 -1.75 -4.296875l0 -11.375l-2.359375 0q-0.640625 0 -0.921875 -0.25q-0.265625 -0.265625 -0.265625 -0.65625q0 -0.375 0.265625 -0.625q0.28125 -0.265625 0.921875 -0.265625l4.125 0l0 13.171875q0 1.71875 1.09375 2.828125q1.09375 1.109375 2.734375 1.109375q4.296875 0 7.890625 -3.9375l0 -11.375l-3.25 0q-0.640625 0 -0.90625 -0.25q-0.265625 -0.265625 -0.265625 -0.65625q0 -0.375 0.265625 -0.625q0.265625 -0.265625 0.90625 -0.265625l5.015625 0l0 16.421875l1.484375 0q0.640625 0 0.90625 0.25q0.28125 0.234375 0.28125 0.640625q0 0.375 -0.28125 0.625q-0.265625 0.25 -0.90625 0.25l-3.25 0zm13.863525 -18.1875l0 2.671875q1.84375 -1.875 3.328125 -2.578125q1.5 -0.71875 3.375 -0.71875q2.015625 0 3.671875 0.859375q1.171875 0.625 2.125 2.09375q0.953125 1.453125 0.953125 2.984375l0 11.109375l1.5 0q0.625 0 0.890625 0.25q0.28125 0.234375 0.28125 0.640625q0 0.375 -0.28125 0.625q-0.265625 0.25 -0.890625 0.25l-4.734375 0q-0.640625 0 -0.921875 -0.25q-0.265625 -0.25 -0.265625 -0.625q0 -0.40625 0.265625 -0.640625q0.28125 -0.25 0.921875 -0.25l1.46875 0l0 -10.8125q0 -1.875 -1.359375 -3.15625q-1.359375 -1.296875 -3.65625 -1.296875q-1.734375 0 -3.015625 0.703125q-1.28125 0.703125 -3.65625 3.5l0 11.0625l2.0 0q0.625 0 0.890625 0.25q0.28125 0.234375 0.28125 0.640625q0 0.375 -0.28125 0.625q-0.265625 0.25 -0.890625 0.25l-5.765625 0q-0.625 0 -0.90625 -0.25q-0.265625 -0.25 -0.265625 -0.625q0 -0.40625 0.265625 -0.640625q0.28125 -0.25 0.90625 -0.25l2.0 0l0 -14.625l-1.484375 0q-0.640625 0 -0.921875 -0.25q-0.265625 -0.265625 -0.265625 -0.65625q0 -0.375 0.265625 -0.625q0.28125 -0.265625 0.921875 -0.265625l3.25 0zm38.6604 1.796875l0 -0.59375q0 -0.65625 0.25 -0.921875q0.25 -0.28125 0.625 -0.28125q0.40625 0 0.65625 0.28125q0.25 0.265625 0.25 0.921875l0 3.984375q-0.015625 0.65625 -0.265625 0.9375q-0.234375 0.265625 -0.640625 0.265625q-0.359375 0 -0.609375 -0.234375q-0.234375 -0.25 -0.265625 -0.8125q-0.125 -1.5 -1.96875 -2.84375q-1.828125 -1.34375 -4.9375 -1.34375q-3.9375 0 -5.96875 2.46875q-2.03125 2.453125 -2.03125 5.625q0 3.421875 2.234375 5.640625q2.25 2.21875 5.828125 2.21875q2.046875 0 4.171875 -0.75q2.140625 -0.75 3.859375 -2.4375q0.453125 -0.421875 0.78125 -0.421875q0.359375 0 0.59375 0.25q0.25 0.234375 0.25 0.59375q0 0.90625 -2.125 2.296875q-3.421875 2.234375 -7.625 2.234375q-4.25 0 -7.0 -2.71875q-2.734375 -2.71875 -2.734375 -6.890625q0 -4.265625 2.796875 -7.078125q2.8125 -2.8125 7.0625 -2.8125q4.0625 0 6.8125 2.421875zm14.613525 -1.796875l9.578125 0q0.625 0 0.890625 0.265625q0.28125 0.25 0.28125 0.640625q0 0.375 -0.28125 0.640625q-0.265625 0.25 -0.890625 0.25l-9.578125 0l0 11.734375q0 1.53125 1.21875 2.5625q1.234375 1.015625 3.609375 1.015625q1.78125 0 3.859375 -0.53125q2.078125 -0.53125 3.234375 -1.203125q0.421875 -0.28125 0.703125 -0.28125q0.328125 0 0.578125 0.265625q0.25 0.265625 0.25 0.625q0 0.3125 -0.265625 0.59375q-0.671875 0.6875 -3.265625 1.5q-2.59375 0.796875 -4.96875 0.796875q-3.078125 0 -4.90625 -1.4375q-1.828125 -1.453125 -1.828125 -3.90625l0 -11.734375l-3.265625 0q-0.625 0 -0.90625 -0.25q-0.265625 -0.265625 -0.265625 -0.65625q0 -0.375 0.265625 -0.625q0.28125 -0.265625 0.90625 -0.265625l3.265625 0l0 -5.203123q0 -0.625 0.25 -0.890625q0.25 -0.28125 0.625 -0.28125q0.40625 0 0.65625 0.28125q0.25 0.265625 0.25 0.890625l0 5.203123zm30.0979 -9.046873l0 4.562498l-2.609375 0l0 -4.562498l2.609375 0zm0.0625 9.046873l0 16.421875l6.921875 0q0.65625 0 0.921875 0.25q0.28125 0.234375 0.28125 0.640625q0 0.375 -0.28125 0.625q-0.265625 0.25 -0.921875 0.25l-15.625 0q-0.625 0 -0.90625 -0.25q-0.265625 -0.25 -0.265625 -0.625q0 -0.40625 0.265625 -0.640625q0.28125 -0.25 0.90625 -0.25l6.9375 0l0 -14.625l-5.15625 0q-0.625 0 -0.90625 -0.25q-0.28125 -0.265625 -0.28125 -0.640625q0 -0.390625 0.265625 -0.640625q0.28125 -0.265625 0.921875 -0.265625l6.921875 0zm34.519775 9.140625q0 4.03125 -2.890625 6.890625q-2.890625 2.84375 -6.96875 2.84375q-4.109375 0 -6.984375 -2.859375q-2.875 -2.875 -2.875 -6.875q0 -4.03125 2.875 -6.890625q2.875 -2.875 6.984375 -2.875q4.078125 0 6.96875 2.859375q2.890625 2.84375 2.890625 6.90625zm-1.796875 0q0 -3.3125 -2.359375 -5.640625q-2.359375 -2.34375 -5.71875 -2.34375q-3.359375 0 -5.71875 2.34375q-2.359375 2.34375 -2.359375 5.640625q0 3.265625 2.359375 5.625q2.359375 2.34375 5.71875 2.34375q3.359375 0 5.71875 -2.328125q2.359375 -2.34375 2.359375 -5.640625zm11.832275 -9.140625l0 2.671875q1.84375 -1.875 3.328125 -2.578125q1.5 -0.71875 3.375 -0.71875q2.015625 0 3.671875 0.859375q1.171875 0.625 2.125 2.09375q0.953125 1.453125 0.953125 2.984375l0 11.109375l1.5 0q0.625 0 0.890625 0.25q0.28125 0.234375 0.28125 0.640625q0 0.375 -0.28125 0.625q-0.265625 0.25 -0.890625 0.25l-4.734375 0q-0.640625 0 -0.921875 -0.25q-0.265625 -0.25 -0.265625 -0.625q0 -0.40625 0.265625 -0.640625q0.28125 -0.25 0.921875 -0.25l1.46875 0l0 -10.8125q0 -1.875 -1.359375 -3.15625q-1.359375 -1.296875 -3.65625 -1.296875q-1.734375 0 -3.015625 0.703125q-1.28125 0.703125 -3.65625 3.5l0 11.0625l2.0 0q0.625 0 0.890625 0.25q0.28125 0.234375 0.28125 0.640625q0 0.375 -0.28125 0.625q-0.265625 0.25 -0.890625 0.25l-5.765625 0q-0.625 0 -0.90625 -0.25q-0.265625 -0.25 -0.265625 -0.625q0 -0.40625 0.265625 -0.640625q0.28125 -0.25 0.90625 -0.25l2.0 0l0 -14.625l-1.484375 0q-0.640625 0 -0.921875 -0.25q-0.265625 -0.265625 -0.265625 -0.65625q0 -0.375 0.265625 -0.625q0.28125 -0.265625 0.921875 -0.265625l3.25 0zm31.0979 7.734375q0 -2.421875 0.625 -5.125q0.640625 -2.703125 2.421875 -6.25q1.78125 -3.562498 2.59375 -4.296873q0.265625 -0.21875 0.546875 -0.21875q0.390625 0 0.640625 0.25q0.265625 0.25 0.265625 0.609375q0 0.203125 -0.140625 0.453125q-2.3125 4.249998 -3.296875 7.687498q-0.984375 3.4375 -0.984375 6.890625q0 3.46875 0.984375 6.90625q0.984375 3.4375 3.296875 7.65625q0.140625 0.265625 0.140625 0.46875q0 0.359375 -0.265625 0.609375q-0.25 0.265625 -0.640625 0.265625q-0.28125 0 -0.546875 -0.21875q-0.765625 -0.71875 -2.53125 -4.1875q-1.765625 -3.46875 -2.4375 -6.125q-0.671875 -2.671875 -0.671875 -5.375z" fill-rule="nonzero"></path><path fill="#6aa84f" d="m503.90717 35.98411l0 1.453125q1.171875 -1.015625 2.59375 -1.515625q1.421875 -0.5 3.078125 -0.5q3.8125 0 6.046875 2.359375q1.765625 1.890625 1.765625 4.96875l0 8.0q1.359375 0 2.0 0.59375q0.65625 0.59375 0.65625 1.5625q0 0.9375 -0.65625 1.546875q-0.65625 0.59375 -2.21875 0.59375l-3.875 0q-1.5625 0 -2.234375 -0.59375q-0.65625 -0.609375 -0.65625 -1.5625q0 -0.953125 0.65625 -1.546875q0.65625 -0.59375 2.015625 -0.59375l0 -8.140625q0 -1.40625 -0.75 -2.046875q-0.984375 -0.84375 -2.96875 -0.84375q-1.484375 0 -2.609375 0.578125q-1.125 0.578125 -2.84375 2.453125l0 8.0q1.65625 0 2.140625 0.3125q1.03125 0.625 1.03125 1.84375q0 0.9375 -0.671875 1.546875q-0.65625 0.59375 -2.203125 0.59375l-4.890625 0q-1.5625 0 -2.21875 -0.59375q-0.65625 -0.609375 -0.65625 -1.5625q0 -1.1875 1.0 -1.828125q0.5 -0.3125 2.15625 -0.3125l0 -10.46875q-1.359375 0 -2.015625 -0.609375q-0.640625 -0.609375 -0.640625 -1.546875q0 -0.953125 0.65625 -1.546875q0.65625 -0.59375 2.21875 -0.59375l4.09375 0zm32.144775 -8.796873l0 23.562498l4.34375 0q1.5625 0 2.21875 0.59375q0.65625 0.59375 0.65625 1.5625q0 0.9375 -0.65625 1.546875q-0.65625 0.59375 -2.21875 0.59375l-12.984375 0q-1.5625 0 -2.234375 -0.59375q-0.65625 -0.609375 -0.65625 -1.5625q0 -0.953125 0.65625 -1.546875q0.671875 -0.59375 2.234375 -0.59375l4.34375 0l0 -17.953125l-3.84375 1.0q-0.921875 0.25 -1.390625 0.25q-0.8125 0 -1.421875 -0.640625q-0.59375 -0.65625 -0.59375 -1.6093731q0 -0.859375 0.4375 -1.34375q0.453125 -0.5 1.859375 -0.875l9.25 -2.390625z" fill-rule="nonzero"></path><path fill="#b7b7b7" d="m555.9624 48.70286l5.734375 0l-6.234375 11.59375q-0.578125 1.046875 -1.375 1.046875q-0.515625 0 -0.890625 -0.375q-0.359375 -0.359375 -0.359375 -0.875q0 -0.21875 0.0625 -0.46875l3.0625 -10.921875zm48.992676 -11.84375l0 2.671875q1.84375 -1.875 3.328125 -2.578125q1.5 -0.71875 3.375 -0.71875q2.015625 0 3.671875 0.859375q1.171875 0.625 2.125 2.09375q0.953125 1.453125 0.953125 2.984375l0 11.109375l1.5 0q0.625 0 0.890625 0.25q0.28125 0.234375 0.28125 0.640625q0 0.375 -0.28125 0.625q-0.265625 0.25 -0.890625 0.25l-4.734375 0q-0.640625 0 -0.921875 -0.25q-0.265625 -0.25 -0.265625 -0.625q0 -0.40625 0.265625 -0.640625q0.28125 -0.25 0.921875 -0.25l1.46875 0l0 -10.8125q0 -1.875 -1.359375 -3.15625q-1.359375 -1.296875 -3.65625 -1.296875q-1.734375 0 -3.015625 0.703125q-1.28125 0.703125 -3.65625 3.5l0 11.0625l2.0 0q0.625 0 0.890625 0.25q0.28125 0.234375 0.28125 0.640625q0 0.375 -0.28125 0.625q-0.265625 0.25 -0.890625 0.25l-5.765625 0q-0.625 0 -0.90625 -0.25q-0.265625 -0.25 -0.265625 -0.625q0 -0.40625 0.265625 -0.640625q0.28125 -0.25 0.90625 -0.25l2.0 0l0 -14.625l-1.484375 0q-0.640625 0 -0.921875 -0.25q-0.265625 -0.265625 -0.265625 -0.65625q0 -0.375 0.265625 -0.625q0.28125 -0.265625 0.921875 -0.265625l3.25 0zm23.707336 16.421875l13.546875 0l0 -0.6875q0 -0.640625 0.25 -0.90625q0.25 -0.265625 0.640625 -0.265625q0.390625 0 0.640625 0.265625q0.25 0.265625 0.25 0.90625l0 2.453125l-17.046875 0l0 -2.609375q5.375 -4.828125 10.453125 -9.828125q2.375 -2.328125 3.25 -3.40625q0.890625 -1.09375 1.203125 -1.921875q0.328125 -0.84375 0.328125 -1.671875q0 -2.265625 -1.828125 -4.015623q-1.8125 -1.75 -4.40625 -1.75q-2.3125 0 -4.09375 1.328125q-1.78125 1.3281231 -2.3125 3.281248q-0.125 0.5 -0.3125 0.640625q-0.25 0.21875 -0.578125 0.21875q-0.359375 0 -0.609375 -0.234375q-0.234375 -0.25 -0.234375 -0.59375q0 -1.0 1.09375 -2.718748q1.109375 -1.71875 3.046875 -2.703125q1.953125 -1.0 3.984375 -1.0q3.296875 0 5.671875 2.296875q2.375 2.281248 2.375 5.187498q0 1.21875 -0.40625 2.234375q-0.390625 1.015625 -1.359375 2.21875q-0.953125 1.203125 -3.421875 3.640625q-6.21875 6.140625 -10.125 9.515625l0 0.125zm33.707275 -8.671875q0 2.421875 -0.640625 5.125q-0.625 2.6875 -2.40625 6.25q-1.78125 3.5625 -2.609375 4.265625q-0.25 0.25 -0.546875 0.25q-0.375 0 -0.640625 -0.265625q-0.265625 -0.25 -0.265625 -0.609375q0 -0.203125 0.15625 -0.46875q2.3125 -4.21875 3.296875 -7.65625q0.984375 -3.4375 0.984375 -6.890625q0 -3.46875 -0.984375 -6.90625q-0.984375 -3.4375 -3.296875 -7.687498q-0.15625 -0.25 -0.15625 -0.453125q0 -0.359375 0.265625 -0.609375q0.265625 -0.25 0.640625 -0.25q0.296875 0 0.546875 0.21875q0.78125 0.71875 2.546875 4.187498q1.765625 3.453125 2.4375 6.125q0.671875 2.671875 0.671875 5.375zm24.06665 -0.015625q1.046875 0.796875 1.421875 1.515625q0.484375 0.9375 0.484375 2.234375l0 7.546875q0 1.1875 0.6875 1.953125q0.703125 0.765625 1.71875 0.875q0.65625 0.0625 0.859375 0.25q0.28125 0.25 0.28125 0.640625q0 0.390625 -0.28125 0.625q-0.265625 0.25 -0.796875 0.25q-1.65625 0 -2.765625 -1.046875q-1.484375 -1.453125 -1.484375 -3.53125l0 -7.5625q0 -1.15625 -0.703125 -1.9375q-0.6875 -0.78125 -1.765625 -0.875q-0.578125 -0.0625 -0.8125 -0.28125q-0.234375 -0.234375 -0.234375 -0.65625q0 -0.40625 0.234375 -0.625q0.234375 -0.234375 0.8125 -0.296875q1.09375 -0.09375 1.78125 -0.875q0.6875 -0.78125 0.6875 -1.9375l0 -7.5625q0 -1.9687481 1.25 -3.281248q1.265625 -1.3125 3.03125 -1.3125q0.5 0 0.765625 0.25q0.28125 0.25 0.28125 0.625q0 0.375 -0.28125 0.625q-0.1875 0.21875 -0.859375 0.28125q-1.046875 0.109375 -1.734375 0.890625q-0.671875 0.7656231 -0.671875 1.9218731l0 7.5625q0 1.3125 -0.421875 2.125q-0.421875 0.8125 -1.484375 1.609375z" fill-rule="nonzero"></path><path fill="#b7b7b7" d="m71.453125 106.046616l-2.984375 0l-7.25 -16.390625l-1.796875 0q-0.640625 0 -0.921875 -0.25q-0.265625 -0.265625 -0.265625 -0.65625q0 -0.375 0.265625 -0.625q0.28125 -0.265625 0.921875 -0.265625l6.609375 0q0.625 0 0.890625 0.265625q0.28125 0.25 0.28125 0.640625q0 0.375 -0.28125 0.640625q-0.265625 0.25 -0.890625 0.25l-2.921875 0l6.46875 14.625l0.78125 0l6.328125 -14.625l-2.9375 0q-0.625 0 -0.90625 -0.25q-0.265625 -0.265625 -0.265625 -0.65625q0 -0.375 0.265625 -0.625q0.28125 -0.265625 0.90625 -0.265625l6.640625 0q0.65625 0 0.90625 0.265625q0.265625 0.25 0.265625 0.640625q0 0.375 -0.265625 0.640625q-0.25 0.25 -0.90625 0.25l-1.78125 0l-7.15625 16.390625zm29.11354 0l0 -2.546875q-3.84375 3.234375 -8.203125 3.234375q-3.171875 0 -4.953125 -1.59375q-1.78125 -1.609375 -1.78125 -3.9375q0 -2.5625 2.34375 -4.46875q2.359375 -1.921875 6.859375 -1.921875q1.21875 0 2.640625 0.15625q1.4375 0.15625 3.09375 0.5l0 -2.859375q0 -1.453125 -1.34375 -2.515625q-1.34375 -1.078125 -4.03125 -1.078125q-2.046875 0 -5.765625 1.203125q-0.671875 0.203125 -0.859375 0.203125q-0.34375 0 -0.59375 -0.25q-0.234375 -0.25 -0.234375 -0.625q0 -0.359375 0.21875 -0.5625q0.28125 -0.328125 2.375 -0.875q3.265625 -0.875 4.953125 -0.875q3.328125 0 5.1875 1.65625q1.875 1.640625 1.875 3.71875l0 11.671875l2.359375 0q0.65625 0 0.921875 0.25q0.28125 0.234375 0.28125 0.640625q0 0.375 -0.28125 0.625q-0.265625 0.25 -0.921875 0.25l-4.140625 0zm0 -8.78125q-1.234375 -0.359375 -2.625 -0.515625q-1.375 -0.171875 -2.90625 -0.171875q-3.84375 0 -6.015625 1.65625q-1.640625 1.234375 -1.640625 2.96875q0 1.59375 1.25 2.6875q1.25 1.078125 3.640625 1.078125q2.296875 0 4.25 -0.90625q1.96875 -0.90625 4.046875 -2.90625l0 -3.890625zm18.42604 -9.40625l0 4.453125q3.4375 -3.109375 5.140625 -4.0q1.71875 -0.890625 3.171875 -0.890625q1.578125 0 2.921875 1.0625q1.359375 1.0625 1.359375 1.609375q0 0.390625 -0.265625 0.65625q-0.265625 0.265625 -0.65625 0.265625q-0.21875 0 -0.359375 -0.078125q-0.140625 -0.078125 -0.546875 -0.46875q-0.734375 -0.734375 -1.28125 -1.0q-0.546875 -0.28125 -1.0625 -0.28125q-1.15625 0 -2.796875 0.921875q-1.625 0.921875 -5.625 4.515625l0 9.65625l7.8125 0q0.640625 0 0.90625 0.25q0.28125 0.234375 0.28125 0.640625q0 0.375 -0.28125 0.625q-0.265625 0.25 -0.90625 0.25l-13.84375 0q-0.625 0 -0.90625 -0.234375q-0.265625 -0.25 -0.265625 -0.625q0 -0.359375 0.25 -0.59375q0.265625 -0.25 0.921875 -0.25l4.265625 0l0 -14.6875l-3.25 0q-0.640625 0 -0.921875 -0.25q-0.265625 -0.265625 -0.265625 -0.65625q0 -0.375 0.265625 -0.625q0.265625 -0.265625 0.921875 -0.265625l5.015625 0zm59.13333 1.15625q0 -0.609375 0.25 -0.875q0.25 -0.28125 0.625 -0.28125q0.40625 0 0.65625 0.28125q0.25 0.265625 0.25 0.921875l0 3.015625q0 0.640625 -0.25 0.921875q-0.25 0.265625 -0.65625 0.265625q-0.359375 0 -0.609375 -0.234375q-0.234375 -0.234375 -0.265625 -0.765625q-0.125 -1.25 -1.3125 -2.078125q-1.71875 -1.171875 -4.546875 -1.171875q-2.96875 0 -4.609375 1.203125q-1.234375 0.90625 -1.234375 2.015625q0 1.25 1.46875 2.09375q1.015625 0.59375 3.828125 0.90625q3.671875 0.390625 5.09375 0.90625q2.046875 0.734375 3.03125 2.03125q1.0 1.296875 1.0 2.8125q0 2.25 -2.15625 4.0q-2.15625 1.75 -6.34375 1.75q-4.171875 0 -6.84375 -2.109375q0 0.703125 -0.09375 0.921875q-0.078125 0.203125 -0.296875 0.359375q-0.21875 0.140625 -0.484375 0.140625q-0.390625 0 -0.640625 -0.265625q-0.25 -0.28125 -0.25 -0.90625l0 -3.640625q0 -0.625 0.234375 -0.890625q0.25 -0.28125 0.65625 -0.28125q0.375 0 0.625 0.265625q0.265625 0.265625 0.265625 0.703125q0 0.96875 0.484375 1.609375q0.734375 1.015625 2.34375 1.671875q1.609375 0.65625 3.9375 0.65625q3.4375 0 5.109375 -1.265625q1.6875 -1.28125 1.6875 -2.71875q0 -1.640625 -1.6875 -2.625q-1.734375 -0.984375 -5.015625 -1.3125q-3.28125 -0.34375 -4.71875 -0.890625q-1.421875 -0.546875 -2.21875 -1.640625q-0.796875 -1.09375 -0.796875 -2.34375q0 -2.265625 2.21875 -3.59375q2.234375 -1.34375 5.3125 -1.34375q3.65625 0 5.953125 1.78125zm25.80104 17.03125l0 -2.578125q-3.609375 3.265625 -7.8125 3.265625q-2.578125 0 -3.921875 -1.40625q-1.75 -1.84375 -1.75 -4.296875l0 -11.375l-2.359375 0q-0.640625 0 -0.921875 -0.25q-0.265625 -0.265625 -0.265625 -0.65625q0 -0.375 0.265625 -0.625q0.28125 -0.265625 0.921875 -0.265625l4.125 0l0 13.171875q0 1.71875 1.09375 2.828125q1.09375 1.109375 2.734375 1.109375q4.296875 0 7.890625 -3.9375l0 -11.375l-3.25 0q-0.640625 0 -0.90625 -0.25q-0.265625 -0.265625 -0.265625 -0.65625q0 -0.375 0.265625 -0.625q0.265625 -0.265625 0.90625 -0.265625l5.015625 0l0 16.421875l1.484375 0q0.640625 0 0.90625 0.25q0.28125 0.234375 0.28125 0.640625q0 0.375 -0.28125 0.625q-0.265625 0.25 -0.90625 0.25l-3.25 0zm11.535416 -18.1875l0 1.796875q2.25 -2.421875 4.515625 -2.421875q1.359375 0 2.390625 0.734375q1.03125 0.71875 1.71875 2.1875q1.171875 -1.46875 2.375 -2.1875q1.21875 -0.734375 2.4375 -0.734375q1.90625 0 3.046875 1.234375q1.484375 1.59375 1.484375 3.484375l0 12.328125l1.484375 0q0.640625 0 0.90625 0.25q0.28125 0.234375 0.28125 0.640625q0 0.375 -0.28125 0.625q-0.265625 0.25 -0.90625 0.25l-3.25 0l0 -13.921875q0 -1.34375 -0.828125 -2.21875q-0.8125 -0.890625 -1.875 -0.890625q-0.96875 0 -2.046875 0.734375q-1.0625 0.71875 -2.421875 2.84375l0 11.6875l1.46875 0q0.625 0 0.890625 0.25q0.28125 0.234375 0.28125 0.640625q0 0.375 -0.28125 0.625q-0.265625 0.25 -0.890625 0.25l-3.265625 0l0 -13.796875q0 -1.40625 -0.828125 -2.3125q-0.828125 -0.921875 -1.859375 -0.921875q-0.9375 0 -1.859375 0.609375q-1.28125 0.859375 -2.6875 2.96875l0 11.6875l1.484375 0q0.625 0 0.890625 0.25q0.28125 0.234375 0.28125 0.640625q0 0.375 -0.28125 0.625q-0.265625 0.25 -0.890625 0.25l-4.75 0q-0.625 0 -0.90625 -0.25q-0.265625 -0.25 -0.265625 -0.625q0 -0.40625 0.265625 -0.640625q0.28125 -0.25 0.90625 -0.25l1.5 0l0 -14.625l-1.5 0q-0.625 0 -0.90625 -0.25q-0.265625 -0.265625 -0.265625 -0.65625q0 -0.375 0.265625 -0.625q0.28125 -0.265625 0.90625 -0.265625l3.265625 0zm68.85208 3.59375l-19.234375 0q-0.625 0 -0.90625 -0.25q-0.265625 -0.25 -0.265625 -0.65625q0 -0.375 0.265625 -0.625q0.28125 -0.25 0.90625 -0.25l19.234375 0q0.625 0 0.890625 0.25q0.28125 0.25 0.28125 0.65625q0 0.375 -0.28125 0.625q-0.265625 0.25 -0.890625 0.25zm0 6.328125l-19.234375 0q-0.625 0 -0.90625 -0.234375q-0.265625 -0.25 -0.265625 -0.65625q0 -0.390625 0.265625 -0.625q0.28125 -0.25 0.90625 -0.25l19.234375 0q0.625 0 0.890625 0.25q0.28125 0.234375 0.28125 0.625q0 0.40625 -0.28125 0.65625q-0.265625 0.234375 -0.890625 0.234375z" fill-rule="nonzero"></path><path fill="#6aa84f" d="m321.52603 86.984116l0 1.453125q1.171875 -1.015625 2.59375 -1.515625q1.421875 -0.5 3.078125 -0.5q3.8125 0 6.046875 2.359375q1.765625 1.890625 1.765625 4.96875l0 8.0q1.359375 0 2.0 0.59375q0.65625 0.59375 0.65625 1.5625q0 0.9375 -0.65625 1.546875q-0.65625 0.59375 -2.21875 0.59375l-3.875 0q-1.5625 0 -2.234375 -0.59375q-0.65625 -0.609375 -0.65625 -1.5625q0 -0.953125 0.65625 -1.546875q0.65625 -0.59375 2.015625 -0.59375l0 -8.140625q0 -1.40625 -0.75 -2.046875q-0.984375 -0.84375 -2.96875 -0.84375q-1.484375 0 -2.609375 0.578125q-1.125 0.578125 -2.84375 2.453125l0 8.0q1.65625 0 2.140625 0.3125q1.03125 0.625 1.03125 1.84375q0 0.9375 -0.671875 1.546875q-0.65625 0.59375 -2.203125 0.59375l-4.890625 0q-1.5625 0 -2.21875 -0.59375q-0.65625 -0.609375 -0.65625 -1.5625q0 -1.1875 1.0 -1.828125q0.5 -0.3125 2.15625 -0.3125l0 -10.46875q-1.359375 0 -2.015625 -0.609375q-0.640625 -0.609375 -0.640625 -1.546875q0 -0.953125 0.65625 -1.546875q0.65625 -0.59375 2.21875 -0.59375l4.09375 0zm32.144806 -8.796875l0 23.5625l4.34375 0q1.5625 0 2.21875 0.59375q0.65625 0.59375 0.65625 1.5625q0 0.9375 -0.65625 1.546875q-0.65625 0.59375 -2.21875 0.59375l-12.984375 0q-1.5625 0 -2.234375 -0.59375q-0.65625 -0.609375 -0.65625 -1.5625q0 -0.953125 0.65625 -1.546875q0.671875 -0.59375 2.234375 -0.59375l4.34375 0l0 -17.953125l-3.84375 1.0q-0.921875 0.25 -1.390625 0.25q-0.8125 0 -1.421875 -0.640625q-0.59375 -0.65625 -0.59375 -1.609375q0 -0.859375 0.4375 -1.34375q0.453125 -0.5 1.859375 -0.875l9.25 -2.390625z" fill-rule="nonzero"></path><path fill="#b7b7b7" d="m403.56976 94.640366l0 8.828125q0 0.625 -0.25 0.90625q-0.25 0.265625 -0.65625 0.265625q-0.375 0 -0.625 -0.265625q-0.25 -0.28125 -0.25 -0.90625l0 -8.828125l-7.8125 0q-0.640625 0 -0.90625 -0.234375q-0.265625 -0.25 -0.265625 -0.640625q0 -0.40625 0.265625 -0.640625q0.265625 -0.25 0.90625 -0.25l7.8125 0l0 -8.765625q0 -0.640625 0.25 -0.90625q0.25 -0.265625 0.640625 -0.265625q0.390625 0 0.640625 0.265625q0.25 0.265625 0.25 0.90625l0 8.765625l7.8125 0q0.625 0 0.890625 0.25q0.28125 0.234375 0.28125 0.640625q0 0.390625 -0.28125 0.640625q-0.265625 0.234375 -0.890625 0.234375l-7.8125 0zm44.60211 -6.78125l0 2.671875q1.84375 -1.875 3.328125 -2.578125q1.5 -0.71875 3.375 -0.71875q2.015625 0 3.671875 0.859375q1.171875 0.625 2.125 2.09375q0.953125 1.453125 0.953125 2.984375l0 11.109375l1.5 0q0.625 0 0.890625 0.25q0.28125 0.234375 0.28125 0.640625q0 0.375 -0.28125 0.625q-0.265625 0.25 -0.890625 0.25l-4.734375 0q-0.640625 0 -0.921875 -0.25q-0.265625 -0.25 -0.265625 -0.625q0 -0.40625 0.265625 -0.640625q0.28125 -0.25 0.921875 -0.25l1.46875 0l0 -10.8125q0 -1.875 -1.359375 -3.15625q-1.359375 -1.296875 -3.65625 -1.296875q-1.734375 0 -3.015625 0.703125q-1.28125 0.703125 -3.65625 3.5l0 11.0625l2.0 0q0.625 0 0.890625 0.25q0.28125 0.234375 0.28125 0.640625q0 0.375 -0.28125 0.625q-0.265625 0.25 -0.890625 0.25l-5.765625 0q-0.625 0 -0.90625 -0.25q-0.265625 -0.25 -0.265625 -0.625q0 -0.40625 0.265625 -0.640625q0.28125 -0.25 0.90625 -0.25l2.0 0l0 -14.625l-1.484375 0q-0.640625 0 -0.921875 -0.25q-0.265625 -0.265625 -0.265625 -0.65625q0 -0.375 0.265625 -0.625q0.28125 -0.265625 0.921875 -0.265625l3.25 0zm23.707275 16.421875l13.546875 0l0 -0.6875q0 -0.640625 0.25 -0.90625q0.25 -0.265625 0.640625 -0.265625q0.390625 0 0.640625 0.265625q0.25 0.265625 0.25 0.90625l0 2.453125l-17.046875 0l0 -2.609375q5.375 -4.828125 10.453125 -9.828125q2.375 -2.328125 3.25 -3.40625q0.890625 -1.09375 1.203125 -1.921875q0.328125 -0.84375 0.328125 -1.671875q0 -2.265625 -1.828125 -4.015625q-1.8125 -1.75 -4.40625 -1.75q-2.3125 0 -4.09375 1.328125q-1.78125 1.328125 -2.3125 3.28125q-0.125 0.5 -0.3125 0.640625q-0.25 0.21875 -0.578125 0.21875q-0.359375 0 -0.609375 -0.234375q-0.234375 -0.25 -0.234375 -0.59375q0 -1.0 1.09375 -2.71875q1.109375 -1.71875 3.046875 -2.703125q1.953125 -1.0 3.984375 -1.0q3.296875 0 5.671875 2.296875q2.375 2.28125 2.375 5.1875q0 1.21875 -0.40625 2.234375q-0.390625 1.015625 -1.359375 2.21875q-0.953125 1.203125 -3.421875 3.640625q-6.21875 6.140625 -10.125 9.515625l0 0.125zm32.801025 -16.421875l0.78125 0q1.171875 0 2.0 0.84375q0.828125 0.84375 0.828125 2.0q0 1.234375 -0.84375 2.0625q-0.828125 0.8125 -1.984375 0.8125l-0.78125 0q-1.171875 0 -2.015625 -0.84375q-0.828125 -0.84375 -0.828125 -2.0q0 -1.234375 0.84375 -2.046875q0.859375 -0.828125 2.0 -0.828125zm-3.0625 11.84375l5.53125 0l-5.9375 9.75q-0.4375 0.703125 -0.703125 0.890625q-0.265625 0.203125 -0.609375 0.203125q-0.515625 0 -0.859375 -0.328125q-0.328125 -0.3125 -0.328125 -0.75q0 -0.25 0.125 -0.65625l2.78125 -9.109375z" fill-rule="nonzero"></path><path fill="#b7b7b7" d="m77.265625 140.65598l0 -0.59375q0 -0.65625 0.25 -0.921875q0.25 -0.28125 0.625 -0.28125q0.40625 0 0.65625 0.28125q0.25 0.265625 0.25 0.921875l0 3.984375q-0.015625 0.65625 -0.265625 0.9375q-0.234375 0.265625 -0.640625 0.265625q-0.359375 0 -0.609375 -0.234375q-0.234375 -0.25 -0.265625 -0.8125q-0.125 -1.5 -1.96875 -2.84375q-1.828125 -1.34375 -4.9375 -1.34375q-3.9375 0 -5.96875 2.46875q-2.03125 2.453125 -2.03125 5.625q0 3.421875 2.234375 5.640625q2.25 2.21875 5.828125 2.21875q2.046875 0 4.171875 -0.75q2.140625 -0.75 3.859375 -2.4375q0.453125 -0.421875 0.78125 -0.421875q0.359375 0 0.59375 0.25q0.25 0.234375 0.25 0.59375q0 0.90625 -2.125 2.296875q-3.421875 2.234375 -7.625 2.234375q-4.25 0 -7.0 -2.71875q-2.734375 -2.71875 -2.734375 -6.890625q0 -4.265625 2.796875 -7.078125q2.8125 -2.8125 7.0625 -2.8125q4.0625 0 6.8125 2.421875zm28.097916 7.34375q0 4.03125 -2.890625 6.890625q-2.890625 2.84375 -6.96875 2.84375q-4.109375 0 -6.984375 -2.859375q-2.875 -2.875 -2.875 -6.875q0 -4.03125 2.875 -6.890625q2.875 -2.875 6.984375 -2.875q4.078125 0 6.96875 2.859375q2.890625 2.84375 2.890625 6.90625zm-1.796875 0q0 -3.3125 -2.359375 -5.640625q-2.359375 -2.34375 -5.71875 -2.34375q-3.359375 0 -5.71875 2.34375q-2.359375 2.34375 -2.359375 5.640625q0 3.265625 2.359375 5.625q2.359375 2.34375 5.71875 2.34375q3.359375 0 5.71875 -2.328125q2.359375 -2.34375 2.359375 -5.640625zm11.832291 -9.140625l0 2.671875q1.84375 -1.875 3.328125 -2.578125q1.5 -0.71875 3.375 -0.71875q2.015625 0 3.671875 0.859375q1.171875 0.625 2.125 2.09375q0.953125 1.453125 0.953125 2.984375l0 11.109375l1.5 0q0.625 0 0.890625 0.25q0.28125 0.234375 0.28125 0.640625q0 0.375 -0.28125 0.625q-0.265625 0.25 -0.890625 0.25l-4.734375 0q-0.640625 0 -0.921875 -0.25q-0.265625 -0.25 -0.265625 -0.625q0 -0.40625 0.265625 -0.640625q0.28125 -0.25 0.921875 -0.25l1.46875 0l0 -10.8125q0 -1.875 -1.359375 -3.15625q-1.359375 -1.296875 -3.65625 -1.296875q-1.734375 0 -3.015625 0.703125q-1.28125 0.703125 -3.65625 3.5l0 11.0625l2.0 0q0.625 0 0.890625 0.25q0.28125 0.234375 0.28125 0.640625q0 0.375 -0.28125 0.625q-0.265625 0.25 -0.890625 0.25l-5.765625 0q-0.625 0 -0.90625 -0.25q-0.265625 -0.25 -0.265625 -0.625q0 -0.40625 0.265625 -0.640625q0.28125 -0.25 0.90625 -0.25l2.0 0l0 -14.625l-1.484375 0q-0.640625 0 -0.921875 -0.25q-0.265625 -0.265625 -0.265625 -0.65625q0 -0.375 0.265625 -0.625q0.28125 -0.265625 0.921875 -0.265625l3.25 0zm37.129166 1.15625q0 -0.609375 0.25 -0.875q0.25 -0.28125 0.625 -0.28125q0.40625 0 0.65625 0.28125q0.25 0.265625 0.25 0.921875l0 3.015625q0 0.640625 -0.25 0.921875q-0.25 0.265625 -0.65625 0.265625q-0.359375 0 -0.609375 -0.234375q-0.234375 -0.234375 -0.265625 -0.765625q-0.125 -1.25 -1.3125 -2.078125q-1.71875 -1.171875 -4.546875 -1.171875q-2.96875 0 -4.609375 1.203125q-1.234375 0.90625 -1.234375 2.015625q0 1.25 1.46875 2.09375q1.015625 0.59375 3.828125 0.90625q3.671875 0.390625 5.09375 0.90625q2.046875 0.734375 3.03125 2.03125q1.0 1.296875 1.0 2.8125q0 2.25 -2.15625 4.0q-2.15625 1.75 -6.34375 1.75q-4.171875 0 -6.84375 -2.109375q0 0.703125 -0.09375 0.921875q-0.078125 0.203125 -0.296875 0.359375q-0.21875 0.140625 -0.484375 0.140625q-0.390625 0 -0.640625 -0.265625q-0.25 -0.28125 -0.25 -0.90625l0 -3.640625q0 -0.625 0.234375 -0.890625q0.25 -0.28125 0.65625 -0.28125q0.375 0 0.625 0.265625q0.265625 0.265625 0.265625 0.703125q0 0.96875 0.484375 1.609375q0.734375 1.015625 2.34375 1.671875q1.609375 0.65625 3.9375 0.65625q3.4375 0 5.109375 -1.265625q1.6875 -1.28125 1.6875 -2.71875q0 -1.640625 -1.6875 -2.625q-1.734375 -0.984375 -5.015625 -1.3125q-3.28125 -0.34375 -4.71875 -0.890625q-1.421875 -0.546875 -2.21875 -1.640625q-0.796875 -1.09375 -0.796875 -2.34375q0 -2.265625 2.21875 -3.59375q2.234375 -1.34375 5.3125 -1.34375q3.65625 0 5.953125 1.78125zm29.629166 7.984375q0 4.03125 -2.890625 6.890625q-2.890625 2.84375 -6.96875 2.84375q-4.109375 0 -6.984375 -2.859375q-2.875 -2.875 -2.875 -6.875q0 -4.03125 2.875 -6.890625q2.875 -2.875 6.984375 -2.875q4.078125 0 6.96875 2.859375q2.890625 2.84375 2.890625 6.90625zm-1.796875 0q0 -3.3125 -2.359375 -5.640625q-2.359375 -2.34375 -5.71875 -2.34375q-3.359375 0 -5.71875 2.34375q-2.359375 2.34375 -2.359375 5.640625q0 3.265625 2.359375 5.625q2.359375 2.34375 5.71875 2.34375q3.359375 0 5.71875 -2.328125q2.359375 -2.34375 2.359375 -5.640625zm18.42604 -17.296875l0 24.578125l6.921875 0q0.65625 0 0.921875 0.25q0.28125 0.234375 0.28125 0.640625q0 0.375 -0.28125 0.625q-0.265625 0.25 -0.921875 0.25l-15.609375 0q-0.640625 0 -0.921875 -0.25q-0.265625 -0.25 -0.265625 -0.625q0 -0.40625 0.265625 -0.640625q0.28125 -0.25 0.921875 -0.25l6.921875 0l0 -22.796875l-5.078125 0q-0.640625 0 -0.921875 -0.25q-0.28125 -0.25 -0.28125 -0.65625q0 -0.375 0.265625 -0.625q0.28125 -0.25 0.9375 -0.25l6.84375 0zm34.23854 17.671875l-17.96875 0q0.46875 3.421875 2.875 5.515625q2.40625 2.078125 5.953125 2.078125q1.96875 0 4.125 -0.640625q2.171875 -0.65625 3.53125 -1.71875q0.40625 -0.328125 0.6875 -0.328125q0.34375 0 0.59375 0.265625q0.25 0.265625 0.25 0.625q0 0.359375 -0.328125 0.6875q-1.015625 1.046875 -3.59375 1.96875q-2.5625 0.90625 -5.265625 0.90625q-4.546875 0 -7.578125 -2.96875q-3.03125 -2.96875 -3.03125 -7.1875q0 -3.84375 2.84375 -6.59375q2.84375 -2.75 7.046875 -2.75q4.328125 0 7.109375 2.828125q2.796875 2.8125 2.75 7.3125zm-1.78125 -1.78125q-0.515625 -2.921875 -2.765625 -4.75q-2.234375 -1.828125 -5.3125 -1.828125q-3.09375 0 -5.3125 1.8125q-2.21875 1.796875 -2.765625 4.765625l16.15625 0zm17.472916 5.390625l0.765625 0q1.171875 0 2.0 0.828125q0.84375 0.828125 0.84375 2.015625q0 1.203125 -0.84375 2.03125q-0.84375 0.8125 -2.0 0.8125l-0.765625 0q-1.171875 0 -2.015625 -0.828125q-0.84375 -0.828125 -0.84375 -2.0q0 -1.21875 0.84375 -2.03125q0.859375 -0.828125 2.015625 -0.828125zm26.86354 -21.28125l0 24.578125l6.921875 0q0.65625 0 0.921875 0.25q0.28125 0.234375 0.28125 0.640625q0 0.375 -0.28125 0.625q-0.265625 0.25 -0.921875 0.25l-15.609375 0q-0.640625 0 -0.921875 -0.25q-0.265625 -0.25 -0.265625 -0.625q0 -0.40625 0.265625 -0.640625q0.28125 -0.25 0.921875 -0.25l6.921875 0l0 -22.796875l-5.078125 0q-0.640625 0 -0.921875 -0.25q-0.28125 -0.25 -0.28125 -0.65625q0 -0.375 0.265625 -0.625q0.28125 -0.25 0.9375 -0.25l6.84375 0zm34.56665 17.296875q0 4.03125 -2.890625 6.890625q-2.890625 2.84375 -6.96875 2.84375q-4.109375 0 -6.984375 -2.859375q-2.875 -2.875 -2.875 -6.875q0 -4.03125 2.875 -6.890625q2.875 -2.875 6.984375 -2.875q4.078125 0 6.96875 2.859375q2.890625 2.84375 2.890625 6.90625zm-1.796875 0q0 -3.3125 -2.359375 -5.640625q-2.359375 -2.34375 -5.71875 -2.34375q-3.359375 0 -5.71875 2.34375q-2.359375 2.34375 -2.359375 5.640625q0 3.265625 2.359375 5.625q2.359375 2.34375 5.71875 2.34375q3.359375 0 5.71875 -2.328125q2.359375 -2.34375 2.359375 -5.640625zm23.457306 -5.90625l0 -3.234375l4.140625 0q0.625 0 0.890625 0.265625q0.28125 0.25 0.28125 0.640625q0 0.375 -0.28125 0.640625q-0.265625 0.25 -0.890625 0.25l-2.375 0l0 17.609375q0 1.765625 -0.75 3.15625q-0.5 0.921875 -1.6875 1.90625q-1.171875 0.984375 -2.140625 1.40625q-0.96875 0.421875 -2.578125 0.421875l-5.0 0q-0.625 0 -0.90625 -0.25q-0.265625 -0.234375 -0.265625 -0.640625q0 -0.390625 0.265625 -0.65625q0.28125 -0.25 0.90625 -0.25l5.0625 0.03125q1.546875 0 2.796875 -0.796875q1.25 -0.796875 2.078125 -2.328125q0.453125 -0.890625 0.453125 -2.25l0 -5.296875q-2.828125 3.890625 -7.296875 3.890625q-3.640625 0 -6.28125 -2.703125q-2.625 -2.703125 -2.625 -6.5q0 -3.796875 2.625 -6.484375q2.640625 -2.6875 6.28125 -2.6875q4.46875 0 7.296875 3.859375zm0 5.3125q0 -3.109375 -2.125 -5.25q-2.125 -2.140625 -5.09375 -2.140625q-2.953125 0 -5.078125 2.15625q-2.125 2.15625 -2.125 5.234375q0 3.109375 2.125 5.265625q2.125 2.15625 5.078125 2.15625q2.96875 0 5.09375 -2.15625q2.125 -2.15625 2.125 -5.265625zm19.47293 -0.8125q0 -2.421875 0.625 -5.125q0.640625 -2.703125 2.421875 -6.25q1.78125 -3.5625 2.59375 -4.296875q0.265625 -0.21875 0.546875 -0.21875q0.390625 0 0.640625 0.25q0.265625 0.25 0.265625 0.609375q0 0.203125 -0.140625 0.453125q-2.3125 4.25 -3.296875 7.6875q-0.984375 3.4375 -0.984375 6.890625q0 3.46875 0.984375 6.90625q0.984375 3.4375 3.296875 7.65625q0.140625 0.265625 0.140625 0.46875q0 0.359375 -0.265625 0.609375q-0.25 0.265625 -0.640625 0.265625q-0.28125 0 -0.546875 -0.21875q-0.765625 -0.71875 -2.53125 -4.1875q-1.765625 -3.46875 -2.4375 -6.125q-0.671875 -2.671875 -0.671875 -5.375zm31.62915 -6.578125q0 -0.609375 0.25 -0.875q0.25 -0.28125 0.625 -0.28125q0.40625 0 0.65625 0.28125q0.25 0.265625 0.25 0.921875l0 3.015625q0 0.640625 -0.25 0.921875q-0.25 0.265625 -0.65625 0.265625q-0.359375 0 -0.609375 -0.234375q-0.234375 -0.234375 -0.265625 -0.765625q-0.125 -1.25 -1.3125 -2.078125q-1.71875 -1.171875 -4.546875 -1.171875q-2.96875 0 -4.609375 1.203125q-1.234375 0.90625 -1.234375 2.015625q0 1.25 1.46875 2.09375q1.015625 0.59375 3.828125 0.90625q3.671875 0.390625 5.09375 0.90625q2.046875 0.734375 3.03125 2.03125q1.0 1.296875 1.0 2.8125q0 2.25 -2.15625 4.0q-2.15625 1.75 -6.34375 1.75q-4.171875 0 -6.84375 -2.109375q0 0.703125 -0.09375 0.921875q-0.078125 0.203125 -0.296875 0.359375q-0.21875 0.140625 -0.484375 0.140625q-0.390625 0 -0.640625 -0.265625q-0.25 -0.28125 -0.25 -0.90625l0 -3.640625q0 -0.625 0.234375 -0.890625q0.25 -0.28125 0.65625 -0.28125q0.375 0 0.625 0.265625q0.265625 0.265625 0.265625 0.703125q0 0.96875 0.484375 1.609375q0.734375 1.015625 2.34375 1.671875q1.609375 0.65625 3.9375 0.65625q3.4375 0 5.109375 -1.265625q1.6875 -1.28125 1.6875 -2.71875q0 -1.640625 -1.6875 -2.625q-1.734375 -0.984375 -5.015625 -1.3125q-3.28125 -0.34375 -4.71875 -0.890625q-1.421875 -0.546875 -2.21875 -1.640625q-0.796875 -1.09375 -0.796875 -2.34375q0 -2.265625 2.21875 -3.59375q2.234375 -1.34375 5.3125 -1.34375q3.65625 0 5.953125 1.78125zm25.801025 17.03125l0 -2.578125q-3.609375 3.265625 -7.8125 3.265625q-2.578125 0 -3.921875 -1.40625q-1.75 -1.84375 -1.75 -4.296875l0 -11.375l-2.359375 0q-0.640625 0 -0.921875 -0.25q-0.265625 -0.265625 -0.265625 -0.65625q0 -0.375 0.265625 -0.625q0.28125 -0.265625 0.921875 -0.265625l4.125 0l0 13.171875q0 1.71875 1.09375 2.828125q1.09375 1.109375 2.734375 1.109375q4.296875 0 7.890625 -3.9375l0 -11.375l-3.25 0q-0.640625 0 -0.90625 -0.25q-0.265625 -0.265625 -0.265625 -0.65625q0 -0.375 0.265625 -0.625q0.265625 -0.265625 0.90625 -0.265625l5.015625 0l0 16.421875l1.484375 0q0.640625 0 0.90625 0.25q0.28125 0.234375 0.28125 0.640625q0 0.375 -0.28125 0.625q-0.265625 0.25 -0.90625 0.25l-3.25 0zm11.5354 -18.1875l0 1.796875q2.25 -2.421875 4.515625 -2.421875q1.359375 0 2.390625 0.734375q1.03125 0.71875 1.71875 2.1875q1.171875 -1.46875 2.375 -2.1875q1.21875 -0.734375 2.4375 -0.734375q1.90625 0 3.046875 1.234375q1.484375 1.59375 1.484375 3.484375l0 12.328125l1.484375 0q0.640625 0 0.90625 0.25q0.28125 0.234375 0.28125 0.640625q0 0.375 -0.28125 0.625q-0.265625 0.25 -0.90625 0.25l-3.25 0l0 -13.921875q0 -1.34375 -0.828125 -2.21875q-0.8125 -0.890625 -1.875 -0.890625q-0.96875 0 -2.046875 0.734375q-1.0625 0.71875 -2.421875 2.84375l0 11.6875l1.46875 0q0.625 0 0.890625 0.25q0.28125 0.234375 0.28125 0.640625q0 0.375 -0.28125 0.625q-0.265625 0.25 -0.890625 0.25l-3.265625 0l0 -13.796875q0 -1.40625 -0.828125 -2.3125q-0.828125 -0.921875 -1.859375 -0.921875q-0.9375 0 -1.859375 0.609375q-1.28125 0.859375 -2.6875 2.96875l0 11.6875l1.484375 0q0.625 0 0.890625 0.25q0.28125 0.234375 0.28125 0.640625q0 0.375 -0.28125 0.625q-0.265625 0.25 -0.890625 0.25l-4.75 0q-0.625 0 -0.90625 -0.25q-0.265625 -0.25 -0.265625 -0.625q0 -0.40625 0.265625 -0.640625q0.28125 -0.25 0.90625 -0.25l1.5 0l0 -14.625l-1.5 0q-0.625 0 -0.90625 -0.25q-0.265625 -0.265625 -0.265625 -0.65625q0 -0.375 0.265625 -0.625q0.28125 -0.265625 0.90625 -0.265625l3.265625 0zm34.144775 7.75q0 2.421875 -0.640625 5.125q-0.625 2.6875 -2.40625 6.25q-1.78125 3.5625 -2.609375 4.265625q-0.25 0.25 -0.546875 0.25q-0.375 0 -0.640625 -0.265625q-0.265625 -0.25 -0.265625 -0.609375q0 -0.203125 0.15625 -0.46875q2.3125 -4.21875 3.296875 -7.65625q0.984375 -3.4375 0.984375 -6.890625q0 -3.46875 -0.984375 -6.90625q-0.984375 -3.4375 -3.296875 -7.6875q-0.15625 -0.25 -0.15625 -0.453125q0 -0.359375 0.265625 -0.609375q0.265625 -0.25 0.640625 -0.25q0.296875 0 0.546875 0.21875q0.78125 0.71875 2.546875 4.1875q1.765625 3.453125 2.4375 6.125q0.671875 2.671875 0.671875 5.375zm24.69165 -7.75l0.78125 0q1.171875 0 2.0 0.84375q0.828125 0.84375 0.828125 2.0q0 1.234375 -0.84375 2.0625q-0.828125 0.8125 -1.984375 0.8125l-0.78125 0q-1.171875 0 -2.015625 -0.84375q-0.828125 -0.84375 -0.828125 -2.0q0 -1.234375 0.84375 -2.046875q0.859375 -0.828125 2.0 -0.828125zm-3.0625 11.84375l5.53125 0l-5.9375 9.75q-0.4375 0.703125 -0.703125 0.890625q-0.265625 0.203125 -0.609375 0.203125q-0.515625 0 -0.859375 -0.328125q-0.328125 -0.3125 -0.328125 -0.75q0 -0.25 0.125 -0.65625l2.78125 -9.109375z" fill-rule="nonzero"></path><path fill="#b7b7b7" d="m22.9375 197.59348q-1.0625 -0.796875 -1.421875 -1.515625q-0.484375 -0.921875 -0.484375 -2.21875l0 -7.5625q0 -1.171875 -0.703125 -1.953125q-0.6875 -0.78125 -1.71875 -0.859375q-0.671875 -0.0625 -0.859375 -0.25q-0.265625 -0.28125 -0.265625 -0.65625q0 -0.375 0.25 -0.625q0.265625 -0.25 0.796875 -0.25q1.6875 0 2.765625 1.0625q1.5 1.421875 1.5 3.53125l0 7.5625q0 1.15625 0.703125 1.9375q0.703125 0.78125 1.765625 0.875q0.578125 0.0625 0.8125 0.296875q0.25 0.21875 0.25 0.625q0 0.421875 -0.25 0.65625q-0.234375 0.21875 -0.8125 0.28125q-1.078125 0.09375 -1.78125 0.875q-0.6875 0.78125 -0.6875 1.9375l0 7.5625q0 1.96875 -1.265625 3.28125q-1.25 1.3125 -3.0 1.3125q-0.53125 0 -0.796875 -0.25q-0.25 -0.25 -0.25 -0.640625q0 -0.390625 0.25 -0.640625q0.203125 -0.1875 0.875 -0.25q1.0625 -0.109375 1.734375 -0.890625q0.6875 -0.78125 0.6875 -1.9375l0 -7.546875q0 -1.3125 0.421875 -2.125q0.421875 -0.828125 1.484375 -1.625z" fill-rule="nonzero"></path><path fill="#b7b7b7" d="m26.96875 310.0466l0 -2.546875q-3.84375 3.234375 -8.203125 3.234375q-3.171875 0 -4.953125 -1.59375q-1.78125 -1.609375 -1.78125 -3.9375q0 -2.5625 2.34375 -4.46875q2.359375 -1.921875 6.859375 -1.921875q1.21875 0 2.640625 0.15625q1.4375 0.15625 3.09375 0.5l0 -2.859375q0 -1.453125 -1.34375 -2.515625q-1.34375 -1.078125 -4.03125 -1.078125q-2.046875 0 -5.765625 1.203125q-0.671875 0.203125 -0.859375 0.203125q-0.34375 0 -0.59375 -0.25q-0.234375 -0.25 -0.234375 -0.625q0 -0.359375 0.21875 -0.5625q0.28125 -0.328125 2.375 -0.875q3.265625 -0.875 4.953125 -0.875q3.328125 0 5.1875 1.65625q1.875 1.640625 1.875 3.71875l0 11.671875l2.359375 0q0.65625 0 0.921875 0.25q0.28125 0.234375 0.28125 0.640625q0 0.375 -0.28125 0.625q-0.265625 0.25 -0.921875 0.25l-4.140625 0zm0 -8.78125q-1.234375 -0.359375 -2.625 -0.515625q-1.375 -0.171875 -2.90625 -0.171875q-3.84375 0 -6.015625 1.65625q-1.640625 1.234375 -1.640625 2.96875q0 1.59375 1.25 2.6875q1.25 1.078125 3.640625 1.078125q2.296875 0 4.25 -0.90625q1.96875 -0.90625 4.046875 -2.90625l0 -3.890625zm29.17604 -17.5625l0 24.578125l2.34375 0q0.65625 0 0.921875 0.25q0.28125 0.234375 0.28125 0.640625q0 0.375 -0.28125 0.625q-0.265625 0.25 -0.921875 0.25l-4.140625 0l0 -3.5q-3.0625 4.1875 -7.78125 4.1875q-2.390625 0 -4.59375 -1.265625q-2.1875 -1.265625 -3.46875 -3.609375q-1.265625 -2.359375 -1.265625 -4.859375q0 -2.515625 1.265625 -4.859375q1.28125 -2.34375 3.46875 -3.625q2.203125 -1.28125 4.609375 -1.28125q4.625 0 7.765625 4.203125l0 -9.953125l-2.34375 0q-0.65625 0 -0.9375 -0.25q-0.265625 -0.25 -0.265625 -0.65625q0 -0.375 0.265625 -0.625q0.28125 -0.25 0.9375 -0.25l4.140625 0zm-1.796875 17.296875q0 -3.359375 -2.265625 -5.671875q-2.265625 -2.3125 -5.390625 -2.3125q-3.15625 0 -5.421875 2.3125q-2.265625 2.3125 -2.265625 5.671875q0 3.328125 2.265625 5.65625q2.265625 2.3125 5.421875 2.3125q3.125 0 5.390625 -2.3125q2.265625 -2.328125 2.265625 -5.65625zm27.39479 -17.296875l0 24.578125l2.34375 0q0.65625 0 0.921875 0.25q0.28125 0.234375 0.28125 0.640625q0 0.375 -0.28125 0.625q-0.265625 0.25 -0.921875 0.25l-4.140625 0l0 -3.5q-3.0625 4.1875 -7.78125 4.1875q-2.390625 0 -4.59375 -1.265625q-2.1875 -1.265625 -3.46875 -3.609375q-1.265625 -2.359375 -1.265625 -4.859375q0 -2.515625 1.265625 -4.859375q1.28125 -2.34375 3.46875 -3.625q2.203125 -1.28125 4.609375 -1.28125q4.625 0 7.765625 4.203125l0 -9.953125l-2.34375 0q-0.65625 0 -0.9375 -0.25q-0.265625 -0.25 -0.265625 -0.65625q0 -0.375 0.265625 -0.625q0.28125 -0.25 0.9375 -0.25l4.140625 0zm-1.796875 17.296875q0 -3.359375 -2.265625 -5.671875q-2.265625 -2.3125 -5.390625 -2.3125q-3.15625 0 -5.421875 2.3125q-2.265625 2.3125 -2.265625 5.671875q0 3.328125 2.265625 5.65625q2.265625 2.3125 5.421875 2.3125q3.125 0 5.390625 -2.3125q2.265625 -2.328125 2.265625 -5.65625zm18.55104 -1.40625q0 -2.421875 0.625 -5.125q0.640625 -2.703125 2.421875 -6.25q1.78125 -3.5625 2.59375 -4.296875q0.265625 -0.21875 0.546875 -0.21875q0.390625 0 0.640625 0.25q0.265625 0.25 0.265625 0.609375q0 0.203125 -0.140625 0.453125q-2.3125 4.25 -3.296875 7.6875q-0.984375 3.4375 -0.984375 6.890625q0 3.46875 0.984375 6.90625q0.984375 3.4375 3.296875 7.65625q0.140625 0.265625 0.140625 0.46875q0 0.359375 -0.265625 0.609375q-0.25 0.265625 -0.640625 0.265625q-0.28125 0 -0.546875 -0.21875q-0.765625 -0.71875 -2.53125 -4.1875q-1.765625 -3.46875 -2.4375 -6.125q-0.671875 -2.671875 -0.671875 -5.375zm29.42604 -3.890625q2.421875 1.09375 3.703125 3.0q1.28125 1.890625 1.28125 3.953125q0 3.171875 -2.578125 5.59375q-2.5625 2.421875 -6.421875 2.421875q-2.265625 0 -4.703125 -0.953125q-2.4375 -0.96875 -3.40625 -1.984375q-0.3125 -0.328125 -0.3125 -0.71875q0 -0.328125 0.234375 -0.578125q0.25 -0.25 0.578125 -0.25q0.34375 0 0.765625 0.3125q3.25 2.40625 6.890625 2.40625q3.0625 0 5.125 -1.90625q2.0625 -1.921875 2.0625 -4.28125q0 -1.578125 -1.015625 -3.078125q-1.015625 -1.515625 -2.921875 -2.390625q-1.90625 -0.875 -3.859375 -0.875q-0.640625 0 -0.921875 -0.234375q-0.265625 -0.25 -0.265625 -0.640625q0 -0.375 0.265625 -0.625q0.265625 -0.265625 0.796875 -0.265625l1.5 0.03125q2.375 0 3.921875 -1.453125q1.546875 -1.453125 1.546875 -3.359375q0 -1.96875 -1.625 -3.484375q-1.609375 -1.515625 -4.21875 -1.515625q-1.828125 0 -3.359375 0.640625q-1.53125 0.625 -2.453125 1.71875q-0.34375 0.421875 -0.515625 0.515625q-0.171875 0.09375 -0.40625 0.09375q-0.359375 0 -0.609375 -0.234375q-0.25 -0.25 -0.25 -0.59375q0 -0.84375 1.828125 -2.125q2.53125 -1.78125 5.765625 -1.78125q3.34375 0 5.484375 2.015625q2.140625 2.0 2.140625 4.765625q0 1.765625 -1.03125 3.34375q-1.03125 1.578125 -3.015625 2.515625zm18.472916 8.0l5.734375 0l-6.234375 11.59375q-0.578125 1.046875 -1.375 1.046875q-0.515625 0 -0.890625 -0.375q-0.359375 -0.359375 -0.359375 -0.875q0 -0.21875 0.0625 -0.46875l3.0625 -10.921875zm49.430206 -4.8125q1.640625 -2.40625 3.375 -3.5625q1.734375 -1.15625 3.84375 -1.15625q2.8125 0 5.0 2.34375q2.1875 2.34375 2.1875 5.78125q0 3.15625 -2.0 5.765625q-1.984375 2.609375 -5.5 2.609375q-2.28125 0 -4.265625 -1.40625q-1.984375 -1.40625 -3.125 -4.328125q-1.40625 -3.625 -1.40625 -8.03125q0 -3.328125 1.328125 -6.171875q1.0 -2.203125 2.671875 -3.875q1.6875 -1.671875 3.921875 -2.734375q2.25 -1.0625 4.84375 -1.0625q1.765625 0 2.9375 0.71875q0.515625 0.3125 0.515625 0.84375q0 0.375 -0.234375 0.625q-0.234375 0.234375 -0.59375 0.234375q-0.265625 0 -0.640625 -0.21875q-0.875 -0.421875 -2.15625 -0.421875q-4.09375 0 -7.46875 3.53125q-3.359375 3.515625 -3.359375 8.359375q0 0.6875 0.125 2.15625zm0.40625 2.921875q0.796875 3.828125 2.5 5.46875q1.71875 1.625 4.046875 1.625q2.34375 0 4.015625 -1.828125q1.671875 -1.84375 1.671875 -4.78125q0 -2.75 -1.6875 -4.546875q-1.671875 -1.8125 -3.796875 -1.8125q-2.03125 0 -3.921875 1.75q-1.265625 1.140625 -2.828125 4.125zm30.972916 -2.203125q0 2.421875 -0.640625 5.125q-0.625 2.6875 -2.40625 6.25q-1.78125 3.5625 -2.609375 4.265625q-0.25 0.25 -0.546875 0.25q-0.375 0 -0.640625 -0.265625q-0.265625 -0.25 -0.265625 -0.609375q0 -0.203125 0.15625 -0.46875q2.3125 -4.21875 3.296875 -7.65625q0.984375 -3.4375 0.984375 -6.890625q0 -3.46875 -0.984375 -6.90625q-0.984375 -3.4375 -3.296875 -7.6875q-0.15625 -0.25 -0.15625 -0.453125q0 -0.359375 0.265625 -0.609375q0.265625 -0.25 0.640625 -0.25q0.296875 0 0.546875 0.21875q0.78125 0.71875 2.546875 4.1875q1.765625 3.453125 2.4375 6.125q0.671875 2.671875 0.671875 5.375zm24.691666 -7.75l0.78125 0q1.171875 0 2.0 0.84375q0.828125 0.84375 0.828125 2.0q0 1.234375 -0.84375 2.0625q-0.828125 0.8125 -1.984375 0.8125l-0.78125 0q-1.171875 0 -2.015625 -0.84375q-0.828125 -0.84375 -0.828125 -2.0q0 -1.234375 0.84375 -2.046875q0.859375 -0.828125 2.0 -0.828125zm-3.0625 11.84375l5.53125 0l-5.9375 9.75q-0.4375 0.703125 -0.703125 0.890625q-0.265625 0.203125 -0.609375 0.203125q-0.515625 0 -0.859375 -0.328125q-0.328125 -0.3125 -0.328125 -0.75q0 -0.25 0.125 -0.65625l2.78125 -9.109375z" fill-rule="nonzero"></path><path fill="#000000" d="m29.265625 395.65598l0 -0.59375q0 -0.65625 0.25 -0.921875q0.25 -0.28125 0.625 -0.28125q0.40625 0 0.65625 0.28125q0.25 0.265625 0.25 0.921875l0 3.984375q-0.015625 0.65625 -0.265625 0.9375q-0.234375 0.265625 -0.640625 0.265625q-0.359375 0 -0.609375 -0.234375q-0.234375 -0.25 -0.265625 -0.8125q-0.125 -1.5 -1.96875 -2.84375q-1.828125 -1.34375 -4.9375 -1.34375q-3.9375 0 -5.96875 2.46875q-2.03125 2.453125 -2.03125 5.625q0 3.421875 2.234375 5.640625q2.25 2.21875 5.828125 2.21875q2.046875 0 4.171875 -0.75q2.140625 -0.75 3.859375 -2.4375q0.453125 -0.421875 0.78125 -0.421875q0.359375 0 0.59375 0.25q0.25 0.234375 0.25 0.59375q0 0.90625 -2.125 2.296875q-3.421875 2.234375 -7.625 2.234375q-4.25 0 -7.0 -2.71875q-2.734375 -2.71875 -2.734375 -6.890625q0 -4.265625 2.796875 -7.078125q2.8125 -2.8125 7.0625 -2.8125q4.0625 0 6.8125 2.421875zm28.097916 7.34375q0 4.03125 -2.890625 6.890625q-2.890625 2.84375 -6.96875 2.84375q-4.109375 0 -6.984375 -2.859375q-2.875 -2.875 -2.875 -6.875q0 -4.03125 2.875 -6.890625q2.875 -2.875 6.984375 -2.875q4.078125 0 6.96875 2.859375q2.890625 2.84375 2.890625 6.90625zm-1.796875 0q0 -3.3125 -2.359375 -5.640625q-2.359375 -2.34375 -5.71875 -2.34375q-3.359375 0 -5.71875 2.34375q-2.359375 2.34375 -2.359375 5.640625q0 3.265625 2.359375 5.625q2.359375 2.34375 5.71875 2.34375q3.359375 0 5.71875 -2.328125q2.359375 -2.34375 2.359375 -5.640625zm11.832291 -9.140625l0 2.671875q1.84375 -1.875 3.328125 -2.578125q1.5 -0.71875 3.375 -0.71875q2.015625 0 3.671875 0.859375q1.171875 0.625 2.125 2.09375q0.953125 1.453125 0.953125 2.984375l0 11.109375l1.5 0q0.625 0 0.890625 0.25q0.28125 0.234375 0.28125 0.640625q0 0.375 -0.28125 0.625q-0.265625 0.25 -0.890625 0.25l-4.734375 0q-0.640625 0 -0.921875 -0.25q-0.265625 -0.25 -0.265625 -0.625q0 -0.40625 0.265625 -0.640625q0.28125 -0.25 0.921875 -0.25l1.46875 0l0 -10.8125q0 -1.875 -1.359375 -3.15625q-1.359375 -1.296875 -3.65625 -1.296875q-1.734375 0 -3.015625 0.703125q-1.28125 0.703125 -3.65625 3.5l0 11.0625l2.0 0q0.625 0 0.890625 0.25q0.28125 0.234375 0.28125 0.640625q0 0.375 -0.28125 0.625q-0.265625 0.25 -0.890625 0.25l-5.765625 0q-0.625 0 -0.90625 -0.25q-0.265625 -0.25 -0.265625 -0.625q0 -0.40625 0.265625 -0.640625q0.28125 -0.25 0.90625 -0.25l2.0 0l0 -14.625l-1.484375 0q-0.640625 0 -0.921875 -0.25q-0.265625 -0.265625 -0.265625 -0.65625q0 -0.375 0.265625 -0.625q0.28125 -0.265625 0.921875 -0.265625l3.25 0zm37.129166 1.15625q0 -0.609375 0.25 -0.875q0.25 -0.28125 0.625 -0.28125q0.40625 0 0.65625 0.28125q0.25 0.265625 0.25 0.921875l0 3.015625q0 0.640625 -0.25 0.921875q-0.25 0.265625 -0.65625 0.265625q-0.359375 0 -0.609375 -0.234375q-0.234375 -0.234375 -0.265625 -0.765625q-0.125 -1.25 -1.3125 -2.078125q-1.71875 -1.171875 -4.546875 -1.171875q-2.96875 0 -4.609375 1.203125q-1.234375 0.90625 -1.234375 2.015625q0 1.25 1.46875 2.09375q1.015625 0.59375 3.828125 0.90625q3.671875 0.390625 5.09375 0.90625q2.046875 0.734375 3.03125 2.03125q1.0 1.296875 1.0 2.8125q0 2.25 -2.15625 4.0q-2.15625 1.75 -6.34375 1.75q-4.171875 0 -6.84375 -2.109375q0 0.703125 -0.09375 0.921875q-0.078125 0.203125 -0.296875 0.359375q-0.21875 0.140625 -0.484375 0.140625q-0.390625 0 -0.640625 -0.265625q-0.25 -0.28125 -0.25 -0.90625l0 -3.640625q0 -0.625 0.234375 -0.890625q0.25 -0.28125 0.65625 -0.28125q0.375 0 0.625 0.265625q0.265625 0.265625 0.265625 0.703125q0 0.96875 0.484375 1.609375q0.734375 1.015625 2.34375 1.671875q1.609375 0.65625 3.9375 0.65625q3.4375 0 5.109375 -1.265625q1.6875 -1.28125 1.6875 -2.71875q0 -1.640625 -1.6875 -2.625q-1.734375 -0.984375 -5.015625 -1.3125q-3.28125 -0.34375 -4.71875 -0.890625q-1.421875 -0.546875 -2.21875 -1.640625q-0.796875 -1.09375 -0.796875 -2.34375q0 -2.265625 2.21875 -3.59375q2.234375 -1.34375 5.3125 -1.34375q3.65625 0 5.953125 1.78125zm29.629166 7.984375q0 4.03125 -2.890625 6.890625q-2.890625 2.84375 -6.96875 2.84375q-4.109375 0 -6.984375 -2.859375q-2.875 -2.875 -2.875 -6.875q0 -4.03125 2.875 -6.890625q2.875 -2.875 6.984375 -2.875q4.078125 0 6.96875 2.859375q2.890625 2.84375 2.890625 6.90625zm-1.796875 0q0 -3.3125 -2.359375 -5.640625q-2.359375 -2.34375 -5.71875 -2.34375q-3.359375 0 -5.71875 2.34375q-2.359375 2.34375 -2.359375 5.640625q0 3.265625 2.359375 5.625q2.359375 2.34375 5.71875 2.34375q3.359375 0 5.71875 -2.328125q2.359375 -2.34375 2.359375 -5.640625zm18.42604 -17.296875l0 24.578125l6.921875 0q0.65625 0 0.921875 0.25q0.28125 0.234375 0.28125 0.640625q0 0.375 -0.28125 0.625q-0.265625 0.25 -0.921875 0.25l-15.609375 0q-0.640625 0 -0.921875 -0.25q-0.265625 -0.25 -0.265625 -0.625q0 -0.40625 0.265625 -0.640625q0.28125 -0.25 0.921875 -0.25l6.921875 0l0 -22.796875l-5.078125 0q-0.640625 0 -0.921875 -0.25q-0.28125 -0.25 -0.28125 -0.65625q0 -0.375 0.265625 -0.625q0.28125 -0.25 0.9375 -0.25l6.84375 0zm34.23854 17.671875l-17.96875 0q0.46875 3.421875 2.875 5.515625q2.40625 2.078125 5.953125 2.078125q1.96875 0 4.125 -0.640625q2.171875 -0.65625 3.53125 -1.71875q0.40625 -0.328125 0.6875 -0.328125q0.34375 0 0.59375 0.265625q0.25 0.265625 0.25 0.625q0 0.359375 -0.328125 0.6875q-1.015625 1.046875 -3.59375 1.96875q-2.5625 0.90625 -5.265625 0.90625q-4.546875 0 -7.578125 -2.96875q-3.03125 -2.96875 -3.03125 -7.1875q0 -3.84375 2.84375 -6.59375q2.84375 -2.75 7.046875 -2.75q4.328125 0 7.109375 2.828125q2.796875 2.8125 2.75 7.3125zm-1.78125 -1.78125q-0.515625 -2.921875 -2.765625 -4.75q-2.234375 -1.828125 -5.3125 -1.828125q-3.09375 0 -5.3125 1.8125q-2.21875 1.796875 -2.765625 4.765625l16.15625 0zm17.472916 5.390625l0.765625 0q1.171875 0 2.0 0.828125q0.84375 0.828125 0.84375 2.015625q0 1.203125 -0.84375 2.03125q-0.84375 0.8125 -2.0 0.8125l-0.765625 0q-1.171875 0 -2.015625 -0.828125q-0.84375 -0.828125 -0.84375 -2.0q0 -1.21875 0.84375 -2.03125q0.859375 -0.828125 2.015625 -0.828125zm26.86354 -21.28125l0 24.578125l6.921875 0q0.65625 0 0.921875 0.25q0.28125 0.234375 0.28125 0.640625q0 0.375 -0.28125 0.625q-0.265625 0.25 -0.921875 0.25l-15.609375 0q-0.640625 0 -0.921875 -0.25q-0.265625 -0.25 -0.265625 -0.625q0 -0.40625 0.265625 -0.640625q0.28125 -0.25 0.921875 -0.25l6.921875 0l0 -22.796875l-5.078125 0q-0.640625 0 -0.921875 -0.25q-0.28125 -0.25 -0.28125 -0.65625q0 -0.375 0.265625 -0.625q0.28125 -0.25 0.9375 -0.25l6.84375 0zm34.56665 17.296875q0 4.03125 -2.890625 6.890625q-2.890625 2.84375 -6.9687347 2.84375q-4.109375 0 -6.984375 -2.859375q-2.875 -2.875 -2.875 -6.875q0 -4.03125 2.875 -6.890625q2.875 -2.875 6.984375 -2.875q4.0781097 0 6.9687347 2.859375q2.890625 2.84375 2.890625 6.90625zm-1.796875 0q0 -3.3125 -2.359375 -5.640625q-2.3593597 -2.34375 -5.7187347 -2.34375q-3.359375 0 -5.71875 2.34375q-2.359375 2.34375 -2.359375 5.640625q0 3.265625 2.359375 5.625q2.359375 2.34375 5.71875 2.34375q3.359375 0 5.7187347 -2.328125q2.359375 -2.34375 2.359375 -5.640625zm23.457306 -5.90625l0 -3.234375l4.140625 0q0.625 0 0.890625 0.265625q0.28125 0.25 0.28125 0.640625q0 0.375 -0.28125 0.640625q-0.265625 0.25 -0.890625 0.25l-2.375 0l0 17.609375q0 1.765625 -0.75 3.15625q-0.5 0.921875 -1.6875 1.90625q-1.171875 0.984375 -2.140625 1.40625q-0.96875 0.421875 -2.578125 0.421875l-5.0 0q-0.625 0 -0.90625 -0.25q-0.265625 -0.234375 -0.265625 -0.640625q0 -0.390625 0.265625 -0.65625q0.28125 -0.25 0.90625 -0.25l5.0625 0.03125q1.546875 0 2.796875 -0.796875q1.25 -0.796875 2.078125 -2.328125q0.453125 -0.890625 0.453125 -2.25l0 -5.296875q-2.828125 3.890625 -7.296875 3.890625q-3.640625 0 -6.28125 -2.703125q-2.625 -2.703125 -2.625 -6.5q0 -3.796875 2.625 -6.484375q2.640625 -2.6875 6.28125 -2.6875q4.46875 0 7.296875 3.859375zm0 5.3125q0 -3.109375 -2.125 -5.25q-2.125 -2.140625 -5.09375 -2.140625q-2.953125 0 -5.078125 2.15625q-2.125 2.15625 -2.125 5.234375q0 3.109375 2.125 5.265625q2.125 2.15625 5.078125 2.15625q2.96875 0 5.09375 -2.15625q2.125 -2.15625 2.125 -5.265625zm19.47293 -0.8125q0 -2.421875 0.625 -5.125q0.640625 -2.703125 2.421875 -6.25q1.78125 -3.5625 2.59375 -4.296875q0.265625 -0.21875 0.546875 -0.21875q0.390625 0 0.640625 0.25q0.265625 0.25 0.265625 0.609375q0 0.203125 -0.140625 0.453125q-2.3125 4.25 -3.296875 7.6875q-0.984375 3.4375 -0.984375 6.890625q0 3.46875 0.984375 6.90625q0.984375 3.4375 3.296875 7.65625q0.140625 0.265625 0.140625 0.46875q0 0.359375 -0.265625 0.609375q-0.25 0.265625 -0.640625 0.265625q-0.28125 0 -0.546875 -0.21875q-0.765625 -0.71875 -2.53125 -4.1875q-1.765625 -3.46875 -2.4375 -6.125q-0.671875 -2.671875 -0.671875 -5.375z" fill-rule="nonzero"></path><path fill="#ff9900" d="m324.72186 392.9841l0 1.453125q1.171875 -1.015625 2.59375 -1.515625q1.421875 -0.5 3.078125 -0.5q3.8125 0 6.046875 2.359375q1.765625 1.890625 1.765625 4.96875l0 8.0q1.359375 0 2.0 0.59375q0.65625 0.59375 0.65625 1.5625q0 0.9375 -0.65625 1.546875q-0.65625 0.59375 -2.21875 0.59375l-3.875 0q-1.5625 0 -2.234375 -0.59375q-0.65625 -0.609375 -0.65625 -1.5625q0 -0.953125 0.65625 -1.546875q0.65625 -0.59375 2.015625 -0.59375l0 -8.140625q0 -1.40625 -0.75 -2.046875q-0.984375 -0.84375 -2.96875 -0.84375q-1.484375 0 -2.609375 0.578125q-1.125 0.578125 -2.84375 2.453125l0 8.0q1.65625 0 2.140625 0.3125q1.03125 0.625 1.03125 1.84375q0 0.9375 -0.671875 1.546875q-0.65625 0.59375 -2.203125 0.59375l-4.890625 0q-1.5625 0 -2.21875 -0.59375q-0.65625 -0.609375 -0.65625 -1.5625q0 -1.1875 1.0 -1.828125q0.5 -0.3125 2.15625 -0.3125l0 -10.46875q-1.359375 0 -2.015625 -0.609375q-0.640625 -0.609375 -0.640625 -1.546875q0 -0.953125 0.65625 -1.546875q0.65625 -0.59375 2.21875 -0.59375l4.09375 0zm32.144775 -8.796875l0 23.5625l4.34375 0q1.5625 0 2.21875 0.59375q0.65625 0.59375 0.65625 1.5625q0 0.9375 -0.65625 1.546875q-0.65625 0.59375 -2.21875 0.59375l-12.984375 0q-1.5625 0 -2.234375 -0.59375q-0.65625 -0.609375 -0.65625 -1.5625q0 -0.953125 0.65625 -1.546875q0.671875 -0.59375 2.234375 -0.59375l4.34375 0l0 -17.953125l-3.84375 1.0q-0.921875 0.25 -1.390625 0.25q-0.8125 0 -1.421875 -0.640625q-0.59375 -0.65625 -0.59375 -1.609375q0 -0.859375 0.4375 -1.34375q0.453125 -0.5 1.859375 -0.875l9.25 -2.390625z" fill-rule="nonzero"></path><path fill="#000000" d="m380.7927 401.6091q0 2.421875 -0.640625 5.125q-0.625 2.6875 -2.40625 6.25q-1.78125 3.5625 -2.609375 4.265625q-0.25 0.25 -0.546875 0.25q-0.375 0 -0.640625 -0.265625q-0.265625 -0.25 -0.265625 -0.609375q0 -0.203125 0.15625 -0.46875q2.3125 -4.21875 3.296875 -7.65625q0.984375 -3.4375 0.984375 -6.890625q0 -3.46875 -0.984375 -6.90625q-0.984375 -3.4375 -3.296875 -7.6875q-0.15625 -0.25 -0.15625 -0.453125q0 -0.359375 0.265625 -0.609375q0.265625 -0.25 0.640625 -0.25q0.296875 0 0.546875 0.21875q0.78125 0.71875 2.546875 4.1875q1.765625 3.453125 2.4375 6.125q0.671875 2.671875 0.671875 5.375zm58.60208 -17.1875l-14.1875 30.390625q-0.359375 0.78125 -0.921875 0.78125q-0.359375 0 -0.625 -0.265625q-0.265625 -0.25 -0.265625 -0.578125q0 -0.25 0.21875 -0.6875l14.171875 -30.40625q0.21875 -0.484375 0.421875 -0.625q0.21875 -0.140625 0.515625 -0.140625q0.359375 0 0.609375 0.265625q0.265625 0.25 0.265625 0.5625q0 0.234375 -0.203125 0.703125zm25.5979 0l-14.1875 30.390625q-0.359375 0.78125 -0.921875 0.78125q-0.359375 0 -0.625 -0.265625q-0.265625 -0.25 -0.265625 -0.578125q0 -0.25 0.21875 -0.6875l14.171875 -30.40625q0.21875 -0.484375 0.421875 -0.625q0.21875 -0.140625 0.515625 -0.140625q0.359375 0 0.609375 0.265625q0.265625 0.25 0.265625 0.5625q0 0.234375 -0.203125 0.703125zm49.305237 27.625l0 -2.578125q-3.609375 3.265625 -7.8125 3.265625q-2.578125 0 -3.921875 -1.40625q-1.75 -1.84375 -1.75 -4.296875l0 -11.375l-2.359375 0q-0.640625 0 -0.921875 -0.25q-0.265625 -0.265625 -0.265625 -0.65625q0 -0.375 0.265625 -0.625q0.28125 -0.265625 0.921875 -0.265625l4.125 0l0 13.171875q0 1.71875 1.09375 2.828125q1.09375 1.109375 2.734375 1.109375q4.296875 0 7.890625 -3.9375l0 -11.375l-3.25 0q-0.640625 0 -0.90625 -0.25q-0.265625 -0.265625 -0.265625 -0.65625q0 -0.375 0.265625 -0.625q0.265625 -0.265625 0.90625 -0.265625l5.015625 0l0 16.421875l1.484375 0q0.640625 0 0.90625 0.25q0.28125 0.234375 0.28125 0.640625q0 0.375 -0.28125 0.625q-0.265625 0.25 -0.90625 0.25l-3.25 0zm13.863525 -18.1875l0 2.671875q1.84375 -1.875 3.328125 -2.578125q1.5 -0.71875 3.375 -0.71875q2.015625 0 3.671875 0.859375q1.171875 0.625 2.125 2.09375q0.953125 1.453125 0.953125 2.984375l0 11.109375l1.5 0q0.625 0 0.890625 0.25q0.28125 0.234375 0.28125 0.640625q0 0.375 -0.28125 0.625q-0.265625 0.25 -0.890625 0.25l-4.734375 0q-0.640625 0 -0.921875 -0.25q-0.265625 -0.25 -0.265625 -0.625q0 -0.40625 0.265625 -0.640625q0.28125 -0.25 0.921875 -0.25l1.46875 0l0 -10.8125q0 -1.875 -1.359375 -3.15625q-1.359375 -1.296875 -3.65625 -1.296875q-1.734375 0 -3.015625 0.703125q-1.28125 0.703125 -3.65625 3.5l0 11.0625l2.0 0q0.625 0 0.890625 0.25q0.28125 0.234375 0.28125 0.640625q0 0.375 -0.28125 0.625q-0.265625 0.25 -0.890625 0.25l-5.765625 0q-0.625 0 -0.90625 -0.25q-0.265625 -0.25 -0.265625 -0.625q0 -0.40625 0.265625 -0.640625q0.28125 -0.25 0.90625 -0.25l2.0 0l0 -14.625l-1.484375 0q-0.640625 0 -0.921875 -0.25q-0.265625 -0.265625 -0.265625 -0.65625q0 -0.375 0.265625 -0.625q0.28125 -0.265625 0.921875 -0.265625l3.25 0zm39.94165 -8.15625l0 24.578125l2.34375 0q0.65625 0 0.921875 0.25q0.28125 0.234375 0.28125 0.640625q0 0.375 -0.28125 0.625q-0.265625 0.25 -0.921875 0.25l-4.140625 0l0 -3.5q-3.0625 4.1875 -7.78125 4.1875q-2.390625 0 -4.59375 -1.265625q-2.1875 -1.265625 -3.46875 -3.609375q-1.265625 -2.359375 -1.265625 -4.859375q0 -2.515625 1.265625 -4.859375q1.28125 -2.34375 3.46875 -3.625q2.203125 -1.28125 4.609375 -1.28125q4.625 0 7.765625 4.203125l0 -9.953125l-2.34375 0q-0.65625 0 -0.9375 -0.25q-0.265625 -0.25 -0.265625 -0.65625q0 -0.375 0.265625 -0.625q0.28125 -0.25 0.9375 -0.25l4.140625 0zm-1.796875 17.296875q0 -3.359375 -2.265625 -5.671875q-2.265625 -2.3125 -5.390625 -2.3125q-3.15625 0 -5.421875 2.3125q-2.265625 2.3125 -2.265625 5.671875q0 3.328125 2.265625 5.65625q2.265625 2.3125 5.421875 2.3125q3.125 0 5.390625 -2.3125q2.265625 -2.328125 2.265625 -5.65625zm28.285461 0.375l-17.96875 0q0.46875 3.421875 2.875 5.515625q2.40625 2.078125 5.953125 2.078125q1.96875 0 4.125 -0.640625q2.171875 -0.65625 3.53125 -1.71875q0.40625 -0.328125 0.6875 -0.328125q0.34375 0 0.59375 0.265625q0.25 0.265625 0.25 0.625q0 0.359375 -0.328125 0.6875q-1.015625 1.046875 -3.59375 1.96875q-2.5625 0.90625 -5.265625 0.90625q-4.546875 0 -7.578125 -2.96875q-3.03125 -2.96875 -3.03125 -7.1875q0 -3.84375 2.84375 -6.59375q2.84375 -2.75 7.046875 -2.75q4.328125 0 7.109375 2.828125q2.796875 2.8125 2.75 7.3125zm-1.78125 -1.78125q-0.515625 -2.921875 -2.765625 -4.75q-2.234375 -1.828125 -5.3125 -1.828125q-3.09375 0 -5.3125 1.8125q-2.21875 1.796875 -2.765625 4.765625l16.15625 0zm16.676025 -5.9375l0 14.625l7.75 0q0.625 0 0.890625 0.25q0.28125 0.234375 0.28125 0.640625q0 0.375 -0.28125 0.625q-0.265625 0.25 -0.890625 0.25l-13.796875 0q-0.625 0 -0.90625 -0.25q-0.265625 -0.25 -0.265625 -0.625q0 -0.40625 0.265625 -0.640625q0.28125 -0.25 0.90625 -0.25l4.265625 0l0 -14.625l-3.828125 0q-0.625 0 -0.90625 -0.25q-0.265625 -0.265625 -0.265625 -0.65625q0 -0.375 0.265625 -0.625q0.28125 -0.265625 0.90625 -0.265625l3.828125 0l0 -2.65625q0 -2.234375 1.796875 -3.859375q1.8125 -1.640625 4.796875 -1.640625q2.5 0 5.328125 0.453125q1.078125 0.171875 1.296875 0.40625q0.21875 0.21875 0.21875 0.609375q0 0.375 -0.25 0.625q-0.25 0.234375 -0.671875 0.234375q-0.171875 0 -0.5625 -0.0625q-3.171875 -0.484375 -5.359375 -0.484375q-2.3125 0 -3.5625 1.140625q-1.25 1.125 -1.25 2.578125l0 2.65625l8.25 0q0.640625 0 0.90625 0.265625q0.28125 0.25 0.28125 0.640625q0 0.375 -0.28125 0.640625q-0.265625 0.25 -0.90625 0.25l-8.25 0zm27.644775 -10.84375l0 4.5625l-2.609375 0l0 -4.5625l2.609375 0zm0.0625 9.046875l0 16.421875l6.921875 0q0.65625 0 0.921875 0.25q0.28125 0.234375 0.28125 0.640625q0 0.375 -0.28125 0.625q-0.265625 0.25 -0.921875 0.25l-15.625 0q-0.625 0 -0.90625 -0.25q-0.265625 -0.25 -0.265625 -0.625q0 -0.40625 0.265625 -0.640625q0.28125 -0.25 0.90625 -0.25l6.9375 0l0 -14.625l-5.15625 0q-0.625 0 -0.90625 -0.25q-0.28125 -0.265625 -0.28125 -0.640625q0 -0.390625 0.265625 -0.640625q0.28125 -0.265625 0.921875 -0.265625l6.921875 0zm18.957275 0l0 2.671875q1.84375 -1.875 3.328125 -2.578125q1.5 -0.71875 3.375 -0.71875q2.015625 0 3.671875 0.859375q1.171875 0.625 2.125 2.09375q0.953125 1.453125 0.953125 2.984375l0 11.109375l1.5 0q0.625 0 0.890625 0.25q0.28125 0.234375 0.28125 0.640625q0 0.375 -0.28125 0.625q-0.265625 0.25 -0.890625 0.25l-4.734375 0q-0.640625 0 -0.921875 -0.25q-0.265625 -0.25 -0.265625 -0.625q0 -0.40625 0.265625 -0.640625q0.28125 -0.25 0.921875 -0.25l1.46875 0l0 -10.8125q0 -1.875 -1.359375 -3.15625q-1.359375 -1.296875 -3.65625 -1.296875q-1.734375 0 -3.015625 0.703125q-1.28125 0.703125 -3.65625 3.5l0 11.0625l2.0 0q0.625 0 0.890625 0.25q0.28125 0.234375 0.28125 0.640625q0 0.375 -0.28125 0.625q-0.265625 0.25 -0.890625 0.25l-5.765625 0q-0.625 0 -0.90625 -0.25q-0.265625 -0.25 -0.265625 -0.625q0 -0.40625 0.265625 -0.640625q0.28125 -0.25 0.90625 -0.25l2.0 0l0 -14.625l-1.484375 0q-0.640625 0 -0.921875 -0.25q-0.265625 -0.265625 -0.265625 -0.65625q0 -0.375 0.265625 -0.625q0.28125 -0.265625 0.921875 -0.265625l3.25 0zm40.832275 9.515625l-17.96875 0q0.46875 3.421875 2.875 5.515625q2.40625 2.078125 5.953125 2.078125q1.96875 0 4.125 -0.640625q2.171875 -0.65625 3.53125 -1.71875q0.40625 -0.328125 0.6875 -0.328125q0.34375 0 0.59375 0.265625q0.25 0.265625 0.25 0.625q0 0.359375 -0.328125 0.6875q-1.015625 1.046875 -3.59375 1.96875q-2.5625 0.90625 -5.265625 0.90625q-4.546875 0 -7.578125 -2.96875q-3.03125 -2.96875 -3.03125 -7.1875q0 -3.84375 2.84375 -6.59375q2.84375 -2.75 7.046875 -2.75q4.328125 0 7.109375 2.828125q2.796875 2.8125 2.75 7.3125zm-1.78125 -1.78125q-0.515625 -2.921875 -2.765625 -4.75q-2.234375 -1.828125 -5.3125 -1.828125q-3.09375 0 -5.3125 1.8125q-2.21875 1.796875 -2.765625 4.765625l16.15625 0zm26.488525 -15.890625l0 24.578125l2.34375 0q0.65625 0 0.921875 0.25q0.28125 0.234375 0.28125 0.640625q0 0.375 -0.28125 0.625q-0.265625 0.25 -0.921875 0.25l-4.140625 0l0 -3.5q-3.0625 4.1875 -7.78125 4.1875q-2.390625 0 -4.59375 -1.265625q-2.1875 -1.265625 -3.46875 -3.609375q-1.265625 -2.359375 -1.265625 -4.859375q0 -2.515625 1.265625 -4.859375q1.28125 -2.34375 3.46875 -3.625q2.203125 -1.28125 4.609375 -1.28125q4.625 0 7.765625 4.203125l0 -9.953125l-2.34375 0q-0.65625 0 -0.9375 -0.25q-0.265625 -0.25 -0.265625 -0.65625q0 -0.375 0.265625 -0.625q0.28125 -0.25 0.9375 -0.25l4.140625 0zm-1.796875 17.296875q0 -3.359375 -2.265625 -5.671875q-2.265625 -2.3125 -5.390625 -2.3125q-3.15625 0 -5.421875 2.3125q-2.265625 2.3125 -2.265625 5.671875q0 3.328125 2.265625 5.65625q2.265625 2.3125 5.421875 2.3125q3.125 0 5.390625 -2.3125q2.265625 -2.328125 2.265625 -5.65625z" fill-rule="nonzero"></path></g></svg>

