<?xml version="1.0" standalone="yes"?>

<svg version="1.1" viewBox="0.0 0.0 843.0 444.0" fill="none" stroke="none" stroke-linecap="square" stroke-miterlimit="10" xmlns="http://www.w3.org/2000/svg" xmlns:xlink="http://www.w3.org/1999/xlink"><clipPath id="p.0"><path d="m0 0l843.0 0l0 444.0l-843.0 0l0 -444.0z" clip-rule="nonzero"></path></clipPath><g clip-path="url(#p.0)"><path fill="#000000" fill-opacity="0.0" d="m0 0l843.07086 0l0 444.58792l-843.07086 0z" fill-rule="nonzero"></path><path fill="#000000" fill-opacity="0.0" d="m0 29.664042l833.19684 0l0 385.25986l-833.19684 0z" fill-rule="nonzero"></path><path fill="#d9d9d9" d="m25.125 84.74404l-3.328125 0l-8.078125 -18.3125l-2.015625 0q-0.703125 0 -1.015625 -0.28125q-0.296875 -0.28125 -0.296875 -0.71875q0 -0.421875 0.296875 -0.703125q0.3125 -0.28125 1.015625 -0.28125l7.375 0q0.703125 0 1.0 0.28125q0.3125 0.28125 0.3125 0.71875q0 0.421875 -0.3125 0.703125q-0.296875 0.28125 -1.0 0.28125l-3.25 0l7.21875 16.34375l0.859375 0l7.078125 -16.34375l-3.28125 0q-0.703125 0 -1.015625 -0.28125q-0.296875 -0.28125 -0.296875 -0.71875q0 -0.421875 0.296875 -0.703125q0.3125 -0.28125 1.015625 -0.28125l7.40625 0q0.734375 0 1.015625 0.28125q0.296875 0.28125 0.296875 0.71875q0 0.421875 -0.296875 0.703125q-0.28125 0.28125 -1.015625 0.28125l-1.984375 0l-8.0 18.3125zm32.742188 0l0 -2.84375q-4.28125 3.625 -9.15625 3.625q-3.546875 0 -5.546875 -1.796875q-1.984375 -1.796875 -1.984375 -4.40625q0 -2.859375 2.625 -4.984375q2.625 -2.140625 7.671875 -2.140625q1.359375 0 2.953125 0.1875q1.59375 0.171875 3.4375 0.546875l0 -3.1875q0 -1.625 -1.5 -2.8125q-1.5 -1.203125 -4.5 -1.203125q-2.296875 0 -6.4375 1.34375q-0.75 0.234375 -0.96875 0.234375q-0.375 0 -0.640625 -0.28125q-0.265625 -0.28125 -0.265625 -0.703125q0 -0.40625 0.234375 -0.640625q0.328125 -0.34375 2.640625 -0.953125q3.65625 -0.984375 5.53125 -0.984375q3.734375 0 5.8125 1.84375q2.09375 1.828125 2.09375 4.15625l0 13.03125l2.625 0q0.71875 0 1.015625 0.265625q0.3125 0.265625 0.3125 0.71875q0 0.421875 -0.3125 0.703125q-0.296875 0.28125 -1.015625 0.28125l-4.625 0zm0 -9.796875q-1.375 -0.40625 -2.921875 -0.59375q-1.546875 -0.1875 -3.265625 -0.1875q-4.28125 0 -6.703125 1.859375q-1.828125 1.375 -1.828125 3.296875q0 1.78125 1.390625 3.0q1.40625 1.21875 4.078125 1.21875q2.546875 0 4.734375 -1.015625q2.203125 -1.015625 4.515625 -3.25l0 -4.328125zm20.789062 -10.5l0 4.96875q3.84375 -3.46875 5.75 -4.46875q1.921875 -1.0 3.53125 -1.0q1.765625 0 3.265625 1.1875q1.515625 1.1875 1.515625 1.796875q0 0.4375 -0.296875 0.734375q-0.28125 0.296875 -0.734375 0.296875q-0.234375 0 -0.40625 -0.078125q-0.15625 -0.09375 -0.59375 -0.53125q-0.828125 -0.828125 -1.4375 -1.125q-0.609375 -0.3125 -1.1875 -0.3125q-1.296875 0 -3.109375 1.03125q-1.8125 1.03125 -6.296875 5.046875l0 10.78125l8.71875 0q0.734375 0 1.03125 0.265625q0.3125 0.265625 0.3125 0.71875q0 0.421875 -0.3125 0.703125q-0.296875 0.28125 -1.03125 0.28125l-15.4375 0q-0.703125 0 -1.015625 -0.265625q-0.296875 -0.28125 -0.296875 -0.703125q0 -0.390625 0.28125 -0.65625q0.296875 -0.28125 1.03125 -0.28125l4.75 0l0 -16.40625l-3.625 0q-0.703125 0 -1.015625 -0.28125q-0.296875 -0.28125 -0.296875 -0.71875q0 -0.421875 0.28125 -0.703125q0.296875 -0.28125 1.03125 -0.28125l5.59375 0zm65.625 20.296875l0 -2.84375q-4.28125 3.625 -9.15625 3.625q-3.546875 0 -5.546875 -1.796875q-1.984375 -1.796875 -1.984375 -4.40625q0 -2.859375 2.625 -4.984375q2.625 -2.140625 7.671875 -2.140625q1.359375 0 2.953125 0.1875q1.59375 0.171875 3.4375 0.546875l0 -3.1875q0 -1.625 -1.5 -2.8125q-1.5 -1.203125 -4.5 -1.203125q-2.296875 0 -6.4375 1.34375q-0.75 0.234375 -0.96875 0.234375q-0.375 0 -0.640625 -0.28125q-0.265625 -0.28125 -0.265625 -0.703125q0 -0.40625 0.234375 -0.640625q0.328125 -0.34375 2.640625 -0.953125q3.65625 -0.984375 5.53125 -0.984375q3.734375 0 5.8125 1.84375q2.09375 1.828125 2.09375 4.15625l0 13.03125l2.625 0q0.71875 0 1.015625 0.265625q0.3125 0.265625 0.3125 0.71875q0 0.421875 -0.3125 0.703125q-0.296875 0.28125 -1.015625 0.28125l-4.625 0zm0 -9.796875q-1.375 -0.40625 -2.921875 -0.59375q-1.546875 -0.1875 -3.265625 -0.1875q-4.28125 0 -6.703125 1.859375q-1.828125 1.375 -1.828125 3.296875q0 1.78125 1.390625 3.0q1.40625 1.21875 4.078125 1.21875q2.546875 0 4.734375 -1.015625q2.203125 -1.015625 4.515625 -3.25l0 -4.328125zm32.789062 -19.625l0 27.453125l2.625 0q0.734375 0 1.03125 0.265625q0.3125 0.265625 0.3125 0.71875q0 0.421875 -0.3125 0.703125q-0.296875 0.28125 -1.03125 0.28125l-4.609375 0l0 -3.921875q-3.421875 4.703125 -8.703125 4.703125q-2.671875 0 -5.125 -1.421875q-2.4375 -1.421875 -3.859375 -4.046875q-1.421875 -2.625 -1.421875 -5.421875q0 -2.8125 1.421875 -5.421875q1.421875 -2.609375 3.859375 -4.03125q2.453125 -1.4375 5.15625 -1.4375q5.15625 0 8.671875 4.6875l0 -11.109375l-2.625 0q-0.734375 0 -1.046875 -0.28125q-0.296875 -0.28125 -0.296875 -0.734375q0 -0.421875 0.296875 -0.703125q0.3125 -0.28125 1.046875 -0.28125l4.609375 0zm-1.984375 19.3125q0 -3.75 -2.53125 -6.328125q-2.53125 -2.578125 -6.03125 -2.578125q-3.515625 0 -6.046875 2.578125q-2.53125 2.578125 -2.53125 6.328125q0 3.734375 2.53125 6.328125q2.53125 2.578125 6.046875 2.578125q3.5 0 6.03125 -2.578125q2.53125 -2.59375 2.53125 -6.328125zm30.789062 -19.3125l0 27.453125l2.625 0q0.734375 0 1.03125 0.265625q0.3125 0.265625 0.3125 0.71875q0 0.421875 -0.3125 0.703125q-0.296875 0.28125 -1.03125 0.28125l-4.609375 0l0 -3.921875q-3.421875 4.703125 -8.703125 4.703125q-2.671875 0 -5.125 -1.421875q-2.4375 -1.421875 -3.859375 -4.046875q-1.421875 -2.625 -1.421875 -5.421875q0 -2.8125 1.421875 -5.421875q1.421875 -2.609375 3.859375 -4.03125q2.453125 -1.4375 5.15625 -1.4375q5.15625 0 8.671875 4.6875l0 -11.109375l-2.625 0q-0.734375 0 -1.046875 -0.28125q-0.296875 -0.28125 -0.296875 -0.734375q0 -0.421875 0.296875 -0.703125q0.3125 -0.28125 1.046875 -0.28125l4.609375 0zm-1.984375 19.3125q0 -3.75 -2.53125 -6.328125q-2.53125 -2.578125 -6.03125 -2.578125q-3.515625 0 -6.046875 2.578125q-2.53125 2.578125 -2.53125 6.328125q0 3.734375 2.53125 6.328125q2.53125 2.578125 6.046875 2.578125q3.5 0 6.03125 -2.578125q2.53125 -2.59375 2.53125 -6.328125zm60.703125 -6.1875l-21.46875 0q-0.703125 0 -1.015625 -0.28125q-0.296875 -0.28125 -0.296875 -0.71875q0 -0.421875 0.296875 -0.703125q0.3125 -0.28125 1.015625 -0.28125l21.46875 0q0.703125 0 1.0 0.28125q0.3125 0.28125 0.3125 0.71875q0 0.421875 -0.3125 0.703125q-0.296875 0.28125 -1.0 0.28125zm0 7.0625l-21.46875 0q-0.703125 0 -1.015625 -0.265625q-0.296875 -0.28125 -0.296875 -0.71875q0 -0.453125 0.296875 -0.71875q0.3125 -0.265625 1.015625 -0.265625l21.46875 0q0.703125 0 1.0 0.265625q0.3125 0.265625 0.3125 0.71875q0 0.4375 -0.3125 0.71875q-0.296875 0.265625 -1.0 0.265625zm45.5625 -9.078125l0 16.34375l8.640625 0q0.703125 0 1.0 0.265625q0.3125 0.265625 0.3125 0.71875q0 0.421875 -0.3125 0.703125q-0.296875 0.28125 -1.0 0.28125l-15.390625 0q-0.703125 0 -1.015625 -0.28125q-0.296875 -0.28125 -0.296875 -0.703125q0 -0.453125 0.296875 -0.71875q0.3125 -0.265625 1.015625 -0.265625l4.75 0l0 -16.34375l-4.265625 0q-0.703125 0 -1.015625 -0.28125q-0.296875 -0.28125 -0.296875 -0.71875q0 -0.421875 0.296875 -0.703125q0.3125 -0.28125 1.015625 -0.28125l4.265625 0l0 -2.984375q0 -2.484375 2.015625 -4.3125q2.015625 -1.828125 5.34375 -1.828125q2.796875 0 5.953125 0.515625q1.203125 0.1875 1.4375 0.453125q0.25 0.25 0.25 0.671875q0 0.421875 -0.28125 0.703125q-0.28125 0.265625 -0.75 0.265625q-0.1875 0 -0.625 -0.078125q-3.546875 -0.53125 -5.984375 -0.53125q-2.578125 0 -3.96875 1.265625q-1.390625 1.265625 -1.390625 2.875l0 2.984375l9.203125 0q0.703125 0 1.0 0.28125q0.3125 0.28125 0.3125 0.71875q0 0.421875 -0.3125 0.703125q-0.296875 0.28125 -1.0 0.28125l-9.203125 0zm36.835938 18.3125l0 -2.890625q-4.03125 3.671875 -8.71875 3.671875q-2.875 0 -4.375 -1.578125q-1.953125 -2.0625 -1.953125 -4.8125l0 -12.703125l-2.640625 0q-0.703125 0 -1.015625 -0.28125q-0.296875 -0.28125 -0.296875 -0.71875q0 -0.421875 0.296875 -0.703125q0.3125 -0.28125 1.015625 -0.28125l4.609375 0l0 14.6875q0 1.921875 1.21875 3.171875q1.21875 1.234375 3.046875 1.234375q4.8125 0 8.8125 -4.40625l0 -12.703125l-3.625 0q-0.703125 0 -1.015625 -0.28125q-0.296875 -0.28125 -0.296875 -0.71875q0 -0.421875 0.296875 -0.703125q0.3125 -0.28125 1.015625 -0.28125l5.59375 0l0 18.328125l1.671875 0q0.703125 0 1.0 0.265625q0.3125 0.265625 0.3125 0.71875q0 0.421875 -0.3125 0.703125q-0.296875 0.28125 -1.0 0.28125l-3.640625 0zm15.7109375 -20.296875l0 2.96875q2.0625 -2.078125 3.71875 -2.875q1.671875 -0.796875 3.75 -0.796875q2.25 0 4.109375 0.953125q1.3125 0.703125 2.375 2.34375q1.0625 1.625 1.0625 3.328125l0 12.40625l1.671875 0q0.703125 0 1.0 0.265625q0.3125 0.265625 0.3125 0.71875q0 0.421875 -0.3125 0.703125q-0.296875 0.28125 -1.0 0.28125l-5.28125 0q-0.71875 0 -1.03125 -0.28125q-0.296875 -0.28125 -0.296875 -0.703125q0 -0.453125 0.296875 -0.71875q0.3125 -0.265625 1.03125 -0.265625l1.640625 0l0 -12.078125q0 -2.078125 -1.53125 -3.515625q-1.515625 -1.453125 -4.0625 -1.453125q-1.953125 0 -3.390625 0.796875q-1.421875 0.78125 -4.0625 3.890625l0 12.359375l2.21875 0q0.703125 0 1.0 0.265625q0.3125 0.265625 0.3125 0.71875q0 0.421875 -0.3125 0.703125q-0.296875 0.28125 -1.0 0.28125l-6.421875 0q-0.703125 0 -1.015625 -0.28125q-0.296875 -0.28125 -0.296875 -0.703125q0 -0.453125 0.296875 -0.71875q0.3125 -0.265625 1.015625 -0.265625l2.234375 0l0 -16.34375l-1.671875 0q-0.703125 0 -1.015625 -0.28125q-0.296875 -0.28125 -0.296875 -0.71875q0 -0.421875 0.296875 -0.703125q0.3125 -0.28125 1.015625 -0.28125l3.640625 0zm43.382812 1.984375l0 -0.65625q0 -0.71875 0.28125 -1.015625q0.28125 -0.3125 0.703125 -0.3125q0.4375 0 0.71875 0.3125q0.28125 0.296875 0.28125 1.015625l0 4.453125q-0.015625 0.734375 -0.296875 1.046875q-0.265625 0.296875 -0.703125 0.296875q-0.40625 0 -0.671875 -0.265625q-0.265625 -0.28125 -0.3125 -0.90625q-0.140625 -1.671875 -2.203125 -3.171875q-2.046875 -1.5 -5.515625 -1.5q-4.375 0 -6.65625 2.75q-2.265625 2.734375 -2.265625 6.28125q0 3.8125 2.5 6.296875q2.515625 2.484375 6.5 2.484375q2.296875 0 4.671875 -0.84375q2.375 -0.84375 4.296875 -2.71875q0.5 -0.46875 0.875 -0.46875q0.390625 0 0.65625 0.28125q0.28125 0.265625 0.28125 0.65625q0 1.015625 -2.375 2.5625q-3.8125 2.515625 -8.5 2.515625q-4.765625 0 -7.828125 -3.03125q-3.046875 -3.046875 -3.046875 -7.71875q0 -4.75 3.125 -7.890625q3.125 -3.140625 7.890625 -3.140625q4.515625 0 7.59375 2.6875zm16.539062 -1.984375l10.6875 0q0.703125 0 1.0 0.28125q0.3125 0.28125 0.3125 0.71875q0 0.421875 -0.3125 0.703125q-0.296875 0.28125 -1.0 0.28125l-10.6875 0l0 13.109375q0 1.703125 1.375 2.859375q1.375 1.140625 4.015625 1.140625q2.0 0 4.3125 -0.59375q2.328125 -0.59375 3.609375 -1.34375q0.46875 -0.3125 0.78125 -0.3125q0.375 0 0.65625 0.296875q0.28125 0.296875 0.28125 0.6875q0 0.359375 -0.3125 0.65625q-0.75 0.78125 -3.640625 1.6875q-2.890625 0.90625 -5.546875 0.90625q-3.4375 0 -5.484375 -1.625q-2.03125 -1.625 -2.03125 -4.359375l0 -13.109375l-3.640625 0q-0.703125 0 -1.015625 -0.28125q-0.296875 -0.28125 -0.296875 -0.71875q0 -0.421875 0.296875 -0.703125q0.3125 -0.28125 1.015625 -0.28125l3.640625 0l0 -5.8125q0 -0.703125 0.28125 -1.0q0.28125 -0.3125 0.703125 -0.3125q0.4375 0 0.71875 0.3125q0.28125 0.296875 0.28125 1.0l0 5.8125zm33.820312 -10.109375l0 5.09375l-2.90625 0l0 -5.09375l2.90625 0zm0.078125 10.109375l0 18.328125l7.734375 0q0.71875 0 1.015625 0.265625q0.3125 0.265625 0.3125 0.71875q0 0.421875 -0.3125 0.703125q-0.296875 0.28125 -1.015625 0.28125l-17.4375 0q-0.703125 0 -1.015625 -0.28125q-0.296875 -0.28125 -0.296875 -0.703125q0 -0.453125 0.296875 -0.71875q0.3125 -0.265625 1.015625 -0.265625l7.734375 0l0 -16.34375l-5.75 0q-0.703125 0 -1.015625 -0.28125q-0.3125 -0.28125 -0.3125 -0.703125q0 -0.4375 0.296875 -0.71875q0.3125 -0.28125 1.03125 -0.28125l7.71875 0zm38.757812 10.1875q0 4.5 -3.21875 7.703125q-3.21875 3.1875 -7.765625 3.1875q-4.59375 0 -7.8125 -3.203125q-3.203125 -3.203125 -3.203125 -7.6875q0 -4.5 3.203125 -7.6875q3.21875 -3.203125 7.8125 -3.203125q4.546875 0 7.765625 3.1875q3.21875 3.1875 3.21875 7.703125zm-1.984375 0q0 -3.703125 -2.640625 -6.296875q-2.640625 -2.609375 -6.390625 -2.609375q-3.75 0 -6.390625 2.625q-2.625 2.609375 -2.625 6.28125q0 3.65625 2.625 6.28125q2.640625 2.625 6.390625 2.625q3.75 0 6.390625 -2.609375q2.640625 -2.609375 2.640625 -6.296875zm13.4296875 -10.1875l0 2.96875q2.0625 -2.078125 3.71875 -2.875q1.671875 -0.796875 3.75 -0.796875q2.25 0 4.109375 0.953125q1.3125 0.703125 2.375 2.34375q1.0625 1.625 1.0625 3.328125l0 12.40625l1.671875 0q0.703125 0 1.0 0.265625q0.3125 0.265625 0.3125 0.71875q0 0.421875 -0.3125 0.703125q-0.296875 0.28125 -1.0 0.28125l-5.28125 0q-0.71875 0 -1.03125 -0.28125q-0.296875 -0.28125 -0.296875 -0.703125q0 -0.453125 0.296875 -0.71875q0.3125 -0.265625 1.03125 -0.265625l1.640625 0l0 -12.078125q0 -2.078125 -1.53125 -3.515625q-1.515625 -1.453125 -4.0625 -1.453125q-1.953125 0 -3.390625 0.796875q-1.421875 0.78125 -4.0625 3.890625l0 12.359375l2.21875 0q0.703125 0 1.0 0.265625q0.3125 0.265625 0.3125 0.71875q0 0.421875 -0.3125 0.703125q-0.296875 0.28125 -1.0 0.28125l-6.421875 0q-0.703125 0 -1.015625 -0.28125q-0.296875 -0.28125 -0.296875 -0.703125q0 -0.453125 0.296875 -0.71875q0.3125 -0.265625 1.015625 -0.265625l2.234375 0l0 -16.34375l-1.671875 0q-0.703125 0 -1.015625 -0.28125q-0.296875 -0.28125 -0.296875 -0.71875q0 -0.421875 0.296875 -0.703125q0.3125 -0.28125 1.015625 -0.28125l3.640625 0z" fill-rule="nonzero"></path><path fill="#000000" d="m541.6719 73.07217q0 -2.703125 0.703125 -5.71875q0.703125 -3.03125 2.6875 -6.984375q2.0 -3.96875 2.90625 -4.78125q0.28125 -0.265625 0.609375 -0.265625q0.421875 0 0.71875 0.28125q0.296875 0.28125 0.296875 0.6875q0 0.234375 -0.171875 0.515625q-2.578125 4.734375 -3.6875 8.578125q-1.09375 3.84375 -1.09375 7.6875q0 3.859375 1.09375 7.703125q1.109375 3.84375 3.6875 8.5625q0.171875 0.28125 0.171875 0.515625q0 0.40625 -0.296875 0.6875q-0.296875 0.296875 -0.71875 0.296875q-0.328125 0 -0.609375 -0.25q-0.859375 -0.796875 -2.828125 -4.671875q-1.96875 -3.875 -2.71875 -6.84375q-0.75 -2.984375 -0.75 -6.0z" fill-rule="nonzero"></path><path fill="#6aa84f" d="m565.83594 63.46279l0 1.609375q1.3125 -1.125 2.890625 -1.6875q1.578125 -0.5625 3.4375 -0.5625q4.265625 0 6.75 2.65625q1.96875 2.109375 1.96875 5.53125l0 8.921875q1.515625 0 2.234375 0.671875q0.734375 0.671875 0.734375 1.75q0 1.046875 -0.734375 1.71875q-0.734375 0.671875 -2.46875 0.671875l-4.34375 0q-1.734375 0 -2.46875 -0.671875q-0.734375 -0.671875 -0.734375 -1.75q0 -1.046875 0.71875 -1.71875q0.734375 -0.671875 2.25 -0.671875l0 -9.0625q0 -1.578125 -0.84375 -2.296875q-1.09375 -0.9375 -3.296875 -0.9375q-1.671875 0 -2.921875 0.640625q-1.25 0.640625 -3.171875 2.734375l0 8.921875q1.84375 0 2.390625 0.359375q1.140625 0.703125 1.140625 2.0625q0 1.046875 -0.734375 1.71875q-0.734375 0.671875 -2.46875 0.671875l-5.46875 0q-1.734375 0 -2.46875 -0.671875q-0.734375 -0.671875 -0.734375 -1.75q0 -1.3125 1.125 -2.03125q0.5625 -0.359375 2.40625 -0.359375l0 -11.671875q-1.515625 0 -2.25 -0.671875q-0.71875 -0.6875 -0.71875 -1.734375q0 -1.0625 0.734375 -1.71875q0.734375 -0.671875 2.46875 -0.671875l4.578125 0zm36.117188 -9.828125l0 26.296875l4.84375 0q1.734375 0 2.46875 0.671875q0.75 0.671875 0.75 1.75q0 1.046875 -0.75 1.71875q-0.734375 0.671875 -2.46875 0.671875l-14.5 0q-1.734375 0 -2.484375 -0.671875q-0.734375 -0.671875 -0.734375 -1.75q0 -1.046875 0.734375 -1.71875q0.75 -0.671875 2.484375 -0.671875l4.84375 0l0 -20.03125l-4.28125 1.125q-1.03125 0.28125 -1.546875 0.28125q-0.921875 0 -1.59375 -0.71875q-0.65625 -0.734375 -0.65625 -1.796875q0 -0.953125 0.484375 -1.5q0.5 -0.5625 2.0625 -0.984375l10.34375 -2.671875z" fill-rule="nonzero"></path><path fill="#000000" d="m624.39844 77.66592l6.40625 0l-6.96875 12.9375q-0.625 1.171875 -1.515625 1.171875q-0.59375 0 -1.0 -0.40625q-0.40625 -0.40625 -0.40625 -1.0q0 -0.234375 0.0625 -0.515625l3.421875 -12.1875z" fill-rule="nonzero"></path><path fill="#3c78d8" d="m681.0547 63.46279l0 1.609375q1.3125 -1.125 2.890625 -1.6875q1.578125 -0.5625 3.4375 -0.5625q4.265625 0 6.75 2.65625q1.96875 2.109375 1.96875 5.53125l0 8.921875q1.515625 0 2.234375 0.671875q0.734375 0.671875 0.734375 1.75q0 1.046875 -0.734375 1.71875q-0.734375 0.671875 -2.46875 0.671875l-4.34375 0q-1.734375 0 -2.46875 -0.671875q-0.734375 -0.671875 -0.734375 -1.75q0 -1.046875 0.71875 -1.71875q0.734375 -0.671875 2.25 -0.671875l0 -9.0625q0 -1.578125 -0.84375 -2.296875q-1.09375 -0.9375 -3.296875 -0.9375q-1.671875 0 -2.921875 0.640625q-1.25 0.640625 -3.171875 2.734375l0 8.921875q1.84375 0 2.390625 0.359375q1.140625 0.703125 1.140625 2.0625q0 1.046875 -0.734375 1.71875q-0.734375 0.671875 -2.46875 0.671875l-5.46875 0q-1.734375 0 -2.46875 -0.671875q-0.734375 -0.671875 -0.734375 -1.75q0 -1.3125 1.125 -2.03125q0.5625 -0.359375 2.40625 -0.359375l0 -11.671875q-1.515625 0 -2.25 -0.671875q-0.71875 -0.6875 -0.71875 -1.734375q0 -1.0625 0.734375 -1.71875q0.734375 -0.671875 2.46875 -0.671875l4.578125 0zm29.179688 16.46875l10.515625 0q0.875 -0.703125 1.640625 -0.703125q1.109375 0 1.75 0.734375q0.640625 0.71875 0.640625 2.484375l0 2.296875l-21.890625 0l0 -5.09375q12.984375 -10.703125 15.6875 -13.78125q1.359375 -1.5625 1.359375 -2.96875q0 -1.765625 -1.546875 -3.109375q-1.53125 -1.34375 -4.078125 -1.34375q-2.578125 0 -4.296875 1.5q-0.890625 0.796875 -1.421875 2.359375q-0.328125 0.984375 -0.90625 1.40625q-0.578125 0.421875 -1.421875 0.421875q-0.984375 0 -1.703125 -0.703125q-0.703125 -0.703125 -0.703125 -1.640625q0 -1.40625 1.296875 -3.515625q1.296875 -2.109375 3.796875 -3.375q2.5 -1.265625 5.421875 -1.265625q4.546875 0 7.453125 2.765625q2.90625 2.75 2.90625 6.65625q0 2.0 -0.828125 3.703125q-0.828125 1.6875 -4.0 4.6875q-2.484375 2.375 -9.671875 8.484375z" fill-rule="nonzero"></path><path fill="#000000" d="m744.10156 73.08779q0 2.703125 -0.703125 5.71875q-0.703125 3.0 -2.703125 6.96875q-1.984375 3.984375 -2.90625 4.78125q-0.28125 0.28125 -0.609375 0.28125q-0.421875 0 -0.71875 -0.296875q-0.28125 -0.28125 -0.28125 -0.6875q0 -0.234375 0.15625 -0.515625q2.578125 -4.71875 3.671875 -8.5625q1.109375 -3.84375 1.109375 -7.6875q0 -3.859375 -1.109375 -7.703125q-1.09375 -3.84375 -3.671875 -8.578125q-0.15625 -0.28125 -0.15625 -0.515625q0 -0.40625 0.28125 -0.6875q0.296875 -0.28125 0.71875 -0.28125q0.328125 0 0.609375 0.265625q0.875 0.796875 2.84375 4.671875q1.96875 3.859375 2.71875 6.84375q0.75 2.96875 0.75 5.984375z" fill-rule="nonzero"></path><path fill="#d9d9d9" d="m771.1875 73.07217q1.171875 0.890625 1.59375 1.6875q0.546875 1.046875 0.546875 2.5l0 8.421875q0 1.34375 0.765625 2.1875q0.78125 0.859375 1.921875 0.984375q0.734375 0.0625 0.96875 0.28125q0.296875 0.28125 0.296875 0.703125q0 0.4375 -0.3125 0.703125q-0.296875 0.28125 -0.875 0.28125q-1.859375 0 -3.09375 -1.171875q-1.671875 -1.625 -1.671875 -3.9375l0 -8.453125q0 -1.28125 -0.78125 -2.15625q-0.765625 -0.890625 -1.953125 -0.984375q-0.65625 -0.0625 -0.921875 -0.3125q-0.25 -0.265625 -0.25 -0.734375q0 -0.453125 0.25 -0.703125q0.265625 -0.265625 0.921875 -0.328125q1.21875 -0.09375 1.96875 -0.96875q0.765625 -0.890625 0.765625 -2.171875l0 -8.4375q0 -2.203125 1.40625 -3.671875q1.40625 -1.46875 3.375 -1.46875q0.5625 0 0.859375 0.28125q0.3125 0.28125 0.3125 0.703125q0 0.421875 -0.296875 0.703125q-0.21875 0.234375 -0.96875 0.3125q-1.171875 0.109375 -1.9375 0.984375q-0.75 0.859375 -0.75 2.15625l0 8.4375q0 1.46875 -0.46875 2.375q-0.46875 0.90625 -1.671875 1.796875z" fill-rule="nonzero"></path><path fill="#000000" d="m73.125 142.74405l-3.328125 0l-8.078125 -18.312508l-2.015625 0q-0.703125 0 -1.015625 -0.28125q-0.296875 -0.28125 -0.296875 -0.71875q0 -0.421875 0.296875 -0.703125q0.3125 -0.28125 1.015625 -0.28125l7.375 0q0.703125 0 1.0 0.28125q0.3125 0.28125 0.3125 0.71875q0 0.421875 -0.3125 0.703125q-0.296875 0.28125 -1.0 0.28125l-3.25 0l7.21875 16.343758l0.859375 0l7.078125 -16.343758l-3.28125 0q-0.703125 0 -1.015625 -0.28125q-0.296875 -0.28125 -0.296875 -0.71875q0 -0.421875 0.296875 -0.703125q0.3125 -0.28125 1.015625 -0.28125l7.40625 0q0.734375 0 1.015625 0.28125q0.296875 0.28125 0.296875 0.71875q0 0.421875 -0.296875 0.703125q-0.28125 0.28125 -1.015625 0.28125l-1.984375 0l-8.0 18.312508zm32.742188 0l0 -2.84375q-4.28125 3.625 -9.15625 3.625q-3.546875 0 -5.546875 -1.796875q-1.984375 -1.796875 -1.984375 -4.40625q0 -2.859375 2.625 -4.984375q2.625 -2.140625 7.671875 -2.140625q1.359375 0 2.953125 0.1875q1.59375 0.171875 3.4375 0.546875l0 -3.1875076q0 -1.625 -1.5 -2.8125q-1.5 -1.203125 -4.5 -1.203125q-2.296875 0 -6.4375 1.34375q-0.75 0.234375 -0.96875 0.234375q-0.375 0 -0.640625 -0.28125q-0.265625 -0.28125 -0.265625 -0.703125q0 -0.40625 0.234375 -0.640625q0.328125 -0.34375 2.640625 -0.953125q3.65625 -0.984375 5.53125 -0.984375q3.734375 0 5.8125 1.84375q2.09375 1.828125 2.09375 4.15625l0 13.031258l2.625 0q0.71875 0 1.015625 0.265625q0.3125 0.265625 0.3125 0.71875q0 0.421875 -0.3125 0.703125q-0.296875 0.28125 -1.015625 0.28125l-4.625 0zm0 -9.796875q-1.375 -0.40625 -2.921875 -0.59375q-1.546875 -0.1875 -3.265625 -0.1875q-4.28125 0 -6.703125 1.859375q-1.828125 1.375 -1.828125 3.296875q0 1.78125 1.390625 3.0q1.40625 1.21875 4.078125 1.21875q2.546875 0 4.734375 -1.015625q2.203125 -1.015625 4.515625 -3.25l0 -4.328125zm20.789062 -10.500008l0 4.96875q3.84375 -3.46875 5.75 -4.46875q1.921875 -1.0 3.53125 -1.0q1.765625 0 3.265625 1.1875q1.515625 1.1875 1.515625 1.796875q0 0.4375 -0.296875 0.734375q-0.28125 0.296875 -0.734375 0.296875q-0.234375 0 -0.40625 -0.078125q-0.15625 -0.09375 -0.59375 -0.53125q-0.828125 -0.828125 -1.4375 -1.125q-0.609375 -0.3125 -1.1875 -0.3125q-1.296875 0 -3.109375 1.03125q-1.8125 1.03125 -6.296875 5.0468826l0 10.78125l8.71875 0q0.734375 0 1.03125 0.265625q0.3125 0.265625 0.3125 0.71875q0 0.421875 -0.3125 0.703125q-0.296875 0.28125 -1.03125 0.28125l-15.4375 0q-0.703125 0 -1.015625 -0.265625q-0.296875 -0.28125 -0.296875 -0.703125q0 -0.390625 0.28125 -0.65625q0.296875 -0.28125 1.03125 -0.28125l4.75 0l0 -16.406258l-3.625 0q-0.703125 0 -1.015625 -0.28125q-0.296875 -0.28125 -0.296875 -0.71875q0 -0.421875 0.28125 -0.703125q0.296875 -0.28125 1.03125 -0.28125l5.59375 0zm66.46875 1.28125q0 -0.671875 0.28125 -0.96875q0.28125 -0.3125 0.703125 -0.3125q0.453125 0 0.734375 0.3125q0.28125 0.296875 0.28125 1.015625l0 3.375q0 0.703125 -0.28125 1.0156326q-0.28125 0.296875 -0.734375 0.296875q-0.390625 0 -0.671875 -0.25q-0.265625 -0.26563263 -0.3125 -0.8437576q-0.140625 -1.40625 -1.453125 -2.328125q-1.921875 -1.3125 -5.078125 -1.3125q-3.3125 0 -5.140625 1.34375q-1.375 1.0 -1.375 2.25q0 1.4062576 1.640625 2.3437576q1.125 0.65625 4.265625 1.0q4.09375 0.453125 5.6875 1.015625q2.28125 0.8125 3.390625 2.265625q1.109375 1.453125 1.109375 3.140625q0 2.515625 -2.421875 4.484375q-2.40625 1.953125 -7.0625 1.953125q-4.671875 0 -7.640625 -2.375q0 0.796875 -0.09375 1.03125q-0.09375 0.234375 -0.34375 0.40625q-0.25 0.15625 -0.546875 0.15625q-0.421875 0 -0.703125 -0.296875q-0.28125 -0.3125 -0.28125 -1.015625l0 -4.0625q0 -0.703125 0.265625 -1.0q0.265625 -0.3125 0.71875 -0.3125q0.421875 0 0.703125 0.296875q0.296875 0.296875 0.296875 0.78125q0 1.078125 0.546875 1.8125q0.8125 1.125 2.609375 1.859375q1.796875 0.734375 4.390625 0.734375q3.84375 0 5.71875 -1.421875q1.875 -1.4375 1.875 -3.03125q0 -1.828125 -1.890625 -2.921875q-1.921875 -1.109375 -5.59375 -1.484375q-3.671875 -0.375 -5.265625 -0.984375q-1.59375 -0.609375 -2.484375 -1.828125q-0.890625 -1.21875 -0.890625 -2.6250076q0 -2.53125 2.484375 -4.015625q2.484375 -1.484375 5.9375 -1.484375q4.078125 0 6.625 1.984375zm29.039062 19.015633l0 -2.890625q-4.03125 3.671875 -8.71875 3.671875q-2.875 0 -4.375 -1.578125q-1.953125 -2.0625 -1.953125 -4.8125l0 -12.703133l-2.640625 0q-0.703125 0 -1.015625 -0.28125q-0.296875 -0.28125 -0.296875 -0.71875q0 -0.421875 0.296875 -0.703125q0.3125 -0.28125 1.015625 -0.28125l4.609375 0l0 14.687508q0 1.921875 1.21875 3.171875q1.21875 1.234375 3.046875 1.234375q4.8125 0 8.8125 -4.40625l0 -12.703133l-3.625 0q-0.703125 0 -1.015625 -0.28125q-0.296875 -0.28125 -0.296875 -0.71875q0 -0.421875 0.296875 -0.703125q0.3125 -0.28125 1.015625 -0.28125l5.59375 0l0 18.328133l1.671875 0q0.703125 0 1.0 0.265625q0.3125 0.265625 0.3125 0.71875q0 0.421875 -0.3125 0.703125q-0.296875 0.28125 -1.0 0.28125l-3.640625 0zm13.1015625 -20.296883l0 1.984375q2.515625 -2.6875 5.046875 -2.6875q1.515625 0 2.65625 0.8125q1.15625 0.796875 1.9375 2.4375q1.3125 -1.640625 2.65625 -2.4375q1.34375 -0.8125 2.703125 -0.8125q2.140625 0 3.40625 1.375q1.65625 1.78125 1.65625 3.890625l0 13.765633l1.671875 0q0.703125 0 1.0 0.265625q0.3125 0.265625 0.3125 0.71875q0 0.421875 -0.3125 0.703125q-0.296875 0.28125 -1.0 0.28125l-3.640625 0l0 -15.546883q0 -1.5 -0.921875 -2.484375q-0.90625 -0.984375 -2.09375 -0.984375q-1.078125 0 -2.28125 0.8125q-1.1875 0.8125 -2.71875 3.171875l0 13.062508l1.640625 0q0.703125 0 1.0 0.265625q0.3125 0.265625 0.3125 0.71875q0 0.421875 -0.3125 0.703125q-0.296875 0.28125 -1.0 0.28125l-3.625 0l0 -15.406258q0 -1.5625 -0.9375 -2.578125q-0.921875 -1.03125 -2.0625 -1.03125q-1.0625 0 -2.09375 0.6875q-1.421875 0.953125 -3.0 3.296875l0 13.062508l1.671875 0q0.703125 0 1.0 0.265625q0.3125 0.265625 0.3125 0.71875q0 0.421875 -0.3125 0.703125q-0.296875 0.28125 -1.0 0.28125l-5.296875 0q-0.703125 0 -1.015625 -0.28125q-0.296875 -0.28125 -0.296875 -0.703125q0 -0.453125 0.296875 -0.71875q0.3125 -0.265625 1.015625 -0.265625l1.65625 0l0 -16.343758l-1.65625 0q-0.703125 0 -1.015625 -0.28125q-0.296875 -0.28125 -0.296875 -0.71875q0 -0.421875 0.296875 -0.703125q0.3125 -0.28125 1.015625 -0.28125l3.625 0zm77.328125 4.0l-21.46875 0q-0.703125 0 -1.015625 -0.28125q-0.296875 -0.28125 -0.296875 -0.71875q0 -0.421875 0.296875 -0.703125q0.3125 -0.28125 1.015625 -0.28125l21.46875 0q0.703125 0 1.0 0.28125q0.3125 0.28125 0.3125 0.71875q0 0.421875 -0.3125 0.703125q-0.296875 0.28125 -1.0 0.28125zm0 7.0625076l-21.46875 0q-0.703125 0 -1.015625 -0.265625q-0.296875 -0.28125 -0.296875 -0.71875q0 -0.453125 0.296875 -0.71875q0.3125 -0.265625 1.015625 -0.265625l21.46875 0q0.703125 0 1.0 0.265625q0.3125 0.265625 0.3125 0.71875q0 0.4375 -0.3125 0.71875q-0.296875 0.265625 -1.0 0.265625z" fill-rule="nonzero"></path><path fill="#6aa84f" d="m354.59375 121.46279l0 1.609375q1.3125 -1.125 2.890625 -1.6875q1.578125 -0.5625 3.4375 -0.5625q4.265625 0 6.75 2.65625q1.96875 2.109375 1.96875 5.5312576l0 8.921875q1.515625 0 2.234375 0.671875q0.734375 0.671875 0.734375 1.75q0 1.046875 -0.734375 1.71875q-0.734375 0.671875 -2.46875 0.671875l-4.34375 0q-1.734375 0 -2.46875 -0.671875q-0.734375 -0.671875 -0.734375 -1.75q0 -1.046875 0.71875 -1.71875q0.734375 -0.671875 2.25 -0.671875l0 -9.0625q0 -1.5781326 -0.84375 -2.2968826q-1.09375 -0.9375 -3.296875 -0.9375q-1.671875 0 -2.921875 0.640625q-1.25 0.640625 -3.171875 2.7343826l0 8.921875q1.84375 0 2.390625 0.359375q1.140625 0.703125 1.140625 2.0625q0 1.046875 -0.734375 1.71875q-0.734375 0.671875 -2.46875 0.671875l-5.46875 0q-1.734375 0 -2.46875 -0.671875q-0.734375 -0.671875 -0.734375 -1.75q0 -1.3125 1.125 -2.03125q0.5625 -0.359375 2.40625 -0.359375l0 -11.671883q-1.515625 0 -2.25 -0.671875q-0.71875 -0.6875 -0.71875 -1.734375q0 -1.0625 0.734375 -1.71875q0.734375 -0.671875 2.46875 -0.671875l4.578125 0zm36.117188 -9.828125l0 26.296883l4.84375 0q1.734375 0 2.46875 0.671875q0.75 0.671875 0.75 1.75q0 1.046875 -0.75 1.71875q-0.734375 0.671875 -2.46875 0.671875l-14.5 0q-1.734375 0 -2.484375 -0.671875q-0.734375 -0.671875 -0.734375 -1.75q0 -1.046875 0.734375 -1.71875q0.75 -0.671875 2.484375 -0.671875l4.84375 0l0 -20.031258l-4.28125 1.125q-1.03125 0.28125 -1.546875 0.28125q-0.921875 0 -1.59375 -0.71875q-0.65625 -0.734375 -0.65625 -1.796875q0 -0.953125 0.484375 -1.5q0.5 -0.5625 2.0625 -0.984375l10.34375 -2.671875z" fill-rule="nonzero"></path><path fill="#000000" d="m446.8672 130.00967l0 9.84375q0 0.703125 -0.28125 1.015625q-0.28125 0.296875 -0.734375 0.296875q-0.421875 0 -0.703125 -0.296875q-0.28125 -0.3125 -0.28125 -1.015625l0 -9.84375l-8.71875 0q-0.703125 0 -1.015625 -0.265625q-0.296875 -0.265625 -0.296875 -0.71875q0 -0.4375 0.296875 -0.703125q0.3125 -0.28125 1.015625 -0.28125l8.71875 0l0 -9.796883q0 -0.703125 0.28125 -1.0q0.28125 -0.3125 0.734375 -0.3125q0.421875 0 0.703125 0.3125q0.28125 0.296875 0.28125 1.0l0 9.796883l8.71875 0q0.703125 0 1.0 0.28125q0.3125 0.265625 0.3125 0.703125q0 0.453125 -0.3125 0.71875q-0.296875 0.265625 -1.0 0.265625l-8.71875 0z" fill-rule="nonzero"></path><path fill="#3c78d8" d="m498.6172 121.46279l0 1.609375q1.3125 -1.125 2.890625 -1.6875q1.578125 -0.5625 3.4375 -0.5625q4.265625 0 6.75 2.65625q1.96875 2.109375 1.96875 5.5312576l0 8.921875q1.515625 0 2.234375 0.671875q0.734375 0.671875 0.734375 1.75q0 1.046875 -0.734375 1.71875q-0.734375 0.671875 -2.46875 0.671875l-4.34375 0q-1.734375 0 -2.46875 -0.671875q-0.734375 -0.671875 -0.734375 -1.75q0 -1.046875 0.71875 -1.71875q0.734375 -0.671875 2.25 -0.671875l0 -9.0625q0 -1.5781326 -0.84375 -2.2968826q-1.09375 -0.9375 -3.296875 -0.9375q-1.671875 0 -2.921875 0.640625q-1.25 0.640625 -3.171875 2.7343826l0 8.921875q1.84375 0 2.390625 0.359375q1.140625 0.703125 1.140625 2.0625q0 1.046875 -0.734375 1.71875q-0.734375 0.671875 -2.46875 0.671875l-5.46875 0q-1.734375 0 -2.46875 -0.671875q-0.734375 -0.671875 -0.734375 -1.75q0 -1.3125 1.125 -2.03125q0.5625 -0.359375 2.40625 -0.359375l0 -11.671883q-1.515625 0 -2.25 -0.671875q-0.71875 -0.6875 -0.71875 -1.734375q0 -1.0625 0.734375 -1.71875q0.734375 -0.671875 2.46875 -0.671875l4.578125 0zm29.179688 16.468758l10.515625 0q0.875 -0.703125 1.640625 -0.703125q1.109375 0 1.75 0.734375q0.640625 0.71875 0.640625 2.484375l0 2.296875l-21.890625 0l0 -5.09375q12.984375 -10.703133 15.6875 -13.781258q1.359375 -1.5625 1.359375 -2.96875q0 -1.765625 -1.546875 -3.109375q-1.53125 -1.34375 -4.078125 -1.34375q-2.578125 0 -4.296875 1.5q-0.890625 0.796875 -1.421875 2.359375q-0.328125 0.984375 -0.90625 1.40625q-0.578125 0.421875 -1.421875 0.421875q-0.984375 0 -1.703125 -0.703125q-0.703125 -0.703125 -0.703125 -1.640625q0 -1.40625 1.296875 -3.515625q1.296875 -2.109375 3.796875 -3.375q2.5 -1.265625 5.421875 -1.265625q4.546875 0 7.453125 2.765625q2.90625 2.75 2.90625 6.65625q0 2.0 -0.828125 3.703125q-0.828125 1.6875 -4.0 4.6875076q-2.484375 2.375 -9.671875 8.484375z" fill-rule="nonzero"></path><path fill="#000000" d="m560.64844 122.44717l0.875 0q1.3125 0 2.234375 0.9375q0.921875 0.9375 0.921875 2.21875q0 1.390625 -0.9375 2.3125q-0.9375 0.9062576 -2.21875 0.9062576l-0.875 0q-1.3125 0 -2.234375 -0.9375076q-0.921875 -0.9375 -0.921875 -2.234375q0 -1.375 0.9375 -2.28125q0.953125 -0.921875 2.21875 -0.921875zm-3.421875 13.218758l6.1875 0l-6.625 10.875q-0.5 0.796875 -0.796875 1.0q-0.28125 0.21875 -0.6875 0.21875q-0.5625 0 -0.9375 -0.359375q-0.375 -0.34375 -0.375 -0.828125q0 -0.28125 0.140625 -0.734375l3.09375 -10.171875z" fill-rule="nonzero"></path><path fill="#d9d9d9" d="m79.625 182.43155l0 -0.65625q0 -0.71875 0.28125 -1.015625q0.28125 -0.3125 0.703125 -0.3125q0.4375 0 0.71875 0.3125q0.28125 0.296875 0.28125 1.015625l0 4.453125q-0.015625 0.734375 -0.296875 1.046875q-0.265625 0.296875 -0.703125 0.296875q-0.40625 0 -0.671875 -0.265625q-0.265625 -0.28125 -0.3125 -0.90625q-0.140625 -1.671875 -2.203125 -3.171875q-2.046875 -1.5 -5.515625 -1.5q-4.375 0 -6.65625 2.75q-2.265625 2.734375 -2.265625 6.28125q0 3.8125 2.5 6.296875q2.515625 2.484375 6.5 2.484375q2.296875 0 4.671875 -0.84375q2.375 -0.84375 4.296875 -2.71875q0.5 -0.46875 0.875 -0.46875q0.390625 0 0.65625 0.28125q0.28125 0.265625 0.28125 0.65625q0 1.015625 -2.375 2.5625q-3.8125 2.515625 -8.5 2.515625q-4.765625 0 -7.828125 -3.03125q-3.046875 -3.046875 -3.046875 -7.71875q0 -4.75 3.125 -7.890625q3.125 -3.140625 7.890625 -3.140625q4.515625 0 7.59375 2.6875zm31.585938 8.203125q0 4.5 -3.21875 7.703125q-3.21875 3.1875 -7.765625 3.1875q-4.59375 0 -7.8125 -3.203125q-3.203125 -3.203125 -3.203125 -7.6875q0 -4.5 3.203125 -7.6875q3.21875 -3.203125 7.8125 -3.203125q4.546875 0 7.765625 3.1875q3.21875 3.1875 3.21875 7.703125zm-1.984375 0q0 -3.703125 -2.640625 -6.296875q-2.640625 -2.609375 -6.390625 -2.609375q-3.75 0 -6.390625 2.625q-2.625 2.609375 -2.625 6.28125q0 3.65625 2.625 6.28125q2.640625 2.625 6.390625 2.625q3.75 0 6.390625 -2.609375q2.640625 -2.609375 2.640625 -6.296875zm13.4296875 -10.1875l0 2.96875q2.0625 -2.078125 3.71875 -2.875q1.671875 -0.796875 3.75 -0.796875q2.25 0 4.109375 0.953125q1.3125 0.703125 2.375 2.34375q1.0625 1.625 1.0625 3.328125l0 12.40625l1.671875 0q0.703125 0 1.0 0.265625q0.3125 0.265625 0.3125 0.71875q0 0.421875 -0.3125 0.703125q-0.296875 0.28125 -1.0 0.28125l-5.28125 0q-0.71875 0 -1.03125 -0.28125q-0.296875 -0.28125 -0.296875 -0.703125q0 -0.453125 0.296875 -0.71875q0.3125 -0.265625 1.03125 -0.265625l1.640625 0l0 -12.078125q0 -2.078125 -1.53125 -3.515625q-1.515625 -1.453125 -4.0625 -1.453125q-1.953125 0 -3.390625 0.796875q-1.421875 0.78125 -4.0625 3.890625l0 12.359375l2.21875 0q0.703125 0 1.0 0.265625q0.3125 0.265625 0.3125 0.71875q0 0.421875 -0.3125 0.703125q-0.296875 0.28125 -1.0 0.28125l-6.421875 0q-0.703125 0 -1.015625 -0.28125q-0.296875 -0.28125 -0.296875 -0.703125q0 -0.453125 0.296875 -0.71875q0.3125 -0.265625 1.015625 -0.265625l2.234375 0l0 -16.34375l-1.671875 0q-0.703125 0 -1.015625 -0.28125q-0.296875 -0.28125 -0.296875 -0.71875q0 -0.421875 0.296875 -0.703125q0.3125 -0.28125 1.015625 -0.28125l3.640625 0zm41.664062 1.28125q0 -0.671875 0.28125 -0.96875q0.28125 -0.3125 0.703125 -0.3125q0.453125 0 0.734375 0.3125q0.28125 0.296875 0.28125 1.015625l0 3.375q0 0.703125 -0.28125 1.015625q-0.28125 0.296875 -0.734375 0.296875q-0.390625 0 -0.671875 -0.25q-0.265625 -0.265625 -0.3125 -0.84375q-0.140625 -1.40625 -1.453125 -2.328125q-1.921875 -1.3125 -5.078125 -1.3125q-3.3125 0 -5.140625 1.34375q-1.375 1.0 -1.375 2.25q0 1.40625 1.640625 2.34375q1.125 0.65625 4.265625 1.0q4.09375 0.453125 5.6875 1.015625q2.28125 0.8125 3.390625 2.265625q1.109375 1.453125 1.109375 3.140625q0 2.515625 -2.421875 4.484375q-2.40625 1.953125 -7.0625 1.953125q-4.671875 0 -7.640625 -2.375q0 0.796875 -0.09375 1.03125q-0.09375 0.234375 -0.34375 0.40625q-0.25 0.15625 -0.546875 0.15625q-0.421875 0 -0.703125 -0.296875q-0.28125 -0.3125 -0.28125 -1.015625l0 -4.0625q0 -0.703125 0.265625 -1.0q0.265625 -0.3125 0.71875 -0.3125q0.421875 0 0.703125 0.296875q0.296875 0.296875 0.296875 0.78125q0 1.078125 0.546875 1.8125q0.8125 1.125 2.609375 1.859375q1.796875 0.734375 4.390625 0.734375q3.84375 0 5.71875 -1.421875q1.875 -1.4375 1.875 -3.03125q0 -1.828125 -1.890625 -2.921875q-1.921875 -1.109375 -5.59375 -1.484375q-3.671875 -0.375 -5.265625 -0.984375q-1.59375 -0.609375 -2.484375 -1.828125q-0.890625 -1.21875 -0.890625 -2.625q0 -2.53125 2.484375 -4.015625q2.484375 -1.484375 5.9375 -1.484375q4.078125 0 6.625 1.984375zm33.304688 8.90625q0 4.5 -3.21875 7.703125q-3.21875 3.1875 -7.765625 3.1875q-4.59375 0 -7.8125 -3.203125q-3.203125 -3.203125 -3.203125 -7.6875q0 -4.5 3.203125 -7.6875q3.21875 -3.203125 7.8125 -3.203125q4.546875 0 7.765625 3.1875q3.21875 3.1875 3.21875 7.703125zm-1.984375 0q0 -3.703125 -2.640625 -6.296875q-2.640625 -2.609375 -6.390625 -2.609375q-3.75 0 -6.390625 2.625q-2.625 2.609375 -2.625 6.28125q0 3.65625 2.625 6.28125q2.640625 2.625 6.390625 2.625q3.75 0 6.390625 -2.609375q2.640625 -2.609375 2.640625 -6.296875zm20.789062 -19.3125l0 27.453125l7.734375 0q0.71875 0 1.015625 0.265625q0.3125 0.265625 0.3125 0.71875q0 0.421875 -0.3125 0.703125q-0.296875 0.28125 -1.015625 0.28125l-17.4375 0q-0.703125 0 -1.015625 -0.28125q-0.296875 -0.28125 -0.296875 -0.703125q0 -0.453125 0.296875 -0.71875q0.3125 -0.265625 1.015625 -0.265625l7.734375 0l0 -25.453125l-5.671875 0q-0.703125 0 -1.03125 -0.28125q-0.3125 -0.28125 -0.3125 -0.734375q0 -0.421875 0.296875 -0.703125q0.3125 -0.28125 1.046875 -0.28125l7.640625 0zm38.460938 19.734375l-20.0625 0q0.515625 3.828125 3.1875 6.15625q2.6875 2.328125 6.65625 2.328125q2.203125 0 4.609375 -0.71875q2.421875 -0.734375 3.9375 -1.921875q0.453125 -0.359375 0.78125 -0.359375q0.375 0 0.65625 0.296875q0.28125 0.296875 0.28125 0.6875q0 0.40625 -0.375 0.78125q-1.125 1.171875 -4.0 2.203125q-2.875 1.015625 -5.890625 1.015625q-5.0625 0 -8.453125 -3.3125q-3.390625 -3.328125 -3.390625 -8.046875q0 -4.28125 3.171875 -7.34375q3.1875 -3.078125 7.875 -3.078125q4.828125 0 7.9375 3.15625q3.125 3.140625 3.078125 8.15625zm-2.0 -1.984375q-0.578125 -3.265625 -3.078125 -5.296875q-2.5 -2.046875 -5.9375 -2.046875q-3.453125 0 -5.9375 2.015625q-2.484375 2.015625 -3.09375 5.328125l18.046875 0zm19.742188 6.015625l0.84375 0q1.3125 0 2.25 0.9375q0.9375 0.921875 0.9375 2.234375q0 1.359375 -0.953125 2.28125q-0.953125 0.90625 -2.234375 0.90625l-0.84375 0q-1.3125 0 -2.25 -0.921875q-0.9375 -0.9375 -0.9375 -2.25q0 -1.359375 0.9375 -2.265625q0.953125 -0.921875 2.25 -0.921875zm30.210938 -23.765625l0 27.453125l7.734375 0q0.71875 0 1.015625 0.265625q0.3125 0.265625 0.3125 0.71875q0 0.421875 -0.3125 0.703125q-0.296875 0.28125 -1.015625 0.28125l-17.4375 0q-0.703125 0 -1.015625 -0.28125q-0.296875 -0.28125 -0.296875 -0.703125q0 -0.453125 0.296875 -0.71875q0.3125 -0.265625 1.015625 -0.265625l7.734375 0l0 -25.453125l-5.671875 0q-0.703125 0 -1.03125 -0.28125q-0.3125 -0.28125 -0.3125 -0.734375q0 -0.421875 0.296875 -0.703125q0.3125 -0.28125 1.046875 -0.28125l7.640625 0zm38.804688 19.3125q0 4.5 -3.21875 7.703125q-3.21875 3.1875 -7.765625 3.1875q-4.59375 0 -7.8125 -3.203125q-3.203125 -3.203125 -3.203125 -7.6875q0 -4.5 3.203125 -7.6875q3.21875 -3.203125 7.8125 -3.203125q4.546875 0 7.765625 3.1875q3.21875 3.1875 3.21875 7.703125zm-1.984375 0q0 -3.703125 -2.640625 -6.296875q-2.640625 -2.609375 -6.390625 -2.609375q-3.75 0 -6.390625 2.625q-2.625 2.609375 -2.625 6.28125q0 3.65625 2.625 6.28125q2.640625 2.625 6.390625 2.625q3.75 0 6.390625 -2.609375q2.640625 -2.609375 2.640625 -6.296875zm26.414062 -6.578125l0 -3.609375l4.609375 0q0.703125 0 1.0 0.28125q0.3125 0.28125 0.3125 0.71875q0 0.421875 -0.3125 0.703125q-0.296875 0.28125 -1.0 0.28125l-2.640625 0l0 19.671875q0 1.96875 -0.84375 3.515625q-0.5625 1.03125 -1.875 2.125q-1.3125 1.109375 -2.390625 1.578125q-1.078125 0.46875 -2.890625 0.46875l-5.578125 0q-0.703125 0 -1.015625 -0.265625q-0.296875 -0.265625 -0.296875 -0.71875q0 -0.4375 0.296875 -0.71875q0.3125 -0.28125 1.015625 -0.28125l5.65625 0.015625q1.734375 0 3.125 -0.890625q1.390625 -0.890625 2.3125 -2.59375q0.515625 -0.984375 0.515625 -2.515625l0 -5.90625q-3.171875 4.328125 -8.15625 4.328125q-4.0625 0 -7.0 -3.0q-2.9375 -3.015625 -2.9375 -7.265625q0 -4.234375 2.9375 -7.234375q2.9375 -3.0 7.0 -3.0q4.984375 0 8.15625 4.3125zm0 5.921875q0 -3.46875 -2.390625 -5.859375q-2.375 -2.390625 -5.671875 -2.390625q-3.3125 0 -5.6875 2.40625q-2.359375 2.40625 -2.359375 5.84375q0 3.46875 2.359375 5.875q2.375 2.40625 5.6875 2.40625q3.296875 0 5.671875 -2.40625q2.390625 -2.40625 2.390625 -5.875zm21.960938 -0.90625q0 -2.703125 0.703125 -5.71875q0.703125 -3.03125 2.6875 -6.984375q2.0 -3.96875 2.90625 -4.78125q0.28125 -0.265625 0.609375 -0.265625q0.421875 0 0.71875 0.28125q0.296875 0.28125 0.296875 0.6875q0 0.234375 -0.171875 0.515625q-2.578125 4.734375 -3.6875 8.578125q-1.09375 3.84375 -1.09375 7.6875q0 3.859375 1.09375 7.703125q1.109375 3.84375 3.6875 8.5625q0.171875 0.28125 0.171875 0.515625q0 0.40625 -0.296875 0.6875q-0.296875 0.296875 -0.71875 0.296875q-0.328125 0 -0.609375 -0.25q-0.859375 -0.796875 -2.828125 -4.671875q-1.96875 -3.875 -2.71875 -6.84375q-0.75 -2.984375 -0.75 -6.0zm35.523438 -7.34375q0 -0.671875 0.28125 -0.96875q0.28125 -0.3125 0.703125 -0.3125q0.453125 0 0.734375 0.3125q0.28125 0.296875 0.28125 1.015625l0 3.375q0 0.703125 -0.28125 1.015625q-0.28125 0.296875 -0.734375 0.296875q-0.390625 0 -0.671875 -0.25q-0.265625 -0.265625 -0.3125 -0.84375q-0.140625 -1.40625 -1.453125 -2.328125q-1.921875 -1.3125 -5.078125 -1.3125q-3.3125 0 -5.140625 1.34375q-1.375 1.0 -1.375 2.25q0 1.40625 1.640625 2.34375q1.125 0.65625 4.265625 1.0q4.09375 0.453125 5.6875 1.015625q2.28125 0.8125 3.390625 2.265625q1.109375 1.453125 1.109375 3.140625q0 2.515625 -2.421875 4.484375q-2.40625 1.953125 -7.0625 1.953125q-4.671875 0 -7.640625 -2.375q0 0.796875 -0.09375 1.03125q-0.09375 0.234375 -0.34375 0.40625q-0.25 0.15625 -0.546875 0.15625q-0.421875 0 -0.703125 -0.296875q-0.28125 -0.3125 -0.28125 -1.015625l0 -4.0625q0 -0.703125 0.265625 -1.0q0.265625 -0.3125 0.71875 -0.3125q0.421875 0 0.703125 0.296875q0.296875 0.296875 0.296875 0.78125q0 1.078125 0.546875 1.8125q0.8125 1.125 2.609375 1.859375q1.796875 0.734375 4.390625 0.734375q3.84375 0 5.71875 -1.421875q1.875 -1.4375 1.875 -3.03125q0 -1.828125 -1.890625 -2.921875q-1.921875 -1.109375 -5.59375 -1.484375q-3.671875 -0.375 -5.265625 -0.984375q-1.59375 -0.609375 -2.484375 -1.828125q-0.890625 -1.21875 -0.890625 -2.625q0 -2.53125 2.484375 -4.015625q2.484375 -1.484375 5.9375 -1.484375q4.078125 0 6.625 1.984375zm29.039062 19.015625l0 -2.890625q-4.03125 3.671875 -8.71875 3.671875q-2.875 0 -4.375 -1.578125q-1.953125 -2.0625 -1.953125 -4.8125l0 -12.703125l-2.640625 0q-0.703125 0 -1.015625 -0.28125q-0.296875 -0.28125 -0.296875 -0.71875q0 -0.421875 0.296875 -0.703125q0.3125 -0.28125 1.015625 -0.28125l4.609375 0l0 14.6875q0 1.921875 1.21875 3.171875q1.21875 1.234375 3.046875 1.234375q4.8125 0 8.8125 -4.40625l0 -12.703125l-3.625 0q-0.703125 0 -1.015625 -0.28125q-0.296875 -0.28125 -0.296875 -0.71875q0 -0.421875 0.296875 -0.703125q0.3125 -0.28125 1.015625 -0.28125l5.59375 0l0 18.328125l1.671875 0q0.703125 0 1.0 0.265625q0.3125 0.265625 0.3125 0.71875q0 0.421875 -0.3125 0.703125q-0.296875 0.28125 -1.0 0.28125l-3.640625 0zm13.1015625 -20.296875l0 1.984375q2.515625 -2.6875 5.046875 -2.6875q1.515625 0 2.65625 0.8125q1.15625 0.796875 1.9375 2.4375q1.3125 -1.640625 2.65625 -2.4375q1.34375 -0.8125 2.703125 -0.8125q2.140625 0 3.40625 1.375q1.65625 1.78125 1.65625 3.890625l0 13.765625l1.671875 0q0.703125 0 1.0 0.265625q0.3125 0.265625 0.3125 0.71875q0 0.421875 -0.3125 0.703125q-0.296875 0.28125 -1.0 0.28125l-3.640625 0l0 -15.546875q0 -1.5 -0.921875 -2.484375q-0.90625 -0.984375 -2.09375 -0.984375q-1.078125 0 -2.28125 0.8125q-1.1875 0.8125 -2.71875 3.171875l0 13.0625l1.640625 0q0.703125 0 1.0 0.265625q0.3125 0.265625 0.3125 0.71875q0 0.421875 -0.3125 0.703125q-0.296875 0.28125 -1.0 0.28125l-3.625 0l0 -15.40625q0 -1.5625 -0.9375 -2.578125q-0.921875 -1.03125 -2.0625 -1.03125q-1.0625 0 -2.09375 0.6875q-1.421875 0.953125 -3.0 3.296875l0 13.0625l1.671875 0q0.703125 0 1.0 0.265625q0.3125 0.265625 0.3125 0.71875q0 0.421875 -0.3125 0.703125q-0.296875 0.28125 -1.0 0.28125l-5.296875 0q-0.703125 0 -1.015625 -0.28125q-0.296875 -0.28125 -0.296875 -0.703125q0 -0.453125 0.296875 -0.71875q0.3125 -0.265625 1.015625 -0.265625l1.65625 0l0 -16.34375l-1.65625 0q-0.703125 0 -1.015625 -0.28125q-0.296875 -0.28125 -0.296875 -0.71875q0 -0.421875 0.296875 -0.703125q0.3125 -0.28125 1.015625 -0.28125l3.625 0zm38.351562 8.640625q0 2.703125 -0.703125 5.71875q-0.703125 3.0 -2.703125 6.96875q-1.984375 3.984375 -2.90625 4.78125q-0.28125 0.28125 -0.609375 0.28125q-0.421875 0 -0.71875 -0.296875q-0.28125 -0.28125 -0.28125 -0.6875q0 -0.234375 0.15625 -0.515625q2.578125 -4.71875 3.671875 -8.5625q1.109375 -3.84375 1.109375 -7.6875q0 -3.859375 -1.109375 -7.703125q-1.09375 -3.84375 -3.671875 -8.578125q-0.15625 -0.28125 -0.15625 -0.515625q0 -0.40625 0.28125 -0.6875q0.296875 -0.28125 0.71875 -0.28125q0.328125 0 0.609375 0.265625q0.875 0.796875 2.84375 4.671875q1.96875 3.859375 2.71875 6.84375q0.75 2.96875 0.75 5.984375zm27.789062 -8.640625l0.875 0q1.3125 0 2.234375 0.9375q0.921875 0.9375 0.921875 2.21875q0 1.390625 -0.9375 2.3125q-0.9375 0.90625 -2.21875 0.90625l-0.875 0q-1.3125 0 -2.234375 -0.9375q-0.921875 -0.9375 -0.921875 -2.234375q0 -1.375 0.9375 -2.28125q0.953125 -0.921875 2.21875 -0.921875zm-3.421875 13.21875l6.1875 0l-6.625 10.875q-0.5 0.796875 -0.796875 1.0q-0.28125 0.21875 -0.6875 0.21875q-0.5625 0 -0.9375 -0.359375q-0.375 -0.34375 -0.375 -0.828125q0 -0.28125 0.140625 -0.734375l3.09375 -10.171875z" fill-rule="nonzero"></path><path fill="#d9d9d9" d="m24.5625 247.07217q-1.1875 -0.890625 -1.59375 -1.6875q-0.53125 -1.03125 -0.53125 -2.484375l0 -8.4375q0 -1.3125 -0.78125 -2.171875q-0.765625 -0.875 -1.921875 -0.96875q-0.75 -0.078125 -0.953125 -0.28125q-0.3125 -0.3125 -0.3125 -0.734375q0 -0.421875 0.296875 -0.703125q0.296875 -0.28125 0.875 -0.28125q1.875 0 3.09375 1.203125q1.671875 1.59375 1.671875 3.9375l0 8.4375q0 1.28125 0.78125 2.171875q0.78125 0.875 1.984375 0.96875q0.625 0.0625 0.890625 0.328125q0.28125 0.25 0.28125 0.703125q0 0.46875 -0.28125 0.734375q-0.265625 0.25 -0.890625 0.3125q-1.21875 0.09375 -2.0 0.984375q-0.765625 0.875 -0.765625 2.15625l0 8.453125q0 2.203125 -1.40625 3.65625q-1.40625 1.46875 -3.359375 1.46875q-0.578125 0 -0.875 -0.28125q-0.296875 -0.28125 -0.296875 -0.71875q0 -0.421875 0.28125 -0.703125q0.234375 -0.21875 0.984375 -0.28125q1.171875 -0.125 1.9375 -1.0q0.765625 -0.875 0.765625 -2.171875l0 -8.421875q0 -1.46875 0.46875 -2.375q0.46875 -0.921875 1.65625 -1.8125z" fill-rule="nonzero"></path><path fill="#d9d9d9" d="m29.0625 374.74402l0 -2.84375q-4.28125 3.625 -9.15625 3.625q-3.546875 0 -5.546875 -1.796875q-1.984375 -1.796875 -1.984375 -4.40625q0 -2.859375 2.625 -4.984375q2.625 -2.140625 7.671875 -2.140625q1.359375 0 2.953125 0.1875q1.59375 0.171875 3.4375 0.546875l0 -3.1875q0 -1.625 -1.5 -2.8125q-1.5 -1.203125 -4.5 -1.203125q-2.296875 0 -6.4375 1.34375q-0.75 0.234375 -0.96875 0.234375q-0.375 0 -0.640625 -0.28125q-0.265625 -0.28125 -0.265625 -0.703125q0 -0.40625 0.234375 -0.640625q0.328125 -0.34375 2.640625 -0.953125q3.65625 -0.984375 5.53125 -0.984375q3.734375 0 5.8125 1.84375q2.09375 1.828125 2.09375 4.15625l0 13.03125l2.625 0q0.71875 0 1.015625 0.265625q0.3125 0.265625 0.3125 0.71875q0 0.421875 -0.3125 0.703125q-0.296875 0.28125 -1.015625 0.28125l-4.625 0zm0 -9.796875q-1.375 -0.40625 -2.921875 -0.59375q-1.546875 -0.1875 -3.265625 -0.1875q-4.28125 0 -6.703125 1.859375q-1.828125 1.375 -1.828125 3.296875q0 1.78125 1.390625 3.0q1.40625 1.21875 4.078125 1.21875q2.546875 0 4.734375 -1.015625q2.203125 -1.015625 4.515625 -3.25l0 -4.328125zm32.789062 -19.625l0 27.453125l2.625 0q0.734375 0 1.03125 0.265625q0.3125 0.265625 0.3125 0.71875q0 0.421875 -0.3125 0.703125q-0.296875 0.28125 -1.03125 0.28125l-4.609375 0l0 -3.921875q-3.421875 4.703125 -8.703125 4.703125q-2.671875 0 -5.125 -1.421875q-2.4375 -1.421875 -3.859375 -4.046875q-1.421875 -2.625 -1.421875 -5.421875q0 -2.8125 1.421875 -5.421875q1.421875 -2.609375 3.859375 -4.03125q2.453125 -1.4375 5.15625 -1.4375q5.15625 0 8.671875 4.6875l0 -11.109375l-2.625 0q-0.734375 0 -1.046875 -0.28125q-0.296875 -0.28125 -0.296875 -0.734375q0 -0.421875 0.296875 -0.703125q0.3125 -0.28125 1.046875 -0.28125l4.609375 0zm-1.984375 19.3125q0 -3.75 -2.53125 -6.328125q-2.53125 -2.578125 -6.03125 -2.578125q-3.515625 0 -6.046875 2.578125q-2.53125 2.578125 -2.53125 6.328125q0 3.734375 2.53125 6.328125q2.53125 2.578125 6.046875 2.578125q3.5 0 6.03125 -2.578125q2.53125 -2.59375 2.53125 -6.328125zm30.789062 -19.3125l0 27.453125l2.625 0q0.734375 0 1.03125 0.265625q0.3125 0.265625 0.3125 0.71875q0 0.421875 -0.3125 0.703125q-0.296875 0.28125 -1.03125 0.28125l-4.609375 0l0 -3.921875q-3.421875 4.703125 -8.703125 4.703125q-2.671875 0 -5.125 -1.421875q-2.4375 -1.421875 -3.859375 -4.046875q-1.421875 -2.625 -1.421875 -5.421875q0 -2.8125 1.421875 -5.421875q1.421875 -2.609375 3.859375 -4.03125q2.453125 -1.4375 5.15625 -1.4375q5.15625 0 8.671875 4.6875l0 -11.109375l-2.625 0q-0.734375 0 -1.046875 -0.28125q-0.296875 -0.28125 -0.296875 -0.734375q0 -0.421875 0.296875 -0.703125q0.3125 -0.28125 1.046875 -0.28125l4.609375 0zm-1.984375 19.3125q0 -3.75 -2.53125 -6.328125q-2.53125 -2.578125 -6.03125 -2.578125q-3.515625 0 -6.046875 2.578125q-2.53125 2.578125 -2.53125 6.328125q0 3.734375 2.53125 6.328125q2.53125 2.578125 6.046875 2.578125q3.5 0 6.03125 -2.578125q2.53125 -2.59375 2.53125 -6.328125zm20.929688 -1.5625q0 -2.703125 0.703125 -5.71875q0.703125 -3.03125 2.6875 -6.984375q2.0 -3.96875 2.90625 -4.78125q0.28125 -0.265625 0.609375 -0.265625q0.421875 0 0.71875 0.28125q0.296875 0.28125 0.296875 0.6875q0 0.234375 -0.171875 0.515625q-2.578125 4.734375 -3.6875 8.578125q-1.09375 3.84375 -1.09375 7.6875q0 3.859375 1.09375 7.703125q1.109375 3.84375 3.6875 8.5625q0.171875 0.28125 0.171875 0.515625q0 0.40625 -0.296875 0.6875q-0.296875 0.296875 -0.71875 0.296875q-0.328125 0 -0.609375 -0.25q-0.859375 -0.796875 -2.828125 -4.671875q-1.96875 -3.875 -2.71875 -6.84375q-0.75 -2.984375 -0.75 -6.0zm33.070312 -4.34375q2.71875 1.21875 4.140625 3.34375q1.4375 2.125 1.4375 4.421875q0 3.53125 -2.875 6.25q-2.875 2.703125 -7.1875 2.703125q-2.53125 0 -5.25 -1.078125q-2.71875 -1.078125 -3.796875 -2.203125q-0.34375 -0.375 -0.34375 -0.796875q0 -0.375 0.265625 -0.65625q0.265625 -0.28125 0.640625 -0.28125q0.375 0 0.84375 0.34375q3.640625 2.703125 7.6875 2.703125q3.421875 0 5.734375 -2.140625q2.3125 -2.15625 2.3125 -4.78125q0 -1.75 -1.140625 -3.4375q-1.140625 -1.6875 -3.28125 -2.65625q-2.125 -0.984375 -4.296875 -0.984375q-0.703125 0 -1.015625 -0.265625q-0.296875 -0.265625 -0.296875 -0.71875q0 -0.421875 0.28125 -0.703125q0.296875 -0.28125 0.890625 -0.28125l1.6875 0.03125q2.640625 0 4.359375 -1.609375q1.734375 -1.625 1.734375 -3.765625q0 -2.203125 -1.8125 -3.890625q-1.796875 -1.6875 -4.703125 -1.6875q-2.046875 0 -3.765625 0.703125q-1.703125 0.703125 -2.734375 1.921875q-0.375 0.46875 -0.578125 0.578125q-0.1875 0.109375 -0.453125 0.109375q-0.390625 0 -0.671875 -0.265625q-0.28125 -0.28125 -0.28125 -0.65625q0 -0.9375 2.03125 -2.359375q2.84375 -2.0 6.453125 -2.0q3.71875 0 6.109375 2.25q2.390625 2.234375 2.390625 5.328125q0 1.96875 -1.15625 3.734375q-1.140625 1.75 -3.359375 2.796875zm20.851562 8.9375l6.40625 0l-6.96875 12.9375q-0.625 1.171875 -1.515625 1.171875q-0.59375 0 -1.0 -0.40625q-0.40625 -0.40625 -0.40625 -1.0q0 -0.234375 0.0625 -0.515625l3.421875 -12.1875zm55.640625 -5.375q1.828125 -2.6875 3.765625 -3.96875q1.9375 -1.296875 4.296875 -1.296875q3.140625 0 5.578125 2.609375q2.4375 2.609375 2.4375 6.453125q0 3.515625 -2.234375 6.4375q-2.21875 2.921875 -6.125 2.921875q-2.5625 0 -4.78125 -1.5625q-2.203125 -1.578125 -3.46875 -4.84375q-1.578125 -4.046875 -1.578125 -8.96875q0 -3.703125 1.484375 -6.890625q1.125 -2.46875 3.0 -4.328125q1.875 -1.859375 4.359375 -3.046875q2.5 -1.1875 5.40625 -1.1875q1.96875 0 3.28125 0.796875q0.5625 0.359375 0.5625 0.9375q0 0.421875 -0.265625 0.703125q-0.25 0.265625 -0.640625 0.265625q-0.3125 0 -0.734375 -0.234375q-0.953125 -0.46875 -2.390625 -0.46875q-4.5625 0 -8.328125 3.921875q-3.765625 3.921875 -3.765625 9.34375q0 0.765625 0.140625 2.40625zm0.453125 3.265625q0.890625 4.265625 2.796875 6.09375q1.90625 1.828125 4.515625 1.828125q2.625 0 4.484375 -2.046875q1.859375 -2.0625 1.859375 -5.34375q0 -3.0625 -1.875 -5.078125q-1.875 -2.015625 -4.234375 -2.015625q-2.28125 0 -4.390625 1.9375q-1.40625 1.296875 -3.15625 4.625zm34.804688 -2.46875q0 2.703125 -0.703125 5.71875q-0.703125 3.0 -2.703125 6.96875q-1.984375 3.984375 -2.90625 4.78125q-0.28125 0.28125 -0.609375 0.28125q-0.421875 0 -0.71875 -0.296875q-0.28125 -0.28125 -0.28125 -0.6875q0 -0.234375 0.15625 -0.515625q2.578125 -4.71875 3.671875 -8.5625q1.109375 -3.84375 1.109375 -7.6875q0 -3.859375 -1.109375 -7.703125q-1.09375 -3.84375 -3.671875 -8.578125q-0.15625 -0.28125 -0.15625 -0.515625q0 -0.40625 0.28125 -0.6875q0.296875 -0.28125 0.71875 -0.28125q0.328125 0 0.609375 0.265625q0.875 0.796875 2.84375 4.671875q1.96875 3.859375 2.71875 6.84375q0.75 2.96875 0.75 5.984375zm27.789062 -8.640625l0.875 0q1.3125 0 2.234375 0.9375q0.921875 0.9375 0.921875 2.21875q0 1.390625 -0.9375 2.3125q-0.9375 0.90625 -2.21875 0.90625l-0.875 0q-1.3125 0 -2.234375 -0.9375q-0.921875 -0.9375 -0.921875 -2.234375q0 -1.375 0.9375 -2.28125q0.953125 -0.921875 2.21875 -0.921875zm-3.421875 13.21875l6.1875 0l-6.625 10.875q-0.5 0.796875 -0.796875 1.0q-0.28125 0.21875 -0.6875 0.21875q-0.5625 0 -0.9375 -0.359375q-0.375 -0.34375 -0.375 -0.828125q0 -0.28125 0.140625 -0.734375l3.09375 -10.171875z" fill-rule="nonzero"></path><path fill="#000000" fill-opacity="0.0" d="m584.64307 0l227.1496 0l0 37.984253l-227.1496 0z" fill-rule="nonzero"></path><path fill="#666666" d="m596.70557 30.919998q-1.453125 -3.1875 -1.453125 -6.5625q0 -2.25 0.578125 -4.171875q0.59375 -1.9375 1.796875 -3.828125q0.796875 -1.265625 2.5625 -3.265625l1.296875 0q-1.078125 1.15625 -2.296875 3.265625q-1.203125 2.09375 -1.75 4.140625q-0.546875 2.03125 -0.546875 4.078125q0 3.0625 1.0625 6.34375l-1.25 0zm2.9626465 -0.21875l2.84375 -13.640625l1.546875 0l-0.28125 1.375q0.859375 -0.890625 1.53125 -1.234375q0.6875 -0.359375 1.453125 -0.359375q1.40625 0 2.328125 1.03125q0.9375 1.015625 0.9375 2.9375q0 1.53125 -0.515625 2.796875q-0.515625 1.265625 -1.265625 2.046875q-0.734375 0.765625 -1.5 1.125q-0.75 0.359375 -1.546875 0.359375q-1.765625 0 -2.75 -1.796875l-1.109375 5.359375l-1.671875 0zm3.3125 -7.8125q0 1.109375 0.15625 1.53125q0.234375 0.609375 0.765625 0.984375q0.53125 0.359375 1.21875 0.359375q1.453125 0 2.34375 -1.625q0.890625 -1.625 0.890625 -3.328125q0 -1.25 -0.609375 -1.921875q-0.59375 -0.6875 -1.484375 -0.6875q-0.640625 0 -1.1875 0.34375q-0.546875 0.328125 -1.015625 1.0q-0.46875 0.671875 -0.78125 1.65625q-0.296875 0.96875 -0.296875 1.6875zm14.531982 2.8125q-0.875 0.75 -1.6875 1.09375q-0.8125 0.34375 -1.71875 0.34375q-1.375 0 -2.21875 -0.796875q-0.828125 -0.796875 -0.828125 -2.0625q0 -0.8125 0.375 -1.453125q0.390625 -0.640625 1.0 -1.015625q0.625 -0.390625 1.53125 -0.5625q0.5625 -0.109375 2.140625 -0.171875q1.578125 -0.0625 2.265625 -0.328125q0.203125 -0.6875 0.203125 -1.140625q0 -0.59375 -0.4375 -0.921875q-0.578125 -0.46875 -1.703125 -0.46875q-1.046875 0 -1.734375 0.46875q-0.671875 0.46875 -0.96875 1.328125l-1.703125 -0.140625q0.515625 -1.46875 1.640625 -2.25q1.140625 -0.78125 2.859375 -0.78125q1.828125 0 2.890625 0.875q0.8125 0.65625 0.8125 1.6875q0 0.796875 -0.234375 1.828125l-0.546875 2.453125q-0.25 1.171875 -0.25 1.890625q0 0.46875 0.203125 1.34375l-1.703125 0q-0.140625 -0.484375 -0.1875 -1.21875zm0.609375 -3.765625q-0.34375 0.125 -0.75 0.203125q-0.40625 0.078125 -1.34375 0.15625q-1.46875 0.140625 -2.078125 0.34375q-0.59375 0.1875 -0.90625 0.625q-0.3125 0.4375 -0.3125 0.96875q0 0.703125 0.484375 1.15625q0.5 0.453125 1.390625 0.453125q0.84375 0 1.609375 -0.4375q0.765625 -0.4375 1.203125 -1.21875q0.453125 -0.796875 0.703125 -2.25zm3.1101074 4.984375l2.0625 -9.859375l1.484375 0l-0.421875 2.015625q0.765625 -1.140625 1.484375 -1.6875q0.734375 -0.546875 1.5 -0.546875q0.5 0 1.234375 0.359375l-0.6875 1.5625q-0.4375 -0.3125 -0.953125 -0.3125q-0.875 0 -1.8125 0.984375q-0.921875 0.984375 -1.453125 3.53125l-0.828125 3.953125l-1.609375 0zm12.8688965 -1.21875q-0.875 0.75 -1.6875 1.09375q-0.8125 0.34375 -1.71875 0.34375q-1.375 0 -2.21875 -0.796875q-0.828125 -0.796875 -0.828125 -2.0625q0 -0.8125 0.375 -1.453125q0.390625 -0.640625 1.0 -1.015625q0.625 -0.390625 1.53125 -0.5625q0.5625 -0.109375 2.140625 -0.171875q1.578125 -0.0625 2.265625 -0.328125q0.203125 -0.6875 0.203125 -1.140625q0 -0.59375 -0.4375 -0.921875q-0.578125 -0.46875 -1.703125 -0.46875q-1.046875 0 -1.734375 0.46875q-0.671875 0.46875 -0.96875 1.328125l-1.703125 -0.140625q0.515625 -1.46875 1.640625 -2.25q1.140625 -0.78125 2.859375 -0.78125q1.828125 0 2.890625 0.875q0.8125 0.65625 0.8125 1.6875q0 0.796875 -0.234375 1.828125l-0.546875 2.453125q-0.25 1.171875 -0.25 1.890625q0 0.46875 0.203125 1.34375l-1.703125 0q-0.140625 -0.484375 -0.1875 -1.21875zm0.609375 -3.765625q-0.34375 0.125 -0.75 0.203125q-0.40625 0.078125 -1.34375 0.15625q-1.46875 0.140625 -2.078125 0.34375q-0.59375 0.1875 -0.90625 0.625q-0.3125 0.4375 -0.3125 0.96875q0 0.703125 0.484375 1.15625q0.5 0.453125 1.390625 0.453125q0.84375 0 1.609375 -0.4375q0.765625 -0.4375 1.203125 -1.21875q0.453125 -0.796875 0.703125 -2.25zm3.1101074 4.984375l2.0625 -9.859375l1.671875 0l-0.34375 1.625q0.9375 -1.046875 1.671875 -1.4375q0.734375 -0.40625 1.609375 -0.40625q0.90625 0 1.515625 0.5q0.625 0.484375 0.828125 1.34375q0.75 -0.921875 1.578125 -1.375q0.828125 -0.46875 1.75 -0.46875q1.234375 0 1.84375 0.59375q0.625 0.578125 0.625 1.640625q0 0.453125 -0.21875 1.5l-1.328125 6.34375l-1.671875 0l1.359375 -6.515625q0.171875 -0.796875 0.171875 -1.140625q0 -0.484375 -0.3125 -0.75q-0.296875 -0.28125 -0.859375 -0.28125q-0.75 0 -1.53125 0.453125q-0.78125 0.453125 -1.21875 1.1875q-0.421875 0.734375 -0.75 2.265625l-1.0 4.78125l-1.671875 0l1.390625 -6.65625q0.140625 -0.671875 0.140625 -0.953125q0 -0.484375 -0.296875 -0.78125q-0.296875 -0.296875 -0.78125 -0.296875q-0.71875 0 -1.5 0.453125q-0.78125 0.453125 -1.28125 1.265625q-0.484375 0.8125 -0.796875 2.3125l-0.984375 4.65625l-1.671875 0zm22.790771 -3.34375l1.625 0.15625q-0.359375 1.21875 -1.625 2.3125q-1.265625 1.09375 -3.015625 1.09375q-1.09375 0 -2.015625 -0.5q-0.90625 -0.5 -1.390625 -1.46875q-0.46875 -0.96875 -0.46875 -2.203125q0 -1.609375 0.75 -3.125q0.75 -1.515625 1.9375 -2.25q1.1875 -0.75 2.5625 -0.75q1.765625 0 2.8125 1.09375q1.0625 1.09375 1.0625 2.984375q0 0.734375 -0.140625 1.484375l-7.25 0q-0.03125 0.296875 -0.03125 0.53125q0 1.375 0.625 2.109375q0.640625 0.71875 1.5625 0.71875q0.859375 0 1.6875 -0.5625q0.84375 -0.5625 1.3125 -1.625zm-4.890625 -2.453125l5.53125 0q0.015625 -0.25 0.015625 -0.359375q0 -1.265625 -0.640625 -1.9375q-0.625 -0.671875 -1.625 -0.671875q-1.0625 0 -1.953125 0.75q-0.890625 0.734375 -1.328125 2.21875zm11.953857 4.4375l-0.28125 1.375q-0.609375 0.15625 -1.171875 0.15625q-1.0 0 -1.59375 -0.5q-0.453125 -0.375 -0.453125 -1.015625q0 -0.3125 0.25 -1.484375l1.1875 -5.71875l-1.328125 0l0.28125 -1.3125l1.328125 0l0.5 -2.421875l1.921875 -1.15625l-0.75 3.578125l1.65625 0l-0.28125 1.3125l-1.640625 0l-1.140625 5.4375q-0.21875 1.046875 -0.21875 1.25q0 0.296875 0.171875 0.453125q0.171875 0.15625 0.5625 0.15625q0.5625 0 1.0 -0.109375zm8.495789 -1.984375l1.625 0.15625q-0.359375 1.21875 -1.625 2.3125q-1.265625 1.09375 -3.015625 1.09375q-1.09375 0 -2.015625 -0.5q-0.90625 -0.5 -1.390625 -1.46875q-0.46875 -0.96875 -0.46875 -2.203125q0 -1.609375 0.75 -3.125q0.75 -1.515625 1.9375 -2.25q1.1875 -0.75 2.5625 -0.75q1.765625 0 2.8125 1.09375q1.0625 1.09375 1.0625 2.984375q0 0.734375 -0.140625 1.484375l-7.25 0q-0.03125 0.296875 -0.03125 0.53125q0 1.375 0.625 2.109375q0.640625 0.71875 1.5625 0.71875q0.859375 0 1.6875 -0.5625q0.84375 -0.5625 1.3125 -1.625zm-4.890625 -2.453125l5.53125 0q0.015625 -0.25 0.015625 -0.359375q0 -1.265625 -0.640625 -1.9375q-0.625 -0.671875 -1.625 -0.671875q-1.0625 0 -1.953125 0.75q-0.890625 0.734375 -1.328125 2.21875zm8.016357 5.796875l2.0625 -9.859375l1.484375 0l-0.421875 2.015625q0.765625 -1.140625 1.484375 -1.6875q0.734375 -0.546875 1.5 -0.546875q0.5 0 1.234375 0.359375l-0.6875 1.5625q-0.4375 -0.3125 -0.953125 -0.3125q-0.875 0 -1.8125 0.984375q-0.921875 0.984375 -1.453125 3.53125l-0.828125 3.953125l-1.609375 0zm6.3689575 -3.375l1.6875 -0.09375q0 0.71875 0.21875 1.234375q0.21875 0.515625 0.8125 0.84375q0.609375 0.3125 1.40625 0.3125q1.109375 0 1.671875 -0.4375q0.5625 -0.453125 0.5625 -1.046875q0 -0.4375 -0.34375 -0.828125q-0.34375 -0.390625 -1.671875 -0.953125q-1.328125 -0.578125 -1.703125 -0.8125q-0.625 -0.375 -0.9375 -0.890625q-0.3125 -0.515625 -0.3125 -1.1875q0 -1.171875 0.921875 -2.0q0.9375 -0.84375 2.609375 -0.84375q1.84375 0 2.8125 0.859375q0.96875 0.859375 1.015625 2.265625l-1.640625 0.109375q-0.046875 -0.890625 -0.640625 -1.40625q-0.59375 -0.53125 -1.671875 -0.53125q-0.875 0 -1.359375 0.40625q-0.484375 0.390625 -0.484375 0.859375q0 0.46875 0.421875 0.8125q0.28125 0.25 1.4375 0.75q1.9375 0.828125 2.4375 1.3125q0.796875 0.765625 0.796875 1.875q0 0.734375 -0.453125 1.4375q-0.453125 0.703125 -1.375 1.125q-0.921875 0.421875 -2.171875 0.421875q-1.703125 0 -2.90625 -0.84375q-1.203125 -0.84375 -1.140625 -2.75zm12.3125 -10.453125q1.46875 3.1875 1.46875 6.546875q0 2.25 -0.59375 4.1875q-0.59375 1.921875 -1.796875 3.828125q-0.796875 1.265625 -2.546875 3.265625l-1.3125 0q1.078125 -1.171875 2.296875 -3.28125q1.21875 -2.09375 1.75 -4.125q0.546875 -2.03125 0.546875 -4.09375q0 -3.0625 -1.0625 -6.328125l1.25 0z" fill-rule="nonzero"></path><path fill="#000000" fill-opacity="0.0" d="m121.761154 388.38058l227.14961 0l0 37.984253l-227.14961 0z" fill-rule="nonzero"></path><path fill="#666666" d="m133.82365 419.30057q-1.453125 -3.1875 -1.453125 -6.5625q0 -2.25 0.578125 -4.171875q0.59375 -1.9375 1.796875 -3.828125q0.796875 -1.265625 2.5625 -3.265625l1.296875 0q-1.078125 1.15625 -2.296875 3.265625q-1.203125 2.09375 -1.75 4.140625q-0.546875 2.03125 -0.546875 4.078125q0 3.0625 1.0625 6.34375l-1.25 0zm10.431427 -5.21875q-0.875 0.75 -1.6875 1.09375q-0.8125 0.34375 -1.71875 0.34375q-1.375 0 -2.21875 -0.796875q-0.828125 -0.796875 -0.828125 -2.0625q0 -0.8125 0.375 -1.453125q0.390625 -0.640625 1.0 -1.015625q0.625 -0.390625 1.53125 -0.5625q0.5625 -0.109375 2.140625 -0.171875q1.578125 -0.0625 2.265625 -0.328125q0.203125 -0.6875 0.203125 -1.140625q0 -0.59375 -0.4375 -0.921875q-0.578125 -0.46875 -1.703125 -0.46875q-1.046875 0 -1.734375 0.46875q-0.671875 0.46875 -0.96875 1.328125l-1.703125 -0.140625q0.515625 -1.46875 1.640625 -2.25q1.140625 -0.78125 2.859375 -0.78125q1.828125 0 2.890625 0.875q0.8125 0.65625 0.8125 1.6875q0 0.796875 -0.234375 1.828125l-0.546875 2.453125q-0.25 1.171875 -0.25 1.890625q0 0.46875 0.203125 1.34375l-1.703125 0q-0.140625 -0.484375 -0.1875 -1.21875zm0.609375 -3.765625q-0.34375 0.125 -0.75 0.203125q-0.40625 0.078125 -1.34375 0.15625q-1.46875 0.140625 -2.078125 0.34375q-0.59375 0.1875 -0.90625 0.625q-0.3125 0.4375 -0.3125 0.96875q0 0.703125 0.484375 1.15625q0.5 0.453125 1.390625 0.453125q0.84375 0 1.609375 -0.4375q0.765625 -0.4375 1.203125 -1.21875q0.453125 -0.796875 0.703125 -2.25zm3.1100922 4.984375l2.0625 -9.859375l1.484375 0l-0.421875 2.015625q0.765625 -1.140625 1.484375 -1.6875q0.734375 -0.546875 1.5 -0.546875q0.5 0 1.234375 0.359375l-0.6875 1.5625q-0.4375 -0.3125 -0.953125 -0.3125q-0.875 0 -1.8125 0.984375q-0.921875 0.984375 -1.453125 3.53125l-0.828125 3.953125l-1.609375 0zm6.118927 0.890625l1.703125 0.15625q-0.015625 0.578125 0.140625 0.859375q0.15625 0.296875 0.5 0.453125q0.453125 0.203125 1.171875 0.203125q1.53125 0 2.203125 -0.796875q0.4375 -0.515625 0.796875 -2.296875l0.171875 -0.796875q-1.3125 1.328125 -2.78125 1.328125q-1.5 0 -2.515625 -1.09375q-1.0 -1.109375 -1.0 -3.125q0 -1.65625 0.796875 -3.046875q0.796875 -1.390625 1.890625 -2.09375q1.09375 -0.71875 2.25 -0.71875q1.9375 0 2.984375 1.84375l0.34375 -1.625l1.53125 0l-1.984375 9.515625q-0.3125 1.5625 -0.84375 2.4375q-0.53125 0.890625 -1.484375 1.359375q-0.9375 0.484375 -2.171875 0.484375q-1.1875 0 -2.046875 -0.3125q-0.84375 -0.296875 -1.28125 -0.890625q-0.421875 -0.578125 -0.421875 -1.34375q0 -0.234375 0.046875 -0.5zm2.109375 -5.25q0 1.015625 0.1875 1.515625q0.28125 0.71875 0.796875 1.09375q0.515625 0.375 1.140625 0.375q0.828125 0 1.640625 -0.578125q0.828125 -0.578125 1.328125 -1.796875q0.5 -1.21875 0.5 -2.3125q0 -1.21875 -0.671875 -1.9375q-0.671875 -0.71875 -1.65625 -0.71875q-0.625 0 -1.203125 0.328125q-0.5625 0.328125 -1.0625 1.0q-0.5 0.671875 -0.75 1.609375q-0.25 0.9375 -0.25 1.421875zm15.094467 2.578125q-1.78125 2.0 -3.625 2.0q-1.140625 0 -1.84375 -0.640625q-0.703125 -0.65625 -0.703125 -1.609375q0 -0.625 0.3125 -2.140625l1.1875 -5.6875l1.6875 0l-1.328125 6.3125q-0.15625 0.78125 -0.15625 1.21875q0 0.5625 0.328125 0.875q0.34375 0.296875 1.0 0.296875q0.703125 0 1.375 -0.34375q0.671875 -0.34375 1.15625 -0.921875q0.5 -0.578125 0.796875 -1.375q0.203125 -0.515625 0.484375 -1.796875l0.890625 -4.265625l1.671875 0l-2.0625 9.859375l-1.546875 0l0.375 -1.78125zm3.6413422 1.78125l2.0625 -9.859375l1.671875 0l-0.34375 1.625q0.9375 -1.046875 1.671875 -1.4375q0.734375 -0.40625 1.609375 -0.40625q0.90625 0 1.515625 0.5q0.625 0.484375 0.828125 1.34375q0.75 -0.921875 1.578125 -1.375q0.828125 -0.46875 1.75 -0.46875q1.234375 0 1.84375 0.59375q0.625 0.578125 0.625 1.640625q0 0.453125 -0.21875 1.5l-1.328125 6.34375l-1.671875 0l1.359375 -6.515625q0.171875 -0.796875 0.171875 -1.140625q0 -0.484375 -0.3125 -0.75q-0.296875 -0.28125 -0.859375 -0.28125q-0.75 0 -1.53125 0.453125q-0.78125 0.453125 -1.21875 1.1875q-0.421875 0.734375 -0.75 2.265625l-1.0 4.78125l-1.671875 0l1.390625 -6.65625q0.140625 -0.671875 0.140625 -0.953125q0 -0.484375 -0.296875 -0.78125q-0.296875 -0.296875 -0.78125 -0.296875q-0.71875 0 -1.5 0.453125q-0.78125 0.453125 -1.28125 1.265625q-0.484375 0.8125 -0.796875 2.3125l-0.984375 4.65625l-1.671875 0zm22.790802 -3.34375l1.625 0.15625q-0.359375 1.21875 -1.625 2.3125q-1.265625 1.09375 -3.015625 1.09375q-1.09375 0 -2.015625 -0.5q-0.90625 -0.5 -1.390625 -1.46875q-0.46875 -0.96875 -0.46875 -2.203125q0 -1.609375 0.75 -3.125q0.75 -1.515625 1.9375 -2.25q1.1875 -0.75 2.5625 -0.75q1.765625 0 2.8125 1.09375q1.0625 1.09375 1.0625 2.984375q0 0.734375 -0.140625 1.484375l-7.25 0q-0.03125 0.296875 -0.03125 0.53125q0 1.375 0.625 2.109375q0.640625 0.71875 1.5625 0.71875q0.859375 0 1.6875 -0.5625q0.84375 -0.5625 1.3125 -1.625zm-4.890625 -2.453125l5.53125 0q0.015625 -0.25 0.015625 -0.359375q0 -1.265625 -0.640625 -1.9375q-0.625 -0.671875 -1.625 -0.671875q-1.0625 0 -1.953125 0.75q-0.890625 0.734375 -1.328125 2.21875zm8.016342 5.796875l2.0625 -9.859375l1.53125 0l-0.375 1.71875q1.0 -1.0 1.859375 -1.46875q0.859375 -0.46875 1.765625 -0.46875q1.203125 0 1.875 0.65625q0.6875 0.640625 0.6875 1.734375q0 0.546875 -0.25 1.71875l-1.25 5.96875l-1.671875 0l1.3125 -6.25q0.1875 -0.90625 0.1875 -1.34375q0 -0.484375 -0.34375 -0.78125q-0.328125 -0.3125 -0.96875 -0.3125q-1.296875 0 -2.3125 0.921875q-1.0 0.921875 -1.46875 3.1875l-0.953125 4.578125l-1.6875 0zm14.313217 -1.359375l-0.28125 1.375q-0.609375 0.15625 -1.171875 0.15625q-1.0 0 -1.59375 -0.5q-0.453125 -0.375 -0.453125 -1.015625q0 -0.3125 0.25 -1.484375l1.1875 -5.71875l-1.328125 0l0.28125 -1.3125l1.328125 0l0.5 -2.421875l1.921875 -1.15625l-0.75 3.578125l1.65625 0l-0.28125 1.3125l-1.640625 0l-1.140625 5.4375q-0.21875 1.046875 -0.21875 1.25q0 0.296875 0.171875 0.453125q0.171875 0.15625 0.5625 0.15625q0.5625 0 1.0 -0.109375zm1.4020538 -2.015625l1.6875 -0.09375q0 0.71875 0.21875 1.234375q0.21875 0.515625 0.8125 0.84375q0.609375 0.3125 1.40625 0.3125q1.109375 0 1.671875 -0.4375q0.5625 -0.453125 0.5625 -1.046875q0 -0.4375 -0.34375 -0.828125q-0.34375 -0.390625 -1.671875 -0.953125q-1.328125 -0.578125 -1.703125 -0.8125q-0.625 -0.375 -0.9375 -0.890625q-0.3125 -0.515625 -0.3125 -1.1875q0 -1.171875 0.921875 -2.0q0.9375 -0.84375 2.609375 -0.84375q1.84375 0 2.8125 0.859375q0.96875 0.859375 1.015625 2.265625l-1.640625 0.109375q-0.046875 -0.890625 -0.640625 -1.40625q-0.59375 -0.53125 -1.671875 -0.53125q-0.875 0 -1.359375 0.40625q-0.484375 0.390625 -0.484375 0.859375q0 0.46875 0.421875 0.8125q0.28125 0.25 1.4375 0.75q1.9375 0.828125 2.4375 1.3125q0.796875 0.765625 0.796875 1.875q0 0.734375 -0.453125 1.4375q-0.453125 0.703125 -1.375 1.125q-0.921875 0.421875 -2.171875 0.421875q-1.703125 0 -2.90625 -0.84375q-1.203125 -0.84375 -1.140625 -2.75zm12.3125 -10.453125q1.46875 3.1875 1.46875 6.546875q0 2.25 -0.59375 4.1875q-0.59375 1.921875 -1.796875 3.828125q-0.796875 1.265625 -2.546875 3.265625l-1.3125 0q1.078125 -1.171875 2.296875 -3.28125q1.21875 -2.09375 1.75 -4.125q0.546875 -2.03125 0.546875 -4.09375q0 -3.0625 -1.0625 -6.328125l1.25 0z" fill-rule="nonzero"></path><path fill="#000000" fill-opacity="0.0" d="m551.1286 77.46457l-139.27557 36.503937" fill-rule="nonzero"></path><path stroke="#000000" stroke-width="2.0" stroke-linejoin="round" stroke-linecap="butt" d="m551.1286 77.46457l-132.64539 34.766167" fill-rule="evenodd"></path><path fill="#000000" stroke="#000000" stroke-width="2.0" stroke-linecap="butt" d="m418.48325 112.230736l1.6054382 -2.745926l-5.407379 3.7424088l6.5478516 0.60894775z" fill-rule="evenodd"></path><path fill="#000000" fill-opacity="0.0" d="m668.0551 78.20735l-115.433044 35.74803" fill-rule="nonzero"></path><path stroke="#000000" stroke-width="2.0" stroke-linejoin="round" stroke-linecap="butt" d="m668.0551 78.20735l-108.88568 33.72039" fill-rule="evenodd"></path><path fill="#000000" stroke="#000000" stroke-width="2.0" stroke-linecap="butt" d="m559.16943 111.92774l1.4831543 -2.813858l-5.23761 3.9765625l6.5682983 0.32043457z" fill-rule="evenodd"></path></g></svg>

